<svg xmlns="http://www.w3.org/2000/svg" viewBox="0 0 155.77 103.32">
  <defs>
    <style>.cls-1{fill:#fff;}</style>
  </defs>
  <title>Clydesdale</title>
  <g id="Layer_2" data-name="Layer 2">
    <g id="Layer_1-2" data-name="Layer 1">
      <path class="cls-1" d="M37.28,58.2a2.24,2.24,0,0,0-.92-.2,1.9,1.9,0,0,0-1.35.51,1.92,1.92,0,0,0-.51.77h3.78a1.93,1.93,0,0,0-.31-.55A1.87,1.87,0,0,0,37.28,58.2Z"/>
      <path class="cls-1" d="M30.46,61.33a2.32,2.32,0,0,0,.28-1.12,2.2,2.2,0,0,0-.62-1.58A2,2,0,0,0,28.6,58a2.09,2.09,0,0,0-1.07.28,2.17,2.17,0,0,0-.79.8,2.26,2.26,0,0,0-.29,1.1,2.19,2.19,0,0,0,.3,1.1,2.09,2.09,0,0,0,1.84,1.1,2.22,2.22,0,0,0,1.09-.29A2,2,0,0,0,30.46,61.33Z"/>
      <path class="cls-1" d="M17.76,68.75a2.11,2.11,0,0,0-1.07.28,2.14,2.14,0,0,0-.78.8,2.29,2.29,0,0,0-.29,1.1A2.22,2.22,0,0,0,15.91,72a2.15,2.15,0,0,0,.79.82,2.09,2.09,0,0,0,1.06.29,2.19,2.19,0,0,0,1.08-.29,2,2,0,0,0,.79-.77A2.3,2.3,0,0,0,19.91,71a2.16,2.16,0,0,0-.63-1.58A2,2,0,0,0,17.76,68.75Z"/>
      <path class="cls-1" d="M67.21,58.2a2.24,2.24,0,0,0-.92-.2,1.94,1.94,0,0,0-1.36.51,2.15,2.15,0,0,0-.51.77H68.2a1.91,1.91,0,0,0-.3-.55A1.87,1.87,0,0,0,67.21,58.2Z"/>
      <path class="cls-1" d="M56.24,58a2.06,2.06,0,0,0-1.07.28,2.17,2.17,0,0,0-.79.8,2.25,2.25,0,0,0-.28,1.1,2.18,2.18,0,0,0,.29,1.1,2.05,2.05,0,0,0,.79.81,2,2,0,0,0,1,.29,2.22,2.22,0,0,0,1.09-.29,2.06,2.06,0,0,0,.78-.77,2.22,2.22,0,0,0,.28-1.12,2.16,2.16,0,0,0-.62-1.58A2.05,2.05,0,0,0,56.24,58Z"/>
      <path class="cls-1" d="M48.38,58a2.11,2.11,0,0,0-1.07.28,2.14,2.14,0,0,0-.78.8,2.26,2.26,0,0,0-.29,1.1,2.29,2.29,0,0,0,.29,1.1,2.12,2.12,0,0,0,.79.81,2.06,2.06,0,0,0,1.06.29,2.25,2.25,0,0,0,1.09-.29,2,2,0,0,0,.77-.77,2.19,2.19,0,0,0,.28-1.12,2.16,2.16,0,0,0-.62-1.58A2,2,0,0,0,48.38,58Z"/>
      <path class="cls-1" d="M70,0H6.06A6.06,6.06,0,0,0,0,6.06V89.11a6.05,6.05,0,0,0,6.06,6H70a6.05,6.05,0,0,0,6-6v-83A6.05,6.05,0,0,0,70,0ZM20.21,17.81a13.91,13.91,0,0,1,12.64,8.1L30.48,28.4a10.79,10.79,0,1,0-.27,7.34h10a2.21,2.21,0,1,0,0-4.41H35.39l2.76-2.76h2a5,5,0,0,1,3.43,8.55,5,5,0,0,1,1.53,3.59,4.89,4.89,0,0,1-4.93,4.9H31.78v-6.2a13.9,13.9,0,1,1-11.57-21.6Zm20,2.39V24l0,0L28.82,35.83H25.3ZM18.14,54.5v9H16.8v-9Zm-5.36,19a3,3,0,0,1-2.13.75H8.11v-8.8H10a4.11,4.11,0,0,1,1.62.26,2.11,2.11,0,0,1,.95.82,2.16,2.16,0,0,1,.36,1.22,2.16,2.16,0,0,1-.76,1.67,2.38,2.38,0,0,1,1.2,1.17,2.38,2.38,0,0,1,.22,1A2.49,2.49,0,0,1,12.78,73.49Zm-.71-9.78a4.55,4.55,0,0,1-3.62-1.53,4.69,4.69,0,0,1-1.12-3.13,4.37,4.37,0,0,1,1.35-3.24,4.69,4.69,0,0,1,3.38-1.31,5,5,0,0,1,2.21.48,4.48,4.48,0,0,1,1.62,1.37l.16.22L15,57.4l-.16-.22a3.23,3.23,0,0,0-1.2-1,3.51,3.51,0,0,0-1.53-.34,3.41,3.41,0,0,0-1.69.44,3.07,3.07,0,0,0-1.2,1.17,3.28,3.28,0,0,0-.43,1.66,3.08,3.08,0,0,0,.95,2.32,3.29,3.29,0,0,0,2.42.93,3.38,3.38,0,0,0,2.69-1.26l.16-.2,1.09.82-.17.22a4.43,4.43,0,0,1-1.64,1.3A5.15,5.15,0,0,1,12.07,63.71Zm9.11,10.53H19.86V73.6a3.56,3.56,0,0,1-.72.47,3.37,3.37,0,0,1-3.87-.69,3.43,3.43,0,0,1-1-2.48,3.45,3.45,0,0,1,3.43-3.47,3.06,3.06,0,0,1,1.48.36,3.63,3.63,0,0,1,.67.46v-.66h1.32Zm-1.26-8.5,1.3-3-2.63-5.92H20l1.91,4.28,1.86-4.28h1.44l-3.88,8.89Zm8.35,8.5H26.94V71.06a5.9,5.9,0,0,0-.09-1.34,1.17,1.17,0,0,0-1.26-1,1.6,1.6,0,0,0-1.1.41,1.91,1.91,0,0,0-.66,1,8.79,8.79,0,0,0-.1,1.59v2.51H22.39V67.59h1.34v.65a3,3,0,0,1,2-.81,2.55,2.55,0,0,1,1.37.39A2.33,2.33,0,0,1,28,68.88a5.09,5.09,0,0,1,.28,2ZM26.1,62.64a3.55,3.55,0,0,1,0-4.93,3.29,3.29,0,0,1,2.43-1,3.06,3.06,0,0,1,1.48.36,3,3,0,0,1,.67.47v-3H32v9H30.69v-.64a3.24,3.24,0,0,1-.71.47,3.39,3.39,0,0,1-3.88-.69Zm7.32,11.6-2.68-2.4v2.4H29.39v-9h1.35v4.47l2.43-2.12h2l-3.66,3.19,3.84,3.46Zm6.37-13.72H34.33a2.11,2.11,0,0,0,.58,1.28,1.9,1.9,0,0,0,1.42.59,2.24,2.24,0,0,0,.81-.15,1.94,1.94,0,0,0,.66-.38,3,3,0,0,0,.61-.8l.14-.22,1.13.6-.12.24a4.19,4.19,0,0,1-.81,1.11,3.36,3.36,0,0,1-1,.65,3.62,3.62,0,0,1-1.3.22,3.21,3.21,0,0,1-2.55-1.07A3.6,3.6,0,0,1,33,60.2,3.53,3.53,0,0,1,33.72,58a3.2,3.2,0,0,1,2.63-1.26A3.32,3.32,0,0,1,39.06,58a3.57,3.57,0,0,1,.73,2.25Zm2-1.58a3,3,0,0,0,.86.57,3.74,3.74,0,0,1,1.28,1,1.88,1.88,0,0,1,.37,1.12,2,2,0,0,1-.61,1.47,2.1,2.1,0,0,1-1.52.6,2.49,2.49,0,0,1-1.13-.26,2.45,2.45,0,0,1-.88-.71l-.14-.18.85-1,.21.24a1.45,1.45,0,0,0,1.06.58.85.85,0,0,0,.62-.23.67.67,0,0,0,.24-.51.63.63,0,0,0-.16-.42,3.12,3.12,0,0,0-.9-.58,3.46,3.46,0,0,1-1.22-.92,1.91,1.91,0,0,1-.35-1.12A1.83,1.83,0,0,1,41,57.23a1.92,1.92,0,0,1,1.39-.54,2.75,2.75,0,0,1,1.88.91l.21.19-.9.91-.19-.19a1.6,1.6,0,0,0-1-.53.67.67,0,0,0-.47.18.52.52,0,0,0-.17.39A.58.58,0,0,0,41.82,58.94Zm10,4.56H50.47v-.64a3.26,3.26,0,0,1-2.17.8,3.28,3.28,0,0,1-2.42-1,3.48,3.48,0,0,1-1-2.48,3.38,3.38,0,0,1,1-2.45,3.26,3.26,0,0,1,2.42-1,3.1,3.1,0,0,1,1.49.36,3,3,0,0,1,.66.47v-3H51.8Zm7.86,0H58.33v-.64a3.24,3.24,0,0,1-.71.47,3.29,3.29,0,0,1-1.46.33,3.25,3.25,0,0,1-2.42-1,3.43,3.43,0,0,1-1-2.48,3.37,3.37,0,0,1,1-2.45,3.29,3.29,0,0,1,2.43-1,3.06,3.06,0,0,1,1.48.36,3,3,0,0,1,.67.47v-.67h1.33Zm2.43,0H60.75v-9h1.34Zm2.75-1.7a1.9,1.9,0,0,0,1.42.59,2.22,2.22,0,0,0,.8-.15,1.89,1.89,0,0,0,.67-.38,3.27,3.27,0,0,0,.61-.8l.13-.22,1.14.6-.13.24a4,4,0,0,1-.81,1.11,3.31,3.31,0,0,1-1,.65,3.64,3.64,0,0,1-1.31.22,3.19,3.19,0,0,1-2.54-1.07,3.61,3.61,0,0,1-.91-2.39A3.54,3.54,0,0,1,63.65,58a3.2,3.2,0,0,1,2.63-1.26A3.29,3.29,0,0,1,69,58a3.58,3.58,0,0,1,.74,2.25v.29H64.25A2.12,2.12,0,0,0,64.84,61.8Z"/>
      <path class="cls-1" d="M42.38,40.71a2.22,2.22,0,0,0-2.21-2.21l-5.74.06v4.35h5.74A2.22,2.22,0,0,0,42.38,40.71Z"/>
      <path class="cls-1" d="M10.83,68.75a1,1,0,0,0,.5-.4,1,1,0,0,0,.19-.61.83.83,0,0,0-.29-.67,1.71,1.71,0,0,0-1.08-.27H9.47v2.09h.19A3.6,3.6,0,0,0,10.83,68.75Z"/>
      <path class="cls-1" d="M11.06,70.37a6.52,6.52,0,0,0-1.4-.09H9.47v2.6h.74a3.5,3.5,0,0,0,1.22-.15,1.28,1.28,0,0,0,.55-.45,1.17,1.17,0,0,0-.08-1.44A1.57,1.57,0,0,0,11.06,70.37Z"/>
      <path class="cls-1" d="M107.8,58a3.2,3.2,0,0,0,2.07-.68,2.74,2.74,0,0,0,.91-2.16,2.92,2.92,0,0,0-.85-2.28,2,2,0,0,0-1.37-.54,2.94,2.94,0,0,0-2,.87v4.7l.6.06C107.35,58,107.58,58,107.8,58Z"/>
      <path class="cls-1" d="M109.5,67.75a2.22,2.22,0,0,0-1.52.58,2.57,2.57,0,0,0-.81,1.4h4.63a1.93,1.93,0,0,0-.71-1.38A2.28,2.28,0,0,0,109.5,67.75Z"/>
      <path class="cls-1" d="M155.77,6.06A6.05,6.05,0,0,0,149.72,0H85.8a6.06,6.06,0,0,0-6.06,6.06V90c0,3.34,2.37,6,9.07,6h1c3.66,0,8-.39,12-.7,0,0,15.54-1.78,15.54,8h.65c0-9.75,15.54-8,15.54-8,4,.31,8.37.71,12,.7h1c6.7,0,9.07-2.71,9.07-6Zm-29.28,30a4.5,4.5,0,0,1,1.21,3.45l0,.44a.27.27,0,0,1-.3.29H121a2.47,2.47,0,0,0,.8,1.48,3,3,0,0,0,2,.68,3.29,3.29,0,0,0,1.93-.6.3.3,0,0,1,.42,0l.95,1a.31.31,0,0,1,.1.23.26.26,0,0,1-.11.2,5.66,5.66,0,0,1-3.42,1.1,4.73,4.73,0,0,1-3.48-1.4,4.79,4.79,0,0,1-1.35-3.5,4.72,4.72,0,0,1,1.33-3.4,4.26,4.26,0,0,1,3.2-1.28A4.2,4.2,0,0,1,126.49,36.06ZM117,34.81a3,3,0,0,1,2.06.66.32.32,0,0,1,.15.2c0,.12-.08.23-.22.4a5,5,0,0,0-.6,1c-.06.17-.16.21-.23.21a.23.23,0,0,1-.17-.07l-.24-.19-.1-.08a2.07,2.07,0,0,0-.64-.23H117a1.57,1.57,0,0,0-1.25.63,3.84,3.84,0,0,0-.68,2.45v4.08a.27.27,0,0,1-.3.3h-1.39a.27.27,0,0,1-.29-.3V35.29a.26.26,0,0,1,.29-.29h1.39a.27.27,0,0,1,.3.29v.46A2.65,2.65,0,0,1,117,34.81Zm-2,16.93a4.82,4.82,0,0,1,6.83,0,4.5,4.5,0,0,1,1.43,3.38,4.6,4.6,0,0,1-1.43,3.38,4.87,4.87,0,0,1-6.83,0,4.63,4.63,0,0,1-1.42-3.38A4.58,4.58,0,0,1,115,51.74Zm5.36-29.29a4.46,4.46,0,0,1,1.21,3.44l0,.44a.27.27,0,0,1-.3.3h-6.42a2.47,2.47,0,0,0,.8,1.48,3,3,0,0,0,2,.68,3.24,3.24,0,0,0,1.94-.61.31.31,0,0,1,.42,0l1,1a.33.33,0,0,1,.11.23.26.26,0,0,1-.12.19,5.6,5.6,0,0,1-3.42,1.11,4.73,4.73,0,0,1-3.48-1.4,4.79,4.79,0,0,1-1.35-3.5,4.71,4.71,0,0,1,1.33-3.4,4.26,4.26,0,0,1,3.2-1.28A4.2,4.2,0,0,1,120.35,22.45ZM94.69,16.78a.36.36,0,0,1,.3-.15h1.45c.16,0,.28.12.37.34l3.28,10.16L103.38,17c.1-.24.23-.35.4-.35h1.14c.16,0,.29.11.39.34l3.29,10.16L111.89,17c.1-.29.25-.35.37-.35h1.44a.34.34,0,0,1,.3.15.39.39,0,0,1,.06.33l-4.41,13.11c-.1.29-.27.35-.39.35h-1.35c-.16,0-.29-.12-.36-.35l-3.22-9.48-3.18,9.48c-.08.23-.21.35-.37.35H99.43c-.12,0-.29-.06-.39-.35l-4.4-13.11A.35.35,0,0,1,94.69,16.78Zm2.2,19.36a4.73,4.73,0,0,1,3.42-1.42,5.36,5.36,0,0,1,2.87.92.33.33,0,0,1,.15.26.2.2,0,0,1-.07.17l-.77,1.11a.29.29,0,0,1-.39.09,3.25,3.25,0,0,0-1.77-.61,2.87,2.87,0,0,0-2.86,2.84,2.89,2.89,0,0,0,.81,2,2.67,2.67,0,0,0,2,.83,3.23,3.23,0,0,0,1.76-.47.41.41,0,0,1,.19-.06.25.25,0,0,1,.23.14l.74,1.08a.31.31,0,0,1,.06.24.27.27,0,0,1-.16.17,4.52,4.52,0,0,1-2.84.82,4.77,4.77,0,0,1-3.46-1.37,4.62,4.62,0,0,1-1.41-3.43A4.57,4.57,0,0,1,96.89,36.14Zm3.75,16.47a1.56,1.56,0,0,0-1.25-.49,3.92,3.92,0,0,0-2.24.79c-.18.1-.32.06-.39-.07l-.72-1c-.05-.06-.13-.21.07-.4a5.71,5.71,0,0,1,3.28-1.1,4,4,0,0,1,2.25.62A3.29,3.29,0,0,1,103,53.86v5.56a.27.27,0,0,1-.29.3h-1.39a.28.28,0,0,1-.32-.3v-.1a3.9,3.9,0,0,1-2.17.58,3.39,3.39,0,0,1-2.26-.81A2.72,2.72,0,0,1,95.64,57c0-1.35.84-2.28,2.52-2.77a17.88,17.88,0,0,1,2.85-.47A1.53,1.53,0,0,0,100.64,52.61ZM104,75.11a.27.27,0,0,1-.3.3h-1.38a.27.27,0,0,1-.3-.3V70.43a3,3,0,0,0-.34-1.75,1.89,1.89,0,0,0-1.57-.73,1.78,1.78,0,0,0-1.19.42,1.7,1.7,0,0,0-.35.36,1.27,1.27,0,0,0-.21.42,3,3,0,0,0-.13.6,7.2,7.2,0,0,0,0,.86v4.5a.27.27,0,0,1-.29.3H96.54a.27.27,0,0,1-.3-.3V63a.27.27,0,0,1,.3-.3h1.39a.27.27,0,0,1,.29.3v3.72a3.6,3.6,0,0,1,4.88.62,4.33,4.33,0,0,1,.93,2.9Zm2.71-36.5a16.6,16.6,0,0,1,2.85-.48A1.5,1.5,0,0,0,108,36.52a4,4,0,0,0-2.24.79c-.19.1-.32.06-.39-.07l-.72-1c-.06-.06-.13-.21.06-.4a5.74,5.74,0,0,1,3.29-1.1,4,4,0,0,1,2.24.62,3.27,3.27,0,0,1,1.37,2.92v5.56a.27.27,0,0,1-.3.3H109.9a.28.28,0,0,1-.32-.3v-.1a3.83,3.83,0,0,1-2.18.58,3.36,3.36,0,0,1-2.25-.81,2.72,2.72,0,0,1-.94-2.12C104.21,40,105.06,39.09,106.74,38.61Zm-1.91,21.06a.27.27,0,0,1-.28-.29V47.5a.27.27,0,0,1,.29-.29h1.39a.27.27,0,0,1,.3.29v3.38a3.61,3.61,0,0,1,2-.56,4.13,4.13,0,0,1,2.6,1,4.67,4.67,0,0,1,1.66,3.85,4.38,4.38,0,0,1-1.5,3.55,5.52,5.52,0,0,1-3.72,1.23q-.7,0-1.41-.06C105.72,59.8,105.26,59.74,104.83,59.67Zm9.07,11.12,0,.45a.27.27,0,0,1-.3.29h-6.42A2.47,2.47,0,0,0,108,73a3,3,0,0,0,2,.68,3.23,3.23,0,0,0,1.93-.61.32.32,0,0,1,.43,0l.94,1a.3.3,0,0,1,.11.23.25.25,0,0,1-.12.19,5.57,5.57,0,0,1-3.41,1.11,4.93,4.93,0,0,1-3.51-8.3,4.27,4.27,0,0,1,3.2-1.28,4.19,4.19,0,0,1,3.15,1.34A4.46,4.46,0,0,1,113.9,70.79ZM120,68.52a.21.21,0,0,1-.16-.07l-.24-.2-.11-.07a1.73,1.73,0,0,0-.63-.23h-.08a1.54,1.54,0,0,0-1.24.63A3.79,3.79,0,0,0,116.9,71v4.08a.27.27,0,0,1-.3.3h-1.39a.27.27,0,0,1-.29-.3V66.49a.27.27,0,0,1,.29-.3h1.39a.27.27,0,0,1,.3.3V67a2.65,2.65,0,0,1,2-.94,3,3,0,0,1,2.06.66.28.28,0,0,1,.14.19c0,.13-.06.23-.21.41a5.39,5.39,0,0,0-.6,1C120.21,68.48,120.12,68.52,120,68.52Zm9.6,2.27,0,.45a.26.26,0,0,1-.29.29h-6.42A2.51,2.51,0,0,0,123.7,73a3,3,0,0,0,2,.68,3.26,3.26,0,0,0,1.94-.61.31.31,0,0,1,.43,0l.93,1a.27.27,0,0,1,.11.23.24.24,0,0,1-.11.19,5.6,5.6,0,0,1-3.42,1.11,4.71,4.71,0,0,1-3.48-1.4,5.1,5.1,0,0,1,0-6.9A4.29,4.29,0,0,1,125.29,66a4.17,4.17,0,0,1,3.14,1.34A4.42,4.42,0,0,1,129.64,70.79Zm2.52-14.85a4.52,4.52,0,0,1-.62,2.49,3.58,3.58,0,0,1-3.27,1.47,3.63,3.63,0,0,1-3.3-1.47,4.52,4.52,0,0,1-.62-2.49V50.8a.27.27,0,0,1,.3-.3H126a.27.27,0,0,1,.29.3v4.72a5,5,0,0,0,.16,1.56c.24.64.82,1,1.75,1a1.68,1.68,0,0,0,1.77-1,4.56,4.56,0,0,0,.17-1.55V50.8a.27.27,0,0,1,.3-.3h1.39a.27.27,0,0,1,.29.3Zm8.61,2.85a3.87,3.87,0,0,1-2.63,1.11c-2,0-3-1.06-3-3.13V52.3h-1.85a.27.27,0,0,1-.3-.3V50.8a.27.27,0,0,1,.3-.3h1.85v-3a.27.27,0,0,1,.29-.29h1.39a.27.27,0,0,1,.3.29v3h2.66a.27.27,0,0,1,.29.3V52a.27.27,0,0,1-.29.3h-2.66v4.35c0,1,.35,1.51,1.07,1.51a2,2,0,0,0,1.34-.66.29.29,0,0,1,.41,0l.87.85A.28.28,0,0,1,140.77,58.79Z"/>
      <path class="cls-1" d="M125.25,67.75a2.23,2.23,0,0,0-1.53.58,2.57,2.57,0,0,0-.81,1.4h4.63a1.9,1.9,0,0,0-.71-1.38A2.26,2.26,0,0,0,125.25,67.75Z"/>
      <path class="cls-1" d="M97.61,57.14a1,1,0,0,0,.41.65,1.6,1.6,0,0,0,.84.29,2.64,2.64,0,0,0,2.14-.69V55.53a10,10,0,0,0-2.56.5C97.82,56.3,97.55,56.66,97.61,57.14Z"/>
      <path class="cls-1" d="M118.75,23.45a2.28,2.28,0,0,0-1.59-.6,2.19,2.19,0,0,0-1.52.58,2.65,2.65,0,0,0-.82,1.4h4.64A2,2,0,0,0,118.75,23.45Z"/>
      <path class="cls-1" d="M106.59,42.19a1.63,1.63,0,0,0,.85.29,2.66,2.66,0,0,0,2.14-.69V39.93a10,10,0,0,0-2.56.5c-.62.27-.89.63-.83,1.11A1,1,0,0,0,106.59,42.19Z"/>
      <path class="cls-1" d="M118.41,58a2.75,2.75,0,0,0,2-.86,2.95,2.95,0,0,0,0-4.12,2.77,2.77,0,0,0-4,0,2.83,2.83,0,0,0-.84,2.07,2.79,2.79,0,0,0,.84,2.06A2.76,2.76,0,0,0,118.41,58Z"/>
      <path class="cls-1" d="M124.89,37.06a2.28,2.28,0,0,0-1.59-.6,2.24,2.24,0,0,0-1.52.58,2.59,2.59,0,0,0-.82,1.4h4.63A1.92,1.92,0,0,0,124.89,37.06Z"/>
    </g>
  </g>
</svg>