<svg xmlns="http://www.w3.org/2000/svg" viewBox="0 0 380.53 74.73">
  <defs>
    <style>.cls-1,.cls-2{fill:#fff;}.cls-2{opacity:0.75;}</style>
  </defs>
  <title>kentreliance</title>
  <g id="Layer_2" data-name="Layer 2">
    <g id="Layer_1-2" data-name="Layer 1">
      <g id="layer1">
        <g id="g14488">
          <path id="path13224" class="cls-1" d="M160.15,46.89,152.5,33.37H148V46.89H137.26V3.74h17.48c11.42,0,16.49,6.21,16.49,14.78,0,6.07-2.57,11-8,13.33V32l9.64,14.91Zm-5.27-23.42c4.29,0,5.54-2.11,5.54-4.95s-1.25-4.88-5.54-4.88H148v9.83Z"/>
          <path id="path13226" class="cls-1" d="M210.08.05H220V46.89h-9.9Z"/>
          <path id="path13238" class="cls-1" d="M230.2,10a4.94,4.94,0,0,0,5-5,5,5,0,1,0-10,0,4.93,4.93,0,0,0,5,5"/>
          <path id="path13240" class="cls-1" d="M225.25,46.89h9.9V14.3h-9.9Z"/>
          <path id="path13252" class="cls-1" d="M297.28,46.89V30c0-5.14-2.5-7.32-6.2-7.32s-6.2,2.18-6.2,7.32V46.89H275V30c0-10.95,6.46-16.56,16.09-16.56S307.18,19,307.18,30V46.89Z"/>
          <path id="path13256" class="cls-1" d="M333.56,27.1a7.25,7.25,0,0,0-7-4.42c-4.49,0-7.52,3.23-7.52,7.91s3,7.92,7.52,7.92a7.25,7.25,0,0,0,7-4.42h10c-1.39,8-8,13.65-17,13.65-10.29,0-17.54-7.25-17.54-17.15s7.25-17.14,17.54-17.14c9,0,15.63,5.6,17,13.65Z"/>
          <path id="path13260" class="cls-1" d="M255.32,13.45c-10.29,0-17.55,7.25-17.55,17.14S245,47.74,255.32,47.74a18.35,18.35,0,0,0,10.07-2.81v2h7.48V30.59c0-9.89-7.26-17.14-17.55-17.14m0,25.06c-4.49,0-7.52-3.23-7.52-7.92s3-7.91,7.52-7.91,7.52,3.23,7.52,7.91-3,7.92-7.52,7.92"/>
          <path id="path13268" class="cls-1" d="M363.18,13.45c-10.29,0-17.55,7.25-17.55,17.14s7.26,17.15,17.55,17.15c8.11,0,14.31-4.48,16.43-11.21H369.38c-1.25,1.78-3.36,2.38-6.2,2.38-3.48,0-6.06-1.66-7.07-4.82h24.42v-3.5c0-9.89-7.06-17.14-17.35-17.14M356.12,27c1.06-3.09,3.63-4.68,7.06-4.68s6.07,1.59,7.19,4.68v.14H356.12Z"/>
          <path id="path13272" class="cls-1" d="M207.18,33.37h0V30.59c0-9.89-7.05-17.14-17.34-17.14s-17.55,7.25-17.55,17.14,7.25,17.15,17.55,17.15c8.11,0,14.31-4.48,16.42-11.21H196c-1.26,1.78-3.37,2.38-6.2,2.38-3.48,0-6.06-1.66-7.07-4.82h24.41ZM182.77,27c1.06-3.1,3.63-4.69,7.07-4.69S195.9,23.87,197,27v.13H182.77Z"/>
        </g>
        <g id="g14494">
          <path id="path13208" class="cls-2" d="M0,45.81V2.66H10.69V20.08h.13L23.22,2.66H36.41L20.12,23.78l17,22H23.55L10.82,27.87h-.13V45.81Z"/>
          <path id="path13220" class="cls-2" d="M92.78,46.89V30c0-5.14-2.5-7.32-6.2-7.32s-6.2,2.18-6.2,7.32V46.89H70.49V30c0-10.95,6.46-16.56,16.09-16.56S102.68,19,102.68,30V46.89Z"/>
          <path id="path13264" class="cls-2" d="M124.74,33v1c0,3.42-1.59,4.48-3.77,4.48s-3.75-1.06-3.75-4.48V23.21h12.46V14.3H117.22V3.81h-9.9V14.3h-2.64v8.91h2.64V34c0,9.3,5.54,13.71,13.65,13.71S134.63,43.33,134.63,34V33Z"/>
          <path id="path13276" class="cls-2" d="M68.64,33.37h0V30.59c0-9.89-7-17.14-17.34-17.14S33.75,20.7,33.75,30.59,41,47.74,51.3,47.74c8.11,0,14.31-4.48,16.42-11.21H57.49c-1.25,1.78-3.36,2.38-6.19,2.38-3.48,0-6.06-1.66-7.07-4.82H68.64ZM44.24,27c1-3.1,3.62-4.69,7.06-4.69s6.07,1.59,7.19,4.69v.13H44.24Z"/>
        </g>
      </g>
      <path class="cls-1" d="M127.09,74.35h-1.74v-.59q0-3.33,0-6.66a8.17,8.17,0,0,0-.12-1.49,3.3,3.3,0,0,0-3.6-2.83,3.37,3.37,0,0,0-3.38,3,13.9,13.9,0,0,0-.11,1.71c0,2.27,0,4.54,0,6.84h-1.74v-.58c0-2.22,0-4.44,0-6.66a6.65,6.65,0,0,0-.17-1.6,3.4,3.4,0,0,0-3.87-2.7,3.3,3.3,0,0,0-3.12,3.3c-.09,2.32,0,4.65-.07,7v1.26h-1.73c0-.15,0-.3,0-.46,0-2.32,0-4.65,0-7a8.66,8.66,0,0,1,.45-2.68,4.89,4.89,0,0,1,5.62-3A4.76,4.76,0,0,1,117.22,64c.1-.15.18-.25.24-.36a5,5,0,0,1,5.44-2.37,4.65,4.65,0,0,1,4,3.86A9.7,9.7,0,0,1,127.1,67c0,2.33,0,4.66,0,7C127.11,74.05,127.1,74.18,127.09,74.35Z"/>
      <path class="cls-1" d="M156.57,64V55.91h1.71a1.7,1.7,0,0,1,0,.28c0,4.08,0,8.16,0,12.24a6.4,6.4,0,0,1-6.37,6.26,7,7,0,0,1-5.75-2.21,7.19,7.19,0,0,1-.44-8.63,6.84,6.84,0,0,1,8.18-2.15A6.34,6.34,0,0,1,156.57,64Zm0,4a5.16,5.16,0,1,0-5.22,5.11A4.94,4.94,0,0,0,156.57,68Z"/>
      <path class="cls-1" d="M131.05,68.52a4.64,4.64,0,0,0,3.68,4.39c1.93.43,3.84.24,5.17-1.35.76-.91,1.53-.8,2.52-.77a5.22,5.22,0,0,1-.24.56,6.32,6.32,0,0,1-4.94,3.27,6.8,6.8,0,0,1-6.2-2,6.63,6.63,0,0,1-1.33-7.37,6.21,6.21,0,0,1,5.83-4.1c4.32-.29,7.4,2.51,7.48,6.7,0,.48-.09.65-.61.65-3.58,0-7.15,0-10.73,0Zm10.08-1.6a4.87,4.87,0,0,0-5.52-4.13c-2.42.2-4.59,2.2-4.47,4.13Z"/>
      <path class="cls-1" d="M92.82,68.53H80.91a4.64,4.64,0,0,0,3.68,4.38c1.93.43,3.84.24,5.17-1.35.76-.92,1.53-.79,2.43-.77C92,73,88.24,75,85.12,74.67a6.57,6.57,0,0,1-6-7.36,6.7,6.7,0,0,1,7.77-6.12A6.57,6.57,0,0,1,92.82,68.53ZM81,66.91H91c-.22-2.51-2.52-4.26-5.38-4.13C83.16,62.9,81,64.84,81,66.91Z"/>
      <path class="cls-1" d="M201.14,68.52a4.82,4.82,0,0,0,4.74,4.55A5,5,0,0,0,210.54,71a.41.41,0,0,1,.29-.2c.55,0,1.09,0,1.74,0a6.07,6.07,0,0,1-1.88,2.48c-3.12,2.49-9.19,2-10.93-2.78s1.44-9.9,7.4-9.25a6.47,6.47,0,0,1,6,6.74c0,.45-.13.57-.57.57H201.14Zm.1-1.61h10c-.19-2.5-2.52-4.27-5.39-4.13C203.41,62.9,201.22,64.86,201.24,66.91Z"/>
      <path class="cls-1" d="M179.43,74.33h-1.6V71.42c-.1.12-.15.15-.17.19a5.58,5.58,0,0,1-4.34,3,6.69,6.69,0,0,1-6.79-3.11c-2.16-3.72-.61-10,5.63-10.35a6.5,6.5,0,0,1,6.44,3.32,5.92,5.92,0,0,1,.83,3c0,2.18,0,4.36,0,6.54C179.46,74.1,179.44,74.21,179.43,74.33Zm-12-6.41a5.15,5.15,0,1,0,5.18-5.14A4.93,4.93,0,0,0,167.41,67.92Z"/>
      <path class="cls-1" d="M19.18,74.7c-4.41,0-7.24-2.28-7.69-5.51-.7-5,3-8.68,8-7.94a6.2,6.2,0,0,1,5.35,4.29,6.72,6.72,0,0,1-1.4,7.1A6.29,6.29,0,0,1,19.18,74.7Zm-6-6.78a4.92,4.92,0,0,0,5.12,5.16,5.15,5.15,0,1,0,0-10.3A4.94,4.94,0,0,0,13.17,67.92Z"/>
      <path class="cls-1" d="M10.77,61H9.13c-.07-.44-.11-.87-.2-1.29a2.93,2.93,0,0,0-2.56-2.46,6.42,6.42,0,0,0-2.23.06A2.84,2.84,0,0,0,1.87,59.9c-.15,1.09-.12,2.2-.17,3.37H9.26V64.9H1.76v9.42H0v-.55q0-6.28,0-12.56a9.5,9.5,0,0,1,.14-1.76,4.66,4.66,0,0,1,4.57-3.87,9.86,9.86,0,0,1,2.49.2C9.51,56.31,10.87,58.37,10.77,61Z"/>
      <path class="cls-1" d="M214.67,70.74c.56,0,1,0,1.52,0a.35.35,0,0,1,.27.18A2.65,2.65,0,0,0,219,73a5.14,5.14,0,0,0,2.95-.28,2.26,2.26,0,0,0,1.41-1.52,1.5,1.5,0,0,0-1-2,26.69,26.69,0,0,0-2.83-.55c-.62-.12-1.24-.2-1.84-.35A3,3,0,0,1,215.08,66a3.67,3.67,0,0,1,1.27-3.77,6.26,6.26,0,0,1,7.18,0,3.53,3.53,0,0,1,1.3,2.69h-1.67a2.73,2.73,0,0,0-2.85-2.19,7.43,7.43,0,0,0-2.2.34,2.3,2.3,0,0,0-1.05.86,1.64,1.64,0,0,0,.89,2.62c1.14.31,2.32.43,3.47.65a11.78,11.78,0,0,1,1.21.25,3.07,3.07,0,0,1,2.46,2.21A3.59,3.59,0,0,1,224,73.34a5,5,0,0,1-2.89,1.28,7.11,7.11,0,0,1-4.24-.58A3.83,3.83,0,0,1,214.67,70.74Z"/>
      <path class="cls-1" d="M67.34,57h1.74v4.51h7.57v1.6H69.18a1.37,1.37,0,0,0-.07.24c0,2.26,0,4.51,0,6.76a2.9,2.9,0,0,0,3.1,3c2,0,3.22-1,3.43-2.89.1-.85.1-.85.95-.85h.72c.24,3.17-1.56,5.13-4.28,5.33a7.65,7.65,0,0,1-2.24-.16c-2.26-.52-3.47-2.24-3.49-4.87,0-4.08,0-8.16,0-12.24Z"/>
      <path class="cls-1" d="M64.72,74.34H63v-.6c0-1.93,0-3.87,0-5.8a8.46,8.46,0,0,0,0-1,4.64,4.64,0,0,0-7.22-3.47,4.12,4.12,0,0,0-1.87,3.11,11.42,11.42,0,0,0-.09,1.55c0,2,0,4.11,0,6.2H52.1c0-.14,0-.29,0-.45V67.54a7.25,7.25,0,0,1,.74-3.37,5.58,5.58,0,0,1,4.84-3,7,7,0,0,1,4.54,1,5.59,5.59,0,0,1,2.54,4.78c.09,2.41,0,4.83,0,7.24A1,1,0,0,1,64.72,74.34Z"/>
      <path class="cls-1" d="M38.14,66.81H36.43c0-.21,0-.42,0-.62-.24-2.93-2.28-3.62-4.32-3.37a3.1,3.1,0,0,0-3,3.23c-.08,2.54,0,5.08-.06,7.62v.66H27.32c0-.15,0-.31,0-.46,0-2.38,0-4.76,0-7.14a9,9,0,0,1,.21-1.86,4.46,4.46,0,0,1,3.25-3.45,7,7,0,0,1,3.56-.09A4.6,4.6,0,0,1,38,65.41C38.08,65.86,38.1,66.32,38.14,66.81Z"/>
      <path class="cls-1" d="M105.62,66.81c-.12,0-.24,0-.36,0H104c0-.2,0-.35,0-.51a3.47,3.47,0,0,0-4.28-3.53,3.17,3.17,0,0,0-3,3.27c-.07,2.54,0,5.08,0,7.62v.65H94.89c0-.17,0-.34,0-.5,0-2.35,0-4.69,0-7a8.27,8.27,0,0,1,.43-2.62,4.6,4.6,0,0,1,4.37-3,7,7,0,0,1,1,0c3.51.18,5,2.53,5,5.47A.77.77,0,0,1,105.62,66.81Z"/>
      <path class="cls-1" d="M192.75,66.83h-1.64c0-.41-.05-.82-.12-1.22a3.45,3.45,0,0,0-4.29-2.79,3.14,3.14,0,0,0-2.9,2.95,9.34,9.34,0,0,0-.07,1.18v7.38h-1.68s-.05-.07-.05-.1c0-2.72-.06-5.44,0-8.16a4.81,4.81,0,0,1,4.88-4.9,8.37,8.37,0,0,1,1.12,0C191.67,61.45,192.92,64.21,192.75,66.83Z"/>
      <path class="cls-1" d="M47.28,61.52h1.66v12.8H47.28Z"/>
      <path class="cls-1" d="M196.71,74.34H195c0-.19,0-.37,0-.54,0-3.9,0-7.8,0-11.7,0-.49.13-.67.63-.62a9.81,9.81,0,0,0,1.09,0Z"/>
      <path class="cls-1" d="M163.09,74.34h-1.72c0-.19,0-.37,0-.54,0-3.9,0-7.8,0-11.7,0-.49.13-.64.63-.62,1.13,0,1.13,0,1.13,1.13V74.34Z"/>
      <path class="cls-1" d="M49.41,57.69A1.29,1.29,0,0,1,48.09,59a1.34,1.34,0,1,1,1.32-1.31Z"/>
      <path class="cls-1" d="M162.22,59a1.32,1.32,0,0,1-1.36-1.3,1.35,1.35,0,0,1,1.34-1.37,1.32,1.32,0,0,1,1.32,1.33A1.31,1.31,0,0,1,162.22,59Z"/>
      <path class="cls-1" d="M197.18,57.66A1.29,1.29,0,0,1,195.87,59a1.33,1.33,0,0,1,0-2.66A1.29,1.29,0,0,1,197.18,57.66Z"/>
    </g>
  </g>
</svg>