<svg xmlns="http://www.w3.org/2000/svg" viewBox="0 0 180.34 60.42">
  <defs>
    <style>.cls-1{fill:#fff;}</style>
  </defs>
  <title>precise mortgages</title>
  <g id="Layer_2" data-name="Layer 2">
    <g id="Layer_1-2" data-name="Layer 1">
      <path class="cls-1" d="M180.34,22.36a2.27,2.27,0,0,1-1.67.49h-13c-.41.74-.1,1.3,0,1.87a7.19,7.19,0,0,0,7,5.6,8.65,8.65,0,0,0,4.62-1.46,1.93,1.93,0,0,1,1.75-.38c.42.54,1,1.06.66,2.08a10.45,10.45,0,0,1-5.5,2.41,17.41,17.41,0,0,1-3.31,0,8.56,8.56,0,0,1-4.32-1.62,9.43,9.43,0,0,1-4.28-7.9,12.86,12.86,0,0,1,.52-4.73,9.31,9.31,0,0,1,7.41-6.41,8.69,8.69,0,0,1,6.84,1.36,7.12,7.12,0,0,1,2.78,3.93A35.3,35.3,0,0,1,180.34,22.36Zm-3.26-2.25a5,5,0,0,0-2.19-4.56,5.82,5.82,0,0,0-6.72.43,6.25,6.25,0,0,0-2.5,4.13Z"/>
      <path class="cls-1" d="M25,0l.73.65c-.17,2.09-.71,4.19-1.11,6.44l-1.38.1A5.32,5.32,0,0,1,23.14,6c.23-1.53.47-3,.77-4.57A6.49,6.49,0,0,1,24.56,0Z"/>
      <path class="cls-1" d="M18.07,0A7.32,7.32,0,0,1,19,2.92c.19.8.26,1.64.42,2.45a2.63,2.63,0,0,1-.15,1.75L18,7.18,16.8.52,17.59,0Z"/>
      <path class="cls-1" d="M22.16,0V6.83l-1.53.09a16,16,0,0,1-.15-3.56c0-1.12,0-2.24,0-3.36Z"/>
      <path class="cls-1" d="M66.94,5.45a1.18,1.18,0,0,1,1.21-.65c3.24,0,6.49-.14,9.73,0a7.44,7.44,0,0,1,6.55,4.54c1.24,2.61,1.1,7.3-1.39,9.9a7.51,7.51,0,0,1-3.67,2.16,12.76,12.76,0,0,1-3.43.44c-1.52,0-3,0-4.56,0H70.07c0,.53-.07.95-.07,1.38,0,2.44,0,4.88,0,7.32,0,.29,0,.57,0,.85a1.23,1.23,0,0,1-1.31,1.26c-.67.06-.88,0-1.74-.56ZM70.06,19c2.07,0,4,0,5.89,0a7.85,7.85,0,0,0,2.81-.5A4.35,4.35,0,0,0,81,16.79a6.39,6.39,0,0,0,.81-5.15A4.86,4.86,0,0,0,77.2,7.7c-2.08,0-4.16,0-6.24,0a6.94,6.94,0,0,0-.9.12Z"/>
      <path class="cls-1" d="M101.85,22.9a7.26,7.26,0,0,0,4.55,6.92,7.94,7.94,0,0,0,7.2-.95,1.9,1.9,0,0,1,1.67-.43c.81.73.82.76.85,1.92-.66,1-1.83,1.38-2.89,1.9a9.38,9.38,0,0,1-4.08.83A10,10,0,0,1,98.6,23.18a11.91,11.91,0,0,1,.87-5.27,9.53,9.53,0,0,1,7.07-5.66,8.83,8.83,0,0,1,6.55,1.16,6.54,6.54,0,0,1,2,1.86,10.74,10.74,0,0,1,1.78,5.64c.1,1.56-.29,1.93-1.84,1.93-4,0-7.93,0-11.9,0Zm11.84-2.79c-.44-3.9-2.88-5.53-5.49-5.39a6,6,0,0,0-6.06,5.39Z"/>
      <path class="cls-1" d="M135.73,27.83A2.12,2.12,0,0,1,137,30.19a8.15,8.15,0,0,1-3.59,2.23,11.67,11.67,0,0,1-5,.58,10.58,10.58,0,0,1-4.21-1.23,9.16,9.16,0,0,1-4.72-5.89,11.51,11.51,0,0,1,.16-7.06,9.61,9.61,0,0,1,6.25-6.15,10.67,10.67,0,0,1,9.72,1.25,4.63,4.63,0,0,1,.65.52,5.25,5.25,0,0,1,.44.6l-.75,1.71-1.23.09A10.71,10.71,0,0,0,131,15.07a7.24,7.24,0,0,0-8.18,4.12,8.67,8.67,0,0,0-.41,5.74,7.29,7.29,0,0,0,6.86,5.36,8,8,0,0,0,5-1.48C134.74,28.47,135.24,28.16,135.73,27.83Z"/>
      <path class="cls-1" d="M159.31,13.92c.14,1.42-.13,1.92-1.29,2.43-.55-.27-1.15-.58-1.76-.86a6.51,6.51,0,0,0-4.79-.3,2.67,2.67,0,0,0-1.6,1.36,2.33,2.33,0,0,0,.8,3.07,29.72,29.72,0,0,0,3.1,1.53c.91.42,1.83.81,2.75,1.19a6.74,6.74,0,0,1,2.3,1.68,4.55,4.55,0,0,1,1.17,4.2A5.8,5.8,0,0,1,154.45,33c-.43,0-.86.13-1.28.19a8.44,8.44,0,0,0-1.31-.19,9.81,9.81,0,0,1-5.29-2c-.29-.19-.44-.62-.71-1l1-1.36a1.5,1.5,0,0,1,1.52.12,8.54,8.54,0,0,0,3.47,1.53,6,6,0,0,0,3.42-.23c2.11-.94,2.45-3.18.63-4.59a5,5,0,0,0-.92-.56c-.95-.41-1.93-.76-2.87-1.2a30.62,30.62,0,0,1-3.52-1.79,5,5,0,0,1-1.92-5.05c.5-2.59,2.22-3.86,4.59-4.46A9.82,9.82,0,0,1,159.31,13.92Z"/>
      <path class="cls-1" d="M68.14,55.5l-1,0a2.91,2.91,0,0,1-.23-2c.11-1.23.33-2.44.42-3.67.13-1.59.15-3.19.27-4.78.1-1.34.31-2.68.43-4a15.29,15.29,0,0,0,0-1.65,1.21,1.21,0,0,1,1.77-.73l5.24,11.29c2-3.88,3.44-7.78,5.41-11.36h1.33a3.48,3.48,0,0,1,.21.62c.17,2.18.31,4.37.51,6.55s.48,4.59.68,6.89c.08.87,0,1.75,0,2.76l-1.49.13a41.87,41.87,0,0,1-.66-6.39c-.19-2.1-.38-4.2-.57-6.34-1.72,3.14-3,6.47-4.69,9.57H74.28l-4.68-10c0,.42-.06.66-.08.91-.16,1.9-.33,3.8-.46,5.71-.12,1.59-.2,3.18-.26,4.78A2,2,0,0,1,68.14,55.5Z"/>
      <path class="cls-1" d="M91.15,15.61a7.36,7.36,0,0,1,5.32-3.1c.66,0,1.4-.2,1.85.7v1.47c-.34.78-1.08.88-1.79.93A4.49,4.49,0,0,0,93,17.73a10.27,10.27,0,0,0-1.81,5.86c0,2.71,0,5.43,0,8.2l-.77.82A2,2,0,0,1,88,31.74V14.08c0-1.22.51-1.64,1.73-1.58,1,.05,1.35.44,1.4,1.43C91.17,14.4,91.15,14.88,91.15,15.61Z"/>
      <path class="cls-1" d="M113.69,59.06l.59-1.15a8.82,8.82,0,0,0,3.74.76,3.23,3.23,0,0,0,3.28-4.18A6.37,6.37,0,0,1,118,55.55a5.18,5.18,0,0,1-5.14-3.75,7.75,7.75,0,0,1,.5-6.38,5,5,0,0,1,3.28-2.4,5.47,5.47,0,0,1,4,.6c.17.09.36.16.5.23l1-.76a1.14,1.14,0,0,1,1.11,1.25c0,.56,0,1.12,0,1.68,0,2.65,0,5.29,0,7.94a14.33,14.33,0,0,1-.25,2.61,4.79,4.79,0,0,1-4.52,3.77c-.81,0-1.61,0-2.41,0A2.93,2.93,0,0,1,113.69,59.06Zm7.82-9.84h-.07a8,8,0,0,0,0-1.2c-.37-2.14-1.1-3.17-3.22-3.36a3.28,3.28,0,0,0-3.43,1.88,6.55,6.55,0,0,0-.15,4.79,3.47,3.47,0,0,0,3.63,2.53,3.12,3.12,0,0,0,3-2.74C121.4,50.49,121.43,49.85,121.51,49.22Z"/>
      <path class="cls-1" d="M144.89,54.48l-.84.45a5.26,5.26,0,0,1-7.3-2.42,8.45,8.45,0,0,1,.26-7.25,5.41,5.41,0,0,1,6.85-1.84c.28.15.57.28.89.43l.94-.72.88.26a2.23,2.23,0,0,1,.1.39c0,4.13.06,8.25,0,12.37a4.62,4.62,0,0,1-3.88,4.15,10.2,10.2,0,0,1-5.27-.65c-.28-.95-.28-.95.46-1.66a8.66,8.66,0,0,0,3.44.68C144,58.61,145.25,57.1,144.89,54.48Zm.2-5.1c-.12-.8-.19-1.59-.36-2.37a2.73,2.73,0,0,0-2.33-2.27A3.48,3.48,0,0,0,138.64,46a6,6,0,0,0,.42,6.84,3.34,3.34,0,0,0,3.42.94,2.92,2.92,0,0,0,2.28-2.36C144.9,50.73,145,50.06,145.09,49.38Z"/>
      <path class="cls-1" d="M158.37,49.55H150a3.51,3.51,0,0,0,1.4,3.6,4.74,4.74,0,0,0,6-.24c1.09.2,1.13.24,1.13,1.28-2.26,2.27-6.37,2.05-8.57.19a6.13,6.13,0,0,1-1.95-3.48,7,7,0,0,1,.32-4.22A5.47,5.47,0,0,1,152.9,43a6,6,0,0,1,2,0,4.72,4.72,0,0,1,3.85,3.49,12.93,12.93,0,0,1,.41,1.74C159.26,48.71,159.1,49.14,158.37,49.55Zm-1.23-1.89a3.18,3.18,0,0,0-3-3.16c-1.75-.24-3.58,1.22-4.15,3.23A39.69,39.69,0,0,0,157.14,47.66Z"/>
      <path class="cls-1" d="M132.92,55.37l-.27-.82c-.07,0-.17,0-.21,0a5.26,5.26,0,0,1-4,1.23c-2.5-.14-4.66-3-3.19-5.47.14-.24.25-.5.36-.71a6.94,6.94,0,0,1,4.62-1.8,16.75,16.75,0,0,0,2.33-.33,2.09,2.09,0,0,0-1.71-2.75,5,5,0,0,0-3,.41l-1.18.55-.87-1a1.4,1.4,0,0,1,1-1.11,7.64,7.64,0,0,1,4.87-.57,4.15,4.15,0,0,1,2.79,3.27c.46,2.83.11,5.67.25,8.39A1.21,1.21,0,0,1,132.92,55.37Zm-6.19-4.2c0,.34,0,.66,0,1a1.67,1.67,0,0,0,1.42,1.8,3,3,0,0,0,3.36-.91,4.29,4.29,0,0,0,1.14-3.64c-1,.05-1.81.1-2.64.12A3.93,3.93,0,0,0,126.73,51.17Z"/>
      <path class="cls-1" d="M84.46,49.27c.07-.46.12-.94.21-1.4A5.93,5.93,0,0,1,86,45.12a6.11,6.11,0,0,1,4.47-2.26,6.47,6.47,0,0,1,6.85,6.2c.07,3.42-2.29,6.66-6,6.71a9,9,0,0,1-2.14-.16,6.19,6.19,0,0,1-4.38-4.22A9.77,9.77,0,0,1,84.46,49.27Zm1.88.08c-.3,2.51,2.33,4.89,4.58,4.77a4.79,4.79,0,0,0,4.57-4.71,4.53,4.53,0,0,0-4.56-4.81A4.42,4.42,0,0,0,86.34,49.35Z"/>
      <path class="cls-1" d="M141,32.57a2.06,2.06,0,0,1-.76-1.77c0-5.49,0-11,0-16.46a1.92,1.92,0,0,1,.9-1.79h1.5c.7.25.74.83.74,1.46,0,3,0,6,0,9v9C142.29,32.78,142.27,32.79,141,32.57Z"/>
      <path class="cls-1" d="M160.09,53.57l1-.74c3.32,1.72,4.38,1.74,5.71.16a1.75,1.75,0,0,0-1.08-2.24c-.58-.28-1.18-.49-1.77-.73a6.42,6.42,0,0,1-2.46-1.43,3.22,3.22,0,0,1-.41-4c.15-.24.32-.46.61-.89l2.75-1c1.48.26,2.77.35,3.79,1.31v1.08a1.34,1.34,0,0,1-1.42.09,8.35,8.35,0,0,0-2-.6,2.12,2.12,0,0,0-2.42,1.66A2.4,2.4,0,0,0,163.76,48c1.05.49,2.12.94,3.15,1.47a3.22,3.22,0,0,1,1.55,4.36,3.29,3.29,0,0,1-2.61,1.91,6.19,6.19,0,0,1-4.81-.92L160,54Z"/>
      <path class="cls-1" d="M105.65,43.36l1.35-.2V40.27c1-.43,1-.43,1.73.38v2.57h2.51c.58.8.58.8,0,1.71h-2.4c0,.44-.1.78-.1,1.13,0,1.67,0,3.35,0,5A2.85,2.85,0,0,0,110,53.72l1.8.46.07,1.13-.73.45c-.34-.08-.65-.16-1-.21A3.57,3.57,0,0,1,107,51.9c0-1.84,0-3.68,0-5.52V45.22c-.54-.42-1.42-.13-1.64-1.1Z"/>
      <path class="cls-1" d="M98.84,43.38h1.54l.21,1.29a16.74,16.74,0,0,1,1.8-1.22,2.48,2.48,0,0,1,2.17-.29c.43,1,.43,1-.38,1.75-1.91-.12-2.69,1.22-3.2,2.76a10.57,10.57,0,0,0-.43,2.69c-.07,1.24,0,2.48,0,3.72,0,.39,0,.78-.06,1.31l-1.49.1a49.91,49.91,0,0,1-.13-6.08C98.82,47.46,98.84,45.51,98.84,43.38Z"/>
      <path class="cls-1" d="M38.33,17.6h1.29a4.09,4.09,0,0,1,.31,1c0,1.84,0,3.67,0,5.4-.35.63-.74.89-1.49.6a3.1,3.1,0,0,1-.4-1.08C38.09,21.58,37.77,19.62,38.33,17.6Z"/>
      <path class="cls-1" d="M38.48,53.42h1.13a3.23,3.23,0,0,1,.31,1c0,1.8,0,3.59,0,5.39a2.09,2.09,0,0,1-.19.45l-1.32.14A5.37,5.37,0,0,1,38,59.25,13.51,13.51,0,0,1,38.48,53.42Z"/>
      <path class="cls-1" d="M32.6,59.23c-1,.1-1,.1-1.61-.7l2.14-6h1.23a1.27,1.27,0,0,1,.14,1.42Z"/>
      <path class="cls-1" d="M35.81,53.12l1.29.1c.08.28.21.48.18.65-.35,2-.71,4-1.09,6,0,.16-.25.29-.44.49l-1-.34A23.34,23.34,0,0,1,35.81,53.12Z"/>
      <path class="cls-1" d="M55.78,52.18l-.43.8a1.26,1.26,0,0,1-1.45-.25c-1.31-1.09-2.59-2.23-3.88-3.35a6.2,6.2,0,0,1-.44-.5L50,48a1,1,0,0,1,1.31.16q2.14,1.8,4.28,3.61A1.33,1.33,0,0,1,55.78,52.18Z"/>
      <path class="cls-1" d="M27.84,47.8l.62,1.14L23.8,53c-1,.14-1,.14-1.57-.78a4.39,4.39,0,0,1,.65-.89q1.95-1.65,4-3.23A3.12,3.12,0,0,1,27.84,47.8Z"/>
      <path class="cls-1" d="M24.79,23.19a1.12,1.12,0,0,1,1.42-.77l2,2.29c.41.48.81,1,1.23,1.46a2,2,0,0,1,.62,1.53l-.69.69C28.38,27.87,25.74,24.84,24.79,23.19Z"/>
      <path class="cls-1" d="M26.79,30c-1.45-1.47-3.31-2.52-4.72-4.26l1.15-1.07C24.85,26,26.41,27.25,28,28.55a2.42,2.42,0,0,1,.42.77C28,30,27.55,30.14,26.79,30Z"/>
      <path class="cls-1" d="M51.19,30c-.8.2-1.31.06-1.52-.78a2.18,2.18,0,0,1,.37-.66c1.51-1.27,3.05-2.53,4.68-3.87l1.16,1C54.59,27.48,52.65,28.46,51.19,30Z"/>
      <path class="cls-1" d="M41.72,18.39c.84-.82,1-.82,1.79.09l-1,5.89c-.72.88-.93.88-1.77-.05Z"/>
      <path class="cls-1" d="M34.79,17.85H36c.79,2,.73,4.23,1.3,6.23-.49.86-.49.86-1.45.8a2.58,2.58,0,0,1-.41-.79q-.47-2.58-.84-5.17A4.19,4.19,0,0,1,34.79,17.85Z"/>
      <path class="cls-1" d="M53.11,54.5c-.09,1.09-.22,1.2-1.31,1.17L47.93,51a1,1,0,0,1,.7-1.23c.45-.15.76.11,1,.44Z"/>
      <path class="cls-1" d="M47.08,26.68l-1-.06a.93.93,0,0,1-.15-1.29c.95-1.7,1.92-3.39,2.81-5,.84-.31,1.24,0,1.59.69-.47.88-1,1.83-1.49,2.76S47.71,25.64,47.08,26.68Z"/>
      <path class="cls-1" d="M43.27,25.14c.42-2.23,1.45-4.17,2.06-6.29H46.8a4.8,4.8,0,0,1,0,1.32c-.49,1.47-1,2.92-1.58,4.36a7.84,7.84,0,0,1-.8,1.26Z"/>
      <path class="cls-1" d="M26.61,47.14,21.46,50.2c-1.06-.14-1.1-.18-1.17-1.38a59.74,59.74,0,0,1,5.59-3.17A1.09,1.09,0,0,1,26.61,47.14Z"/>
      <path class="cls-1" d="M28.91,49.74,30,49.9,30.09,51c-1.18,1.44-2.31,2.77-3.4,4.13C26,56,25.62,56,24.79,55a7.64,7.64,0,0,1,1.87-2.63C27.34,51.5,28.1,50.68,28.91,49.74Z"/>
      <path class="cls-1" d="M52.55,34.42V33.1c2-.7,3.93-1.39,5.88-2.06.15-.05.37.09.66.17l.09,1.32c-.33.16-.61.31-.9.42-1.34.5-2.7,1-4,1.49A2.07,2.07,0,0,1,52.55,34.42Z"/>
      <path class="cls-1" d="M47.06,58.64l-1,.88a5,5,0,0,1-.86-1q-.95-2.39-1.78-4.82a3.82,3.82,0,0,1,0-1.14l1.46-.11Z"/>
      <path class="cls-1" d="M31.08,19.08l1.27-.39c1.12,1.7,1.4,3.64,2.17,5.37a4,4,0,0,1,.15,1.08l-1.05.64a4.15,4.15,0,0,1-.71-1c-.64-1.72-1.23-3.45-1.83-5.18A3.22,3.22,0,0,1,31.08,19.08Z"/>
      <path class="cls-1" d="M20.16,29a7,7,0,0,1,.23-.7,4.34,4.34,0,0,1,.33-.46,3.69,3.69,0,0,1,1,.19c1.67.92,3.33,1.88,4.87,2.76.23.8.07,1.28-.64,1.62A55.87,55.87,0,0,1,20.16,29Z"/>
      <path class="cls-1" d="M52.18,32.4c-.82-.46-.82-.46-.89-1.34a28.74,28.74,0,0,1,5-3,3.27,3.27,0,0,1,1.23-.13l.26,1.25Z"/>
      <path class="cls-1" d="M51.39,47.19a1.09,1.09,0,0,1,.68-1.54c2,.8,3.67,2.12,5.47,3.05.36.78.07,1.19-.59,1.56C55,49.51,53.23,48.13,51.39,47.19Z"/>
      <path class="cls-1" d="M60.14,41.9l-.06,1.44A9,9,0,0,1,56.66,43c-1.1-.17-2.18-.4-3.38-.62L53.14,41c.33-.1.64-.3.89-.26C56,41.09,58,41.49,60.14,41.9Z"/>
      <path class="cls-1" d="M37.9,34.1c.25.95-.2,1.23-.92,1.45-1.73-1.26-3.34-2.79-4.95-4.18a1.23,1.23,0,0,1,1.09-1.29Z"/>
      <path class="cls-1" d="M60,34.63v1.51a41.19,41.19,0,0,1-6.71,1.09l-.19-1.55A33.21,33.21,0,0,1,60,34.63Z"/>
      <path class="cls-1" d="M5.67,35.55c-.91-.41-.91-.41-1-1.32A46,46,0,0,1,9.83,30l.93,1.18A66.24,66.24,0,0,1,5.67,35.55Z"/>
      <path class="cls-1" d="M27.82,20.59l1.2-.46c.45.68.9,1.32,1.3,2,.59,1,1.12,2,1.7,3a1.26,1.26,0,0,1,0,1.46l-1.13.12C30,25.11,29.05,23.58,28.2,22A6.7,6.7,0,0,1,27.82,20.59Z"/>
      <path class="cls-1" d="M25.59,35.59c.13-.67.57-.91,1.33-1a51.38,51.38,0,0,1,2.43,6.25c-.91,1-1.51.91-1.93-.23C26.8,39,26.19,37.27,25.59,35.59Z"/>
      <path class="cls-1" d="M43.51,59.58l-.74.71a1.13,1.13,0,0,1-1.12-1c-.31-1.8-.62-3.6-.93-5.43.3-.62.79-.82,1.6-.54C42.88,55.26,43.09,57.39,43.51,59.58Z"/>
      <path class="cls-1" d="M50.29,56.83c-.54.82-.54.82-1.53.81-1.12-1.78-2.17-3.64-3.19-5.59l.83-.86a1.78,1.78,0,0,1,1.25,1C48.53,53.73,49.39,55.25,50.29,56.83Z"/>
      <path class="cls-1" d="M59.1,45.39v1.37a4.3,4.3,0,0,1-1.29,0c-1.76-.59-3.51-1.25-5.29-1.89V43.62a1,1,0,0,1,1.3-.17C55.53,44.09,57.24,44.71,59.1,45.39Z"/>
      <path class="cls-1" d="M.81,14.53l.85-1.29C3.8,14,5.89,14.63,7.77,15.5c.36.81.08,1.22-.64,1.6C5.19,16.18,2.89,15.82.81,14.53Z"/>
      <path class="cls-1" d="M36.72,7.23c.85.13.85.13,1.27.79a18.26,18.26,0,0,1-5.18,4.46c-.53-.18-.84-.53-.75-1.36Z"/>
      <path class="cls-1" d="M13.29,1.55,14.41.86a3.49,3.49,0,0,1,.74.9c.68,1.82,1.3,3.66,1.93,5.44a1,1,0,0,1-1.48.58A39.93,39.93,0,0,1,13.29,1.55Z"/>
      <path class="cls-1" d="M28.25.78l1.09,1c-.65,1.82-1.25,3.52-1.86,5.2-.42,1.17-1,1.27-1.93.29.64-1.84,1.28-3.73,2-5.6C27.61,1.37,27.9,1.18,28.25.78Z"/>
      <path class="cls-1" d="M29.22,9.24l-1.4-.73A60.87,60.87,0,0,1,31,2.74h1.33c0,.37.15.72,0,1C31.49,5.59,30.36,7.35,29.22,9.24Z"/>
      <path class="cls-1" d="M31.24,51.13l1,.49a3.4,3.4,0,0,1-.17,1.05c-.91,1.67-1.87,3.32-2.84,5l-1.05-.07c-.12-.2-.24-.31-.23-.39a4.63,4.63,0,0,1,.28-1.37c.66-1.27,1.38-2.52,2.11-3.75A7.87,7.87,0,0,1,31.24,51.13Z"/>
      <path class="cls-1" d="M47.92,27l3.82-4.58a1.18,1.18,0,0,1,1.49.84,42,42,0,0,1-4.36,5.14A1.16,1.16,0,0,1,47.92,27Z"/>
      <path class="cls-1" d="M33.35,13.59a6.72,6.72,0,0,1,1-.81c1.72-.87,3.22-2.18,5.2-2.77l.61,1a22.3,22.3,0,0,1-6.1,3.6Z"/>
      <path class="cls-1" d="M23.09,35.83c.55-.45,1-.65,1.57-.25.19.86.4,1.75.57,2.64s.34,2,.5,3-.33,1.4-1.51,1.2A52.3,52.3,0,0,1,23.09,35.83Z"/>
      <path class="cls-1" d="M35.36,36.71l0,.93a.89.89,0,0,1-1.44-.07c-.79-.9-1.57-1.8-2.35-2.71-.5-.6-1-1.23-1.43-1.79.41-.8.41-.8,1.29-1.11Z"/>
      <path class="cls-1" d="M11.23,32a1.24,1.24,0,0,1,1.29,1c-1.18,1.7-2.65,3.24-4,4.95l-1.1-.1-.12-1.16Z"/>
      <path class="cls-1" d="M11.53,2.65A65.13,65.13,0,0,1,14.81,8.5l-1.37.73C13,8.58,12.65,8,12.31,7.46c-.57-1-1.15-1.91-1.68-2.89-.27-.5-.71-1-.27-1.8Z"/>
      <path class="cls-1" d="M1.63,29.4.88,28.06A11,11,0,0,1,2,27.44c1.29-.5,2.6-1,3.9-1.46a2.14,2.14,0,0,1,1.83-.11c.34.88.26,1.22-.49,1.5C5.4,28.06,3.57,28.7,1.63,29.4Z"/>
      <path class="cls-1" d="M7.3,5.9c-.11-.78.19-1.16,1-1.36A45.73,45.73,0,0,1,12.56,9.6a1.11,1.11,0,0,1-1.32,1C9.84,9.13,8.6,7.44,7.3,5.9Z"/>
      <path class="cls-1" d="M34.49,4.32l1,1.21a45.68,45.68,0,0,1-4,5c-.79.16-1.14-.17-1.44-.82C31.33,7.84,32.89,6.19,34.49,4.32Z"/>
      <path class="cls-1" d="M9.72,12.6A50.28,50.28,0,0,1,4.6,8.26c.38-.88.38-.88,1.32-1C7,8.13,8.1,9.08,9.23,10c.24.21.49.4.74.6C10.85,11.29,10.84,11.69,9.72,12.6Z"/>
      <path class="cls-1" d="M7.17,17.91v1.42a5.93,5.93,0,0,1-1.42.11c-1.76-.28-3.51-.63-5.22-1-.48-.77-.48-.77.18-1.69Z"/>
      <path class="cls-1" d="M9.23,13.65l-.65,1a22.65,22.65,0,0,1-5.82-3.19v-1a1,1,0,0,1,1.37-.09q2.17,1.24,4.34,2.53A4.63,4.63,0,0,1,9.23,13.65Z"/>
      <path class="cls-1" d="M17.05,35.57c-.62,1.74-1.23,3.51-1.92,5.26a1.35,1.35,0,0,1-.84.71c-.53.14-.77-.29-.93-.87a57.11,57.11,0,0,1,2.32-6A1.12,1.12,0,0,1,17.05,35.57Z"/>
      <path class="cls-1" d="M.62,25.8,0,24.65a4.42,4.42,0,0,1,1-.59c.85-.21,1.72-.34,2.58-.5s1.48-.31,2.23-.42a9.42,9.42,0,0,1,1.32,0l.12,1.43A53.14,53.14,0,0,1,.62,25.8Z"/>
      <path class="cls-1" d="M8.29,27.83l1,1.12a4.28,4.28,0,0,1-1.67,1.3c-1.11.63-2.2,1.27-3.31,1.89a1.21,1.21,0,0,1-1.48,0L2.7,31.05Z"/>
      <path class="cls-1" d="M40.24,31.35l-.63,1.15a6.22,6.22,0,0,1-1.24-.37Q36.26,31,34.19,29.8a4.25,4.25,0,0,1-.74-.81l.86-1.16C36.32,29,38.35,30,40.24,31.35Z"/>
      <path class="cls-1" d="M18.63,35.35l.9.36a53.09,53.09,0,0,1-1.06,6.54c-.94.38-.94.38-1.58-.47.24-1.63.46-3.29.74-4.93A1.63,1.63,0,0,1,18.63,35.35Z"/>
      <path class="cls-1" d="M14.8,34.25a46.57,46.57,0,0,1-3.56,6l-1.14-.63a3.37,3.37,0,0,1,.23-1c1-1.69,1.9-3.47,3.12-5.2Z"/>
      <path class="cls-1" d="M29.54,33.8c1,1.84,2.14,3.6,3.09,5.54l-.88.84c-1-.59-2.82-3.46-3.77-5.85A1.08,1.08,0,0,1,29.54,33.8Z"/>
      <path class="cls-1" d="M22,42.69H20.74a26.39,26.39,0,0,1-.09-7l1.22-.08A25.76,25.76,0,0,1,22,42.69Z"/>
      <path class="cls-1" d="M60.28,39.83h-6.5l-.66-.61.41-.94h6.75Z"/>
      <path class="cls-1" d="M0,22l.08-1.26a25.31,25.31,0,0,1,6.76-.07L7,21.84A25.35,25.35,0,0,1,0,22Z"/>
      <path class="cls-1" d="M143,8.29c-1.67.29-2,.23-2.72-.49-.23-1.95-.2-2.14.58-3h1.08c.35,0,.7,0,1,.06A2.7,2.7,0,0,1,143,8.29Z"/>
    </g>
  </g>
</svg>