<svg xmlns="http://www.w3.org/2000/svg" viewBox="0 0 109.01 87.61">
  <defs>
    <style>.cls-1{fill:#fff;}</style>
  </defs>
  <title>Vida homeloans</title>
  <g id="Layer_2" data-name="Layer 2">
    <g id="Layer_1-2" data-name="Layer 1">
      <path class="cls-1" d="M0,26.08a2.85,2.85,0,0,0,.23-.26,2.25,2.25,0,0,1,2.52-.77A9.35,9.35,0,0,1,5.6,26.58,20.73,20.73,0,0,1,8.23,28.8c.83.82,1.68,1.61,2.45,2.48,1.14,1.28,2.24,2.6,3.32,3.93,1.48,1.82,2.82,3.73,4.11,5.68,1.5,2.25,2.92,4.56,4.23,6.94l1.25,2.29.2.3c.07-.21.13-.35.17-.49.41-1.43.81-2.85,1.23-4.27.49-1.64,1-3.29,1.5-4.93.63-2,1.27-3.92,1.95-5.86,1.09-3.11,2.29-6.17,3.54-9.21,1.44-3.47,3.09-6.84,4.8-10.18.82-1.61,1.71-3.19,2.57-4.78.55-1,1.09-2,1.67-3,.7-1.18,1.41-2.36,2.16-3.5s1.41-2.05,2.14-3.05A3.4,3.4,0,0,1,46.78,0h.79c.29.19.58.37.86.57a3.09,3.09,0,0,1,.39.33.8.8,0,0,1,.2.94c-.07.18-.16.34-.24.5C47.6,4.69,46.52,7.09,45.47,9.5Q43.13,14.83,41,20.26q-1.18,3-2.29,6.12c-.68,1.85-1.34,3.7-1.95,5.57-.91,2.77-1.8,5.53-2.62,8.32s-1.58,5.56-2.31,8.36C31,51.8,30.33,55,29.75,58.23c-.37,2.07-.69,4.14-1,6.21a8.46,8.46,0,0,1-.54,2A2.68,2.68,0,0,1,26.44,68a7.54,7.54,0,0,1-1.55.28,2,2,0,0,1-1.82-1,6.45,6.45,0,0,1-.51-.93c-.81-1.83-1.59-3.66-2.4-5.49-.71-1.6-1.45-3.2-2.18-4.79-.47-1-.93-2-1.44-3-.73-1.45-1.47-2.9-2.26-4.32-1-1.86-2.12-3.72-3.22-5.55-1.41-2.34-2.91-4.63-4.45-6.89C4.8,33.69,2.89,31.11,1,28.52c-.28-.38-.5-.81-.75-1.21L0,27Z"/>
      <path class="cls-1" d="M57.64,87.61c-.22-.07-.43-.15-.64-.2a3.64,3.64,0,0,1-2.9-3.19,14.51,14.51,0,0,1,0-4.11,3.91,3.91,0,0,1,1.25-2.45A3.26,3.26,0,0,1,57,76.79a5.52,5.52,0,0,1,3.45.28,3.44,3.44,0,0,1,1.44,1.26,4.45,4.45,0,0,1,.71,2.32c0,.44,0,.89.07,1.34a1.59,1.59,0,0,1-.06.43.5.5,0,0,1-.47.41,3.1,3.1,0,0,1-.43,0H56.67c-.57,0-.67.12-.58.69,0,.24.09.47.13.7A1.89,1.89,0,0,0,58,85.69c.89,0,1.77,0,2.65-.06.36,0,.71-.07,1.07-.09s.64.15.66.63v.28c0,.59-.12.74-.71.85s-1,.14-1.45.21c-.13,0-.25.07-.38.1Zm.65-6.43h1.9c.32,0,.38-.06.38-.38a2.84,2.84,0,0,0-.37-1.44,1.5,1.5,0,0,0-.72-.64,2.65,2.65,0,0,0-1.66-.18,1.94,1.94,0,0,0-1.54,1.26,4.83,4.83,0,0,0-.21.93c0,.36,0,.44.4.45Z"/>
      <path class="cls-1" d="M83.09,87.61a2,2,0,0,0-.34-.12,2.7,2.7,0,0,1-2-1.84,1.57,1.57,0,0,1-.11-.54,6.37,6.37,0,0,1,0-1.85,2.61,2.61,0,0,1,1.86-2A5.59,5.59,0,0,1,84,81c.63-.06,1.27-.07,1.9-.09s.54,0,.52-.55a6,6,0,0,0-.12-.94,1,1,0,0,0-.83-.8,4.37,4.37,0,0,0-1.57-.14l-2.21.16a.47.47,0,0,1-.54-.42,3.22,3.22,0,0,1,0-.82.55.55,0,0,1,.48-.47c.26,0,.52-.08.78-.11a13.21,13.21,0,0,1,3.44,0,2.94,2.94,0,0,1,1.51.65,3.61,3.61,0,0,1,1.13,2.73c0,2,0,4,0,5.95,0,.25,0,.5,0,.75a.54.54,0,0,1-.55.63c-.26,0-.53,0-.79,0a.68.68,0,0,1-.69-.37.94.94,0,0,0-.14-.16c-.15.06-.29.13-.44.18l-1.37.5Zm3.33-3.77h0c0-.33,0-.66,0-1s0-.39-.36-.38-.81,0-1.22.08a1.09,1.09,0,0,1-.31,0,2.33,2.33,0,0,0-1,.14,1.06,1.06,0,0,0-.8.89,3.35,3.35,0,0,0,0,1.41,1,1,0,0,0,.62.68,2.28,2.28,0,0,0,1.13.13,5.81,5.81,0,0,0,1.62-.48.52.52,0,0,0,.35-.52C86.41,84.5,86.42,84.17,86.42,83.84Z"/>
      <path class="cls-1" d="M31.32,87.61a1.86,1.86,0,0,0-.37-.14,3.58,3.58,0,0,1-2.48-1.68,4.17,4.17,0,0,1-.63-2,26,26,0,0,1-.08-2.65,5.26,5.26,0,0,1,.64-2.51,3.51,3.51,0,0,1,2.09-1.72,5.17,5.17,0,0,1,4,.34,3.49,3.49,0,0,1,1.6,1.9,4.91,4.91,0,0,1,.35,1.7c0,.53.08,1.05.06,1.58a11.46,11.46,0,0,1-.16,1.85,3.9,3.9,0,0,1-1.55,2.58,3.83,3.83,0,0,1-1.25.57c-.2.06-.4.14-.6.21Zm3.13-5.45h0c0-.35,0-.71,0-1.07A5.36,5.36,0,0,0,34.21,80a1.89,1.89,0,0,0-1.66-1.43,2.23,2.23,0,0,0-1.89.47,2.42,2.42,0,0,0-.75,1.66,15,15,0,0,0-.08,2,4.61,4.61,0,0,0,.37,1.93,1.78,1.78,0,0,0,.74.84,2.59,2.59,0,0,0,1.77.22,1.47,1.47,0,0,0,.53-.16A2,2,0,0,0,34.31,84C34.41,83.37,34.41,82.76,34.45,82.16Z"/>
      <path class="cls-1" d="M73.42,87.61c-.35-.11-.71-.21-1-.34a3.49,3.49,0,0,1-1.92-1.64,5.51,5.51,0,0,1-.6-2.32c0-.8,0-1.61,0-2.42a4.76,4.76,0,0,1,1.08-3A3.13,3.13,0,0,1,72.25,77a5.07,5.07,0,0,1,4.19.14,3.61,3.61,0,0,1,1.94,2.56,7.42,7.42,0,0,1,.2,1.88A19.35,19.35,0,0,1,78.49,84a4.2,4.2,0,0,1-1.26,2.54,4.1,4.1,0,0,1-1.78.92l-.53.15Zm-1.51-5.48a7.63,7.63,0,0,0,0,.83,5.8,5.8,0,0,0,.17,1.17,2.09,2.09,0,0,0,.75,1.23,2.58,2.58,0,0,0,2.13.26,1.9,1.9,0,0,0,.85-.55,2.18,2.18,0,0,0,.6-1.39c0-.88.08-1.77.07-2.65a3.82,3.82,0,0,0-.2-1,1.81,1.81,0,0,0-1.15-1.31,3.78,3.78,0,0,0-1-.17,2,2,0,0,0-2,1.62A7.55,7.55,0,0,0,71.91,82.13Z"/>
      <path class="cls-1" d="M104,87.61c-.43-.08-.85-.17-1.28-.23-.85-.11-1-.23-.94-1.08a1.62,1.62,0,0,1,0-.31.4.4,0,0,1,.41-.36,3.75,3.75,0,0,1,.75,0,17,17,0,0,0,2.57.13,4.08,4.08,0,0,0,.85-.14.75.75,0,0,0,.55-.7,1.19,1.19,0,0,0-.66-1.24c-.55-.36-1.14-.66-1.7-1a10.86,10.86,0,0,1-2.07-1.51,2.74,2.74,0,0,1,0-3.79,2.11,2.11,0,0,1,.86-.46,5.09,5.09,0,0,1,1.28-.25,17.12,17.12,0,0,1,3.43.17,1.37,1.37,0,0,1,.35.08.46.46,0,0,1,.36.46,6.94,6.94,0,0,1,0,.79c0,.27-.13.37-.4.4h-.28c-.76,0-1.52-.12-2.29-.14a6.18,6.18,0,0,0-1.29.1.79.79,0,0,0-.43,1.39,1.72,1.72,0,0,0,.4.31c.77.47,1.54.92,2.31,1.38a6.81,6.81,0,0,1,1.5,1.17A2.87,2.87,0,0,1,109,84v1.35a4.53,4.53,0,0,1-.3.8,2.81,2.81,0,0,1-1.91,1.25l-.56.17Z"/>
      <path class="cls-1" d="M79.13,46.65V65.47a5,5,0,0,1,0,.55A1.32,1.32,0,0,1,78,67.3c-.47.1-.94.19-1.41.26-1.34.18-2.69.38-4,.53-1,.1-2,.13-3,.18-.64,0-1.27.08-1.9.06s-1.56-.07-2.33-.16a11.57,11.57,0,0,1-3.69-1,10.14,10.14,0,0,1-4.28-3.72,14.1,14.1,0,0,1-2-5.86,23,23,0,0,1-.24-3.51c0-1.23,0-2.46,0-3.69a21,21,0,0,1,.6-5.18,12.1,12.1,0,0,1,2.39-4.91,9.28,9.28,0,0,1,3.49-2.61,14.27,14.27,0,0,1,5.08-1.08c.93-.05,1.85,0,2.77,0,1.17,0,2.34.21,3.5.33H73c.34,0,.39,0,.4-.35,0-.12,0-.24,0-.36,0-2.85,0-5.71,0-8.56a2.68,2.68,0,0,1,0-.63,1.39,1.39,0,0,1,1.36-1.16q1.47,0,2.94,0a1.4,1.4,0,0,1,1.35,1.35,3.65,3.65,0,0,1,0,.47Zm-5.72,5.8V42.22a.26.26,0,0,0-.23-.27,2.61,2.61,0,0,0-.27-.06c-.76-.06-1.53-.15-2.29-.17-1.21,0-2.43,0-3.64,0a6.75,6.75,0,0,0-1.19.1,5.07,5.07,0,0,0-3,1.48,6.23,6.23,0,0,0-1.26,2.28,12.63,12.63,0,0,0-.67,4c0,1.6,0,3.2,0,4.8a18.81,18.81,0,0,0,.41,4A8,8,0,0,0,62.3,61a4.63,4.63,0,0,0,3.09,2,19.51,19.51,0,0,0,4.58.13c1,0,2-.13,2.92-.19.52,0,.52,0,.52-.56V52.45Z"/>
      <path class="cls-1" d="M102.69,66l-.37.19a18.79,18.79,0,0,1-5.07,1.89,15.87,15.87,0,0,1-2,.21,12.2,12.2,0,0,1-4.57-.56,6.88,6.88,0,0,1-2.39-1.3,8.08,8.08,0,0,1-2.78-5.18,17.32,17.32,0,0,1-.11-4.07,9.07,9.07,0,0,1,.87-3.31,6.09,6.09,0,0,1,.91-1.34,8.31,8.31,0,0,1,3.38-2.28,17.17,17.17,0,0,1,3.93-.93,37.34,37.34,0,0,1,5.29-.24h2.34c.39,0,.43,0,.43-.44,0-.78,0-1.56,0-2.33a8.15,8.15,0,0,0-.38-2.14,3.34,3.34,0,0,0-2.4-2.27,7.94,7.94,0,0,0-2-.31c-.91,0-1.82,0-2.73,0h-.47l-3.92.23c-.63,0-1.26.13-1.89.16a2.84,2.84,0,0,1-.86-.12,1.06,1.06,0,0,1-.8-1.06c0-.71,0-1.43,0-2.14a1.4,1.4,0,0,1,1.2-1.33c.55-.11,1.1-.19,1.65-.26,1-.13,2-.26,3-.37.58-.06,1.16-.08,1.74-.11s1.34-.06,2-.06a18.17,18.17,0,0,1,2.09.08,24.18,24.18,0,0,1,2.66.44A7.89,7.89,0,0,1,107,41.29a11.3,11.3,0,0,1,1.2,4.33c.06.8.07,1.6.08,2.41q0,9.07,0,18.15a2.28,2.28,0,0,1-.09.74,1.51,1.51,0,0,1-1.47,1c-.83,0-1.67,0-2.5,0a1.51,1.51,0,0,1-1.5-1.57C102.73,66.26,102.71,66.16,102.69,66Zm-.1-8.52V53.85c0-.45,0-.48-.46-.48a59.86,59.86,0,0,0-6.14.15,8.93,8.93,0,0,0-2.79.69,4.73,4.73,0,0,0-1,.64,3.22,3.22,0,0,0-1,2.1,14.13,14.13,0,0,0-.07,2.76,7,7,0,0,0,.25,1.44A2.56,2.56,0,0,0,92.86,63a5.54,5.54,0,0,0,1.13.37,10.12,10.12,0,0,0,2.75.12,15.15,15.15,0,0,0,5.41-1.71.73.73,0,0,0,.45-.78C102.58,59.79,102.59,58.62,102.59,57.46Z"/>
      <path class="cls-1" d="M42.89,52.45V38.1A1.49,1.49,0,0,1,43.31,37a1.26,1.26,0,0,1,.92-.4c1,0,2,0,3.05,0a1.35,1.35,0,0,1,1.32,1.36c0,.12,0,.24,0,.36V66.61c0,.14,0,.29,0,.43a1.34,1.34,0,0,1-1.08,1.26,2.09,2.09,0,0,1-.43,0h-2.7a1.44,1.44,0,0,1-1.13-.45,1.35,1.35,0,0,1-.37-.82c0-.13,0-.26,0-.39Z"/>
      <path class="cls-1" d="M41,77.26c.2-.08.35-.13.49-.2a5,5,0,0,1,2.11-.46,2.23,2.23,0,0,1,1.45.46.72.72,0,0,0,.76.1,10.17,10.17,0,0,1,1.64-.44,5.93,5.93,0,0,1,1.68-.08,2.73,2.73,0,0,1,2.41,2.25,3.22,3.22,0,0,1,.1.75c0,2.23.06,4.46.08,6.69a3.36,3.36,0,0,1-.06.63.51.51,0,0,1-.54.48,8.17,8.17,0,0,1-1,0,.56.56,0,0,1-.53-.5,3.7,3.7,0,0,1,0-.47c0-2.1,0-4.21,0-6.31a3.3,3.3,0,0,0-.11-.82,1.08,1.08,0,0,0-.89-.8,3.8,3.8,0,0,0-2.13.3c-.18.07-.2.23-.19.4s.07.58.07.87c0,2.18,0,4.36,0,6.54a1.61,1.61,0,0,1,0,.31.48.48,0,0,1-.49.48,10.27,10.27,0,0,1-1.11,0,.44.44,0,0,1-.44-.43,3.1,3.1,0,0,1,0-.43c0-2,0-4.07,0-6.11a8.75,8.75,0,0,0-.09-1.14.88.88,0,0,0-.83-.82,3.52,3.52,0,0,0-2.12.52.5.5,0,0,0-.27.45v.4q0,3.21,0,6.42c0,.19,0,.37,0,.56a.52.52,0,0,1-.54.59h-1a.48.48,0,0,1-.51-.46,2.17,2.17,0,0,1,0-.36v-9a1.69,1.69,0,0,1,0-.32.57.57,0,0,1,.56-.56,7.06,7.06,0,0,1,.92,0A.71.71,0,0,1,41,77.26Z"/>
      <path class="cls-1" d="M25.22,80.34v6.22c0,.13,0,.27,0,.4a.46.46,0,0,1-.47.48,8.22,8.22,0,0,1-1.11,0c-.33,0-.5-.23-.5-.59,0-1.65,0-3.3,0-4.95v-.32c0-.67,0-.7-.72-.7H17.7c-.54,0-.57,0-.57.55v2.62l0,2.85a.51.51,0,0,1-.47.54,9.45,9.45,0,0,1-1.19,0,.51.51,0,0,1-.47-.61c0-.2,0-.4,0-.59q0-6.1,0-12.21c0-.77.09-.86.87-.86h.63a.5.5,0,0,1,.56.44,2.51,2.51,0,0,1,0,.39v4.4c0,.54,0,.57.56.57h4.79a1.81,1.81,0,0,0,.4,0,.29.29,0,0,0,.26-.3V74.07c0-.12,0-.24,0-.36,0-.31.15-.49.44-.51a7.88,7.88,0,0,1,1.19,0c.28,0,.41.2.43.48,0,.13,0,.27,0,.4Z"/>
      <path class="cls-1" d="M93.41,77.25c.16-.06.37-.13.58-.22a5.07,5.07,0,0,1,1.93-.38,4.28,4.28,0,0,1,1.51.21,2.72,2.72,0,0,1,1.76,1.85,6.53,6.53,0,0,1,.3,2.11c0,1.88,0,3.77,0,5.66v.24c0,.54-.24.73-.77.73H98a.6.6,0,0,1-.64-.61,2.54,2.54,0,0,1,0-.39q0-3,0-6a3.42,3.42,0,0,0-.12-.9,1.26,1.26,0,0,0-1-1,3.13,3.13,0,0,0-1.49,0c-.34.09-.68.22-1,.34a.6.6,0,0,0-.44.66c0,.84,0,1.69,0,2.53v4.4a2.17,2.17,0,0,1,0,.36.52.52,0,0,1-.55.55h-1a.52.52,0,0,1-.55-.56c0-.1,0-.21,0-.31v-9a2.62,2.62,0,0,1,0-.28.53.53,0,0,1,.46-.56,4.35,4.35,0,0,1,1.14,0C93,76.83,93.16,77.06,93.41,77.25Z"/>
      <path class="cls-1" d="M45.74,25.91h1.47a1.31,1.31,0,0,1,1.39,1.35c0,1,0,2,0,3a1.33,1.33,0,0,1-1.09,1.29l-.43.06c-.91,0-1.82,0-2.73,0a1.39,1.39,0,0,1-1.15-.52,1.3,1.3,0,0,1-.31-.84v-3a1.38,1.38,0,0,1,1.42-1.38C44.79,25.94,45.26,25.91,45.74,25.91Z"/>
      <path class="cls-1" d="M67.31,80.24c0,2.11,0,4.22,0,6.34,0,.75-.12.87-.87.87h-.63a.53.53,0,0,1-.56-.55c0-.11,0-.23,0-.35V73.86c0-.78.06-.85.86-.85.23,0,.45,0,.67,0a.49.49,0,0,1,.53.52c0,.13,0,.26,0,.39C67.32,76,67.31,78.13,67.31,80.24Z"/>
    </g>
  </g>
</svg>