<svg xmlns="http://www.w3.org/2000/svg" viewBox="0 0 212.49 55.56">
  <defs>
    <style>.cls-1{fill:#fff;}</style>
  </defs>
  <title>Nationwide</title>
  <g id="Layer_2" data-name="Layer 2">
    <g id="Layer_1-2" data-name="Layer 1">
      <path class="cls-1" d="M80.25,34.08c0,1.68.84,2.19,1.52,2.19a3,3,0,0,0,1.85-1.35V30.2C81.77,30.88,80.25,32.56,80.25,34.08Z"/>
      <path class="cls-1" d="M182.15,24c-1.35,0-2.53.84-2.53,6.57,0,2.86.34,6.06,2.36,6.06a3.6,3.6,0,0,0,2.36-2V26C184.34,25.82,183.33,24,182.15,24Z"/>
      <path class="cls-1" d="M199.33,23.3c-1.35,0-2,.84-2,4.71H201C201,25.15,200.85,23.3,199.33,23.3Z"/>
      <path class="cls-1" d="M117,23.3c-1.18,0-2.36.67-2.36,7.24S116,37.11,117,37.11c.67,0,2.19,0,2.19-6.4C119.16,24.14,118,23.3,117,23.3Z"/>
      <path class="cls-1" d="M45.94,42.18H40.32a.84.84,0,0,0-.84.85v3.18a.85.85,0,0,1-.85.85H16.36a.84.84,0,0,1-.84-.85V42.16H0v6.3a7.1,7.1,0,0,0,7.1,7.1H205.39a7.1,7.1,0,0,0,7.1-7.1v-6.3H46.12Z"/>
      <path class="cls-1" d="M205.39,0H7.1A7.1,7.1,0,0,0,0,7.1V42.16H15.52V38.78a.84.84,0,0,0-.38-.71l-.23-.15a12.66,12.66,0,0,1-6.3-10.56,13.07,13.07,0,0,1,14-12.95v-1a.85.85,0,0,1,.85-.84H26a.85.85,0,0,0,.85-.85v-3a.83.83,0,0,1,.84-.84h10.9a.84.84,0,0,1,.85.84v9.92c.71.89,5.85,5.89,7.05,7.06a.83.83,0,0,1,.26.61v15a.85.85,0,0,1-.67.82H212.49V7.1A7.1,7.1,0,0,0,205.39,0ZM169.18,13.36a3,3,0,0,1,3,3,2.88,2.88,0,0,1-3,2.87,2.74,2.74,0,0,1-2.86-2.87A2.88,2.88,0,0,1,169.18,13.36Zm-64.17,0a3,3,0,0,1,3,3,2.88,2.88,0,0,1-3,2.87,2.84,2.84,0,0,1-2.86-2.87A3,3,0,0,1,105,13.36ZM72.67,17.07V39.63H71L57.18,21.11V35.93c0,.5,1,1.35,1.85,1.35h.84V39H51.45V37.45h.34c.5,0,2.19-.17,2.19-1.52V17.4c-.17-.17-1.69-2-1.86-2.19h-.5V13.7H59s9.43,13,10.44,14.48V17.07A1.8,1.8,0,0,0,68,15.38H66.78V13.7h8.08v1.68h-.33C73.35,15.38,72.67,15.89,72.67,17.07ZM90.36,37.45l-.17.16a4.1,4.1,0,0,1-3.37,1.86A3,3,0,0,1,84,37.61a8.05,8.05,0,0,1-4.89,1.86,3.86,3.86,0,0,1-4.21-4c0-3.36,2.87-5.89,8.93-7.58V25.32c0-1-1.35-1.85-2.36-1.85s-3.54.33-4.55,4.88v.34H75.37V23.47l.17-.17c.84-.84,2.69-2,6.23-2,4.21,0,7.07,1.85,7.07,4.71v9.94c0,1.18,1.52-.17,1.52-.17ZM100.3,23.8h-3V35.09a1.08,1.08,0,0,0,.51,1,2.43,2.43,0,0,0,2-.17v1.52a4.34,4.34,0,0,1-3.87,1.85A3.71,3.71,0,0,1,92,35.42V23.8H90.36V22.29l.17-.17a25.09,25.09,0,0,0,5.22-6.4l.17-.17h1.34v6.06h3ZM109.22,39H100.8V37.45h.33a1.3,1.3,0,0,0,1.35-1.18V21.61h5.22V36.27c0,.67.85,1.18,1.18,1.18h.34Zm7.75.51c-2.7,0-7.75-2-7.75-9.27,0-5.56,4-9.09,7.75-9.09,4.38,0,7.75,4.21,7.75,9.6C124.72,36.6,120.17,39.47,117,39.47ZM142.4,39h-8.25V37.45h.17c.5,0,1.34-.68,1.34-1V26.33c0-1.35-.5-2.19-1.68-2.19a3,3,0,0,0-2.36,2V36.1A1.25,1.25,0,0,0,133,37.45h.34V39h-8.59V37.45h.16a1.38,1.38,0,0,0,1.52-1.35v-12a1.05,1.05,0,0,0-.84-1h-.84V21.61h6.9v1.52a5.32,5.32,0,0,1,4.55-2c3,0,4.71,2.69,4.71,5.39v9.93c0,.51.17,1,1.18,1h.34Zm21.39-14.32L158.57,39.3h-1.68s-2.53-8.25-3-9.77c-.5,1.52-3.53,9.77-3.53,9.77h-1.69l-.17-.17c-2.19-5.9-5.39-15-5.72-15.5a.92.92,0,0,0-.68-.5l-.17-.17V21.61h7.75v1.52h-.33c-.51,0-.68,0-.85.34-.16,0-.16.16-.16.33a1.07,1.07,0,0,0,.16.68c.34,1,1.86,5.05,2.36,6.73.51-1.18,2-5.05,2-5.22a22.07,22.07,0,0,0-.67-2.36c-.17-.5-.84-.5-1.18-.5h-.34V21.61h8.26v1.52h-.34c-.51,0-.84,0-1,.34-.17.16-.17.16-.17.33v.34c.17.5,1.18,4.88,1.68,6.91.68-2,2-6.07,2.36-6.91V23.8a.49.49,0,0,0-.17-.33c-.16-.34-.67-.34-1-.34h-.33V21.61h5.39V23h-.17C164.46,23,164.13,23.47,163.79,24.64ZM173.39,39H165V37.45h.34a1.3,1.3,0,0,0,1.34-1.18V21.61h5.23V36.27c0,.67.84,1.18,1.17,1.18h.34Zm17.69,0h-6.74V37.78a5.06,5.06,0,0,1-4,1.69c-2,0-6.07-1.86-6.07-8.93,0-6.91,4.05-9.43,6.57-9.43a5.12,5.12,0,0,1,3.71,1.51V16.39c0-.67-1-1.18-1.52-1.18h-1V13.7h7.58V36.1a1.31,1.31,0,0,0,1.18,1.35h.34Zm14.65-8.59h-8.42c0,3.88.67,6.06,3.87,6.06a6.34,6.34,0,0,0,3.2-1.34l.34-.17.67,1.35-.17.16a8.1,8.1,0,0,1-6.06,3c-.67,0-7.07-.34-7.07-9.1,0-7.41,4.54-9.26,7.07-9.26,3.2,0,6.57,2.69,6.57,8.92Z"/>
      <path class="cls-1" d="M36.53,36.8a.92.92,0,0,0,.92-.91v-2a.92.92,0,1,0-1.83,0v2A.91.91,0,0,0,36.53,36.8Z"/>
      <path class="cls-1" d="M37.45,19.44V10.61a.92.92,0,0,0-.92-.92h-6.7a.92.92,0,0,0-.91.92v2.84a.92.92,0,0,1-.92.92H25.57a.91.91,0,0,0-.92.91V16.8a5.7,5.7,0,0,0-1.92-.38A11.34,11.34,0,0,0,11,24.66a10.34,10.34,0,0,0,4.92,11.63l6.64-10.53a.9.9,0,0,1,.77-.43h9.24a11,11,0,0,0-6.09-7.92v-.1a.91.91,0,0,1,.91-.91h2.44a.92.92,0,0,0,.92-.92V12.64a.9.9,0,0,1,.91-.91H34.5a.91.91,0,0,1,.92.91V26.45a.91.91,0,0,0,.91.91h5.48a.91.91,0,0,1,.91.91v9.14a.9.9,0,0,1-.91.91H36.33a.91.91,0,0,0-.91.92v2.84s0,.05,0,.08a.91.91,0,0,1-.91.83H30a.9.9,0,0,1-.9-.83s0,0,0-.08V37.57a.9.9,0,0,1,.14-.48l5.27-8.33a.91.91,0,0,0-.77-1.4H24.54a.92.92,0,0,0-.77.42l-6.08,9.51a.91.91,0,0,0-.14.49v6.33a.92.92,0,0,0,.91.92H36.53a.92.92,0,0,0,.92-.92V41.27a.9.9,0,0,1,.91-.91h5.48a.92.92,0,0,0,.92-.92V27.13a.93.93,0,0,0-.27-.65ZM27.09,42.08s0,.05,0,.08a.9.9,0,0,1-.9.83H20.49a.9.9,0,0,1-.9-.83.22.22,0,0,1,0-.08V38.22a.91.91,0,0,1,.91-.91h5.69a.91.91,0,0,1,.91.91Z"/>
    </g>
  </g>
</svg>