<svg xmlns="http://www.w3.org/2000/svg" viewBox="0 0 127.57 74.07">
  <defs>
    <style>.cls-1,.cls-2,.cls-3{fill:#fff;}.cls-1{opacity:0.8;}.cls-3{opacity:0.75;}</style>
  </defs>
  <title>masthaven</title>
  <g id="Layer_2" data-name="Layer 2">
    <g id="Layer_1-2" data-name="Layer 1">
      <path class="cls-1" d="M53.57,10.4l-3-5.24a3.46,3.46,0,0,1-.17-3L30.17,36.94a3.58,3.58,0,0,0-.47,1.72,3.46,3.46,0,0,0,6.46,1.76L53.67,10.33l0-.05Z"/>
      <path class="cls-1" d="M68,21.66l-4,6.87,6.75,11.85a3.45,3.45,0,0,0,3,1.75,3.5,3.5,0,0,0,1.73-.46A3.45,3.45,0,0,0,76.78,37L68,21.59l0,.05Z"/>
      <path class="cls-1" d="M56.73,1.73C56.08.59,55.08.28,55.39.46a3.47,3.47,0,0,1,1.26,4.75l-3,5.12,6.38,11.21,4-6.92Z"/>
      <path class="cls-2" d="M55.39.46c-.31-.18-.12,0-.12,0l.3.19.26.19.3.23.17.18h-.06a3.52,3.52,0,0,1,.35,4l-3,5.07,0,.05,3-5.12A3.47,3.47,0,0,0,55.39.46Z"/>
      <path class="cls-2" d="M74.23,0h0Z"/>
      <path class="cls-2" d="M77.25,1.26l.25.36Z"/>
      <path class="cls-2" d="M75.54.13a3.33,3.33,0,0,1,.4.16A3.33,3.33,0,0,0,75.54.13Z"/>
      <path class="cls-2" d="M77.71,2c0-.09-.1-.17-.15-.26h0Z"/>
      <path class="cls-2" d="M76.31.45,76.16.39a3.26,3.26,0,0,1,.4.24Z"/>
      <path class="cls-2" d="M74.89,0a2.93,2.93,0,0,1,.41.07A2.93,2.93,0,0,0,74.89,0Z"/>
      <path class="cls-3" d="M74.55,10.4l-3-5.24a3,3,0,0,1-.28-.63v0A3.48,3.48,0,0,1,71.39,2L64.07,14.62l4,7L74.55,10.4h0Z"/>
      <path class="cls-2" d="M77.06,1.06a3.59,3.59,0,0,0-.35-.32L77,1Z"/>
      <path class="cls-3" d="M60.06,21.55h0L51.1,36.94a3.46,3.46,0,1,0,6,3.48L64,28.55l-4-6.94Z"/>
      <path class="cls-2" d="M76.56.63l.15.11Z"/>
      <path class="cls-2" d="M77.14,1.14l0,0Z"/>
      <path class="cls-2" d="M74.61,0h0Z"/>
      <path class="cls-3" d="M97.62,37,77.71,2a.94.94,0,0,1,.06.15s0,0,0,.06A3.48,3.48,0,0,1,78,3.63a.28.28,0,0,0,0,.09c0,.13,0,.26,0,.4s0,.14,0,.21a3.18,3.18,0,0,1-.1.33,3.82,3.82,0,0,1-.24.55l-3,5.19,17.12,30a3.45,3.45,0,0,0,3,1.75h-.06a3.49,3.49,0,0,0,1.72-.46A3.45,3.45,0,0,0,97.62,37Z"/>
      <path class="cls-2" d="M75.3.08l.24.05Z"/>
      <path class="cls-2" d="M74.23,0h0Z"/>
      <path class="cls-2" d="M75.94.29l.22.1Z"/>
      <path class="cls-2" d="M78,3.72c0,.13,0,.26,0,.4C78,4,78,3.85,78,3.72Z"/>
      <path class="cls-2" d="M77.92,4.33c0,.11-.06.22-.1.33A3.18,3.18,0,0,0,77.92,4.33Z"/>
      <path class="cls-2" d="M77.79,2.2A3.48,3.48,0,0,1,78,3.63,3.48,3.48,0,0,0,77.79,2.2Z"/>
      <path class="cls-2" d="M77.77,2.14A.94.94,0,0,0,77.71,2l-.14-.25C77.64,1.87,77.71,2,77.77,2.14Z"/>
      <path class="cls-2" d="M71.28,4.53v0Z"/>
      <path class="cls-2" d="M74.23,0h.67l.36.12.32.07.3.12.33.14.28.18.27.19c.08.05.16.12.24.18L76.71.74,76.56.63a3.26,3.26,0,0,0-.4-.24l-.22-.1a3.33,3.33,0,0,0-.4-.16l-.24,0A2.93,2.93,0,0,0,74.89,0h-.66Z"/>
      <polygon class="cls-2" points="74.55 10.39 74.55 10.4 77.58 5.21 74.55 10.39"/>
      <path class="cls-2" d="M53,0l-.38.13-.28.1L52,.4l-.22.14-.36.25L51.19,1l-.29.3-.15.23a3.13,3.13,0,0,0-.34.62l.24-.4A5.72,5.72,0,0,1,53,0Z"/>
      <path class="cls-2" d="M50.58,5.16l3,5.24.07-.12L50.73,5.16A3.45,3.45,0,0,1,52,.44a3.42,3.42,0,0,0-1.36,1.28l-.24.4A3.46,3.46,0,0,0,50.58,5.16Z"/>
      <path class="cls-2" d="M53.32,0h-.06A3.62,3.62,0,0,0,52,.44a3.45,3.45,0,0,0-1.28,4.72l2.91,5.12,3-5.07a3.52,3.52,0,0,0-.35-4h.06l-.17-.18-.3-.23L55.57.64l-.3-.19L55,.27,54.65.15l-.22,0-.13,0L54,0h-.67Z"/>
      <path class="cls-2" d="M71.72,1.5l.16-.23A3.83,3.83,0,0,1,72.16,1a1.8,1.8,0,0,1,.2-.19A2.62,2.62,0,0,1,72.7.55a.83.83,0,0,1,.15-.11l.09,0A3.92,3.92,0,0,1,73.3.24l.28-.1a2,2,0,0,1,.35-.08l.21,0h-.23l-.35.08-.27.1-.37.17L72.7.49a3.32,3.32,0,0,0-.36.26l-.19.18a2.76,2.76,0,0,0-.29.3l-.16.21a3.91,3.91,0,0,0-.31.57l.17-.29C71.61,1.64,71.67,1.57,71.72,1.5Z"/>
      <path class="cls-2" d="M77.25,1.26l0,0-.06-.07v0A.46.46,0,0,0,77.25,1.26Z"/>
      <path class="cls-2" d="M77.5,1.62l.06.11Z"/>
      <path class="cls-2" d="M77.14,1.14l-.08-.08h0l.06.06Z"/>
      <path class="cls-2" d="M71.27,4.51a3.45,3.45,0,0,1,.45-3c0,.07-.11.14-.16.22L71.39,2A3.48,3.48,0,0,0,71.27,4.51Z"/>
      <polygon class="cls-2" points="74.55 10.4 74.55 10.39 71.56 5.16 74.55 10.4"/>
      <path class="cls-2" d="M77.56,1.73h0l-.06-.11-.25-.36a.46.46,0,0,1-.07-.07A3.06,3.06,0,0,1,77.56,1.73Z"/>
      <path class="cls-2" d="M71.88,1.27A3.83,3.83,0,0,1,72.16,1,3.83,3.83,0,0,0,71.88,1.27Z"/>
      <path class="cls-2" d="M72.94.4A3.92,3.92,0,0,1,73.3.24,3.92,3.92,0,0,0,72.94.4Z"/>
      <path class="cls-2" d="M71.56,5.16a3,3,0,0,1-.28-.63A3,3,0,0,0,71.56,5.16Z"/>
      <path class="cls-2" d="M77.12,1.12l-.06-.06L77,1Z"/>
      <path class="cls-2" d="M73.58.14a2,2,0,0,1,.35-.08A2,2,0,0,0,73.58.14Z"/>
      <path class="cls-2" d="M72.36.79A2.62,2.62,0,0,1,72.7.55,2.62,2.62,0,0,0,72.36.79Z"/>
      <path class="cls-2" d="M78,3.63s0,.06,0,.09A.28.28,0,0,1,78,3.63Z"/>
      <path class="cls-2" d="M78,4.12c0,.07,0,.14,0,.21S78,4.19,78,4.12Z"/>
      <path class="cls-2" d="M74.2,0h-.06l-.21,0Z"/>
      <path class="cls-2" d="M77.77,2.14s0,0,0,.06S77.78,2.16,77.77,2.14Z"/>
      <path class="cls-2" d="M73.3.24l.28-.1Z"/>
      <path class="cls-2" d="M72.85.44a.83.83,0,0,0-.15.11L72.94.4Z"/>
      <path class="cls-2" d="M77.18,1.19v0l0,0,0,0Z"/>
      <path class="cls-2" d="M72.16,1a1.8,1.8,0,0,1,.2-.19A1.8,1.8,0,0,0,72.16,1Z"/>
      <path class="cls-2" d="M71.72,1.5a1.88,1.88,0,0,1,.16-.23Z"/>
      <path class="cls-2" d="M77.82,4.66a3.82,3.82,0,0,1-.24.55A3.82,3.82,0,0,0,77.82,4.66Z"/>
      <path class="cls-2" d="M77.56,1.73a3.06,3.06,0,0,0-.38-.54l-.06-.07L77,1c-.08-.06-.16-.13-.24-.18L76.49.64,76.21.46,75.88.32,75.58.2,75.26.13,74.9,0h-.7l-.27,0a2,2,0,0,0-.35.08l-.28.1a3.92,3.92,0,0,0-.36.16L72.7.55a2.62,2.62,0,0,0-.34.24,1.8,1.8,0,0,0-.2.19,3.83,3.83,0,0,0-.28.29,1.88,1.88,0,0,0-.16.23,3.45,3.45,0,0,0-.45,3v0a3,3,0,0,0,.28.63l3,5.23,3-5.18a3.82,3.82,0,0,0,.24-.55c0-.11.07-.22.1-.33s0-.14,0-.21,0-.27,0-.4,0-.06,0-.09a3.48,3.48,0,0,0-.24-1.43s0,0,0-.06-.13-.27-.2-.4Z"/>
      <polygon class="cls-2" points="63.99 28.55 64.01 28.58 64.03 28.53 64.02 28.5 63.99 28.55"/>
      <polygon class="cls-2" points="68.04 21.59 64.07 14.62 60.05 21.54 60.06 21.55 60.03 21.61 63.99 28.55 64.02 28.5 64.03 28.53 68.02 21.66 68.01 21.64 68.04 21.59"/>
      <path class="cls-2" d="M34.56,63.73c0-2.23-1.49-3.65-3.92-3.65a4.63,4.63,0,0,0-3.86,1.69,1.11,1.11,0,0,1-.87.47,1,1,0,0,1-.79-1.54,6.19,6.19,0,0,1,5.57-2.63c3.86,0,6,2.23,6,5.65V68c0,3.35-2.86,6.12-6.69,6.12-3.52,0-5.86-1.71-5.86-4.77s2.23-4.69,5.82-4.69h4.69Zm0,4.18V66.49H29.88c-2.16,0-3.65.91-3.65,2.82,0,1.71,1.21,2.82,3.8,2.82a4.46,4.46,0,0,0,4.54-4.22Z"/>
      <path class="cls-2" d="M84.06,63.73c0-2.23-1.49-3.65-3.92-3.65a4.62,4.62,0,0,0-3.86,1.69,1.11,1.11,0,0,1-.87.47,1,1,0,0,1-.79-1.54,6.19,6.19,0,0,1,5.57-2.63c3.86,0,6,2.23,6,5.65V68c0,3.35-2.86,6.12-6.69,6.12-3.52,0-5.86-1.71-5.86-4.77s2.23-4.69,5.82-4.69h4.69Zm0,4.18V66.49h-4.7c-2.16,0-3.66.91-3.66,2.82,0,1.71,1.23,2.82,3.83,2.82A4.45,4.45,0,0,0,84.06,67.91Z"/>
      <path class="cls-2" d="M40.55,62c0,3.49,8.75,2.23,8.75,7.51,0,3-2.5,4.39-5.65,4.39A7.45,7.45,0,0,1,38,71.51a1.08,1.08,0,0,1-.24-.64,1,1,0,0,1,1-1,1,1,0,0,1,.74.34,5.59,5.59,0,0,0,4.22,1.62c1.89,0,3.52-.63,3.52-2.36,0-3.42-8.74-2.06-8.74-7.51,0-2.76,2.22-4,5.08-4a6.08,6.08,0,0,1,5,2.13,1,1,0,0,1,.24.63,1,1,0,0,1-1,1,.89.89,0,0,1-.7-.3A4.73,4.73,0,0,0,43.49,60C42,60,40.55,60.47,40.55,62Z"/>
      <path class="cls-2" d="M71.94,63.83v8.91a1.11,1.11,0,0,1-2.13,0V64.25c0-2.63-.77-4.45-4-4.45s-4.45,2-4.45,4.65v8.22a1.13,1.13,0,0,1-1.4.73,1.11,1.11,0,0,1-.73-.73V52.91a1.11,1.11,0,0,1,1.39-.73,1.12,1.12,0,0,1,.74.73v7c.63-1.26,2.22-2,4.45-2C71,58,71.94,61,71.94,63.83Z"/>
      <path class="cls-2" d="M92.57,73.1,86.91,59.68a1.28,1.28,0,0,1-.1-.47,1.05,1.05,0,0,1,1-1.12h.14a1,1,0,0,1,1,.7l4.69,11.47L98.3,58.84a1,1,0,0,1,1-.7,1,1,0,0,1,1.11,1,.33.33,0,0,1,0,.14,1.1,1.1,0,0,1-.1.47L94.57,73.1a1.13,1.13,0,0,1-1.5.5A1.1,1.1,0,0,1,92.57,73.1Z"/>
      <path class="cls-2" d="M107.21,58c5.31,0,6.35,4.22,6.35,6.48,0,1,0,2.13-1.32,2.13h-9.68c0,3.34,1.9,5.41,5,5.41a6.11,6.11,0,0,0,4-1.42.87.87,0,0,1,.6-.2,1,1,0,0,1,1,1h0a1,1,0,0,1-.37.77A7.45,7.45,0,0,1,107.59,74c-4.46,0-7.18-2.43-7.18-8C100.4,60.8,102.93,58,107.21,58Zm0,1.93c-2.9,0-4.46,1.86-4.69,4.82h8.91C111.51,62.29,110.68,59.88,107.21,59.88Z"/>
      <path class="cls-2" d="M52.51,72.68V60.5H51.2a1,1,0,0,1,0-2h1.31V52.93a1.12,1.12,0,0,1,2.23,0v5.58H56.9a1,1,0,0,1,0,2H54.62V72.68a1.06,1.06,0,1,1-2.11,0Z"/>
      <path class="cls-2" d="M16.21,58.05c-2.63,0-4.18.81-5.05,2-.88-1.17-2.41-2-5-2C1,58.05,0,61.1,0,63.93v8.91a1.12,1.12,0,0,0,1.39.74,1.14,1.14,0,0,0,.74-.74V64.33c0-2.63.77-4.45,4-4.45s4,1.79,4,4.45V72.8a1.12,1.12,0,0,0,2.13,0V64.33c0-2.63.77-4.45,4-4.45s4,1.79,4,4.45V72.8a1.1,1.1,0,0,0,1.39.73,1.12,1.12,0,0,0,.74-.73V63.89C22.33,61.1,21.32,58.05,16.21,58.05Z"/>
      <path class="cls-2" d="M121.45,59.93c-3.22,0-4,1.8-4,4.46V72.8a1.1,1.1,0,0,1-1.39.73,1.12,1.12,0,0,1-.74-.73V63.89c0-2.83,1-5.89,6.12-5.89s6.12,3.06,6.12,5.89V72.8a1.12,1.12,0,0,1-2.13,0V64.33C125.44,61.73,124.67,59.93,121.45,59.93Z"/>
    </g>
  </g>
</svg>