<svg xmlns="http://www.w3.org/2000/svg" viewBox="0 0 182.33 82.11">
  <defs>
    <style>.cls-1{fill:#fff;}</style>
  </defs>
  <title>pepper money</title>
  <g id="Layer_2" data-name="Layer 2">
    <g id="Layer_1-2" data-name="Layer 1">
      <path class="cls-1" d="M8.23,30.85V44.94c0,.17,0,.34,0,.51,0,1.42-.26,1.6-1.71,1.46a8.16,8.16,0,0,1-2.68-.6A6,6,0,0,1,.2,41.24,27.43,27.43,0,0,1,0,38.38C0,32.8,0,27.21,0,21.63a3.44,3.44,0,0,1,4.4-3.49,4.52,4.52,0,0,1,2.34,1.21c.59.6,1.17,1.23,1.73,1.88a6.56,6.56,0,0,0,2.82,2.32c2.26.71,4.47.69,6.36-1a6.32,6.32,0,0,0,1.38-1.75,9.52,9.52,0,0,0,0-9.06C17.73,9.2,15.32,8.32,12.56,8.7c-1.94.27-3.11,1.55-4.29,2.92a13.72,13.72,0,0,1-2.19,2.12A4.26,4.26,0,0,1,1.61,14,2.8,2.8,0,0,1,0,11,12.21,12.21,0,0,1,9,.7,17.5,17.5,0,0,1,13.94,0c5.69.17,9.89,2.74,12.42,7.92a20.21,20.21,0,0,1,1.88,7,18.18,18.18,0,0,1-1.43,9,11.87,11.87,0,0,1-8.65,7.32,17.43,17.43,0,0,1-9.5-.28A4.35,4.35,0,0,0,8.23,30.85Z"/>
      <path class="cls-1" d="M64.71,30.91V22.07c0-.5,0-1,0-1.52a2.3,2.3,0,0,1,1.2-1.81A4.53,4.53,0,0,1,71,19a11.42,11.42,0,0,1,2.38,2.53,6.26,6.26,0,0,0,8.77,1.13A6.74,6.74,0,0,0,84.4,19,10.37,10.37,0,0,0,84,12.53a6.51,6.51,0,0,0-2.65-3.18c-1.88-1.16-5.64-1-7.32.92-.76.88-1.52,1.76-2.32,2.6a4.87,4.87,0,0,1-3.12,1.61,4,4,0,0,1-3.36-1.16,2.43,2.43,0,0,1-.61-2.19c.77-5.06,3.45-8.6,8.39-10.27A19.88,19.88,0,0,1,77,.1,14.39,14.39,0,0,1,83.69,1,12.72,12.72,0,0,1,90,6.29,17.29,17.29,0,0,1,92.55,13,18.09,18.09,0,0,1,90,26.48a12.26,12.26,0,0,1-7.29,4.78,20.42,20.42,0,0,1-6.33.35,16.9,16.9,0,0,1-3.09-.67c-.32-.08-.45,0-.45.3V45.11c0,.24,0,.48,0,.72,0,1-.43,1.28-1.37,1.15a9.94,9.94,0,0,1-3.17-.72,6,6,0,0,1-3.51-5.49c-.08-1.71,0-3.42,0-5.13Z"/>
      <path class="cls-1" d="M106.31,30.85V45c0,.27,0,.55,0,.82,0,.95-.43,1.28-1.37,1.15a10.35,10.35,0,0,1-3.36-.82,6.11,6.11,0,0,1-3.34-5.08,7.48,7.48,0,0,1,0-.82c0-6.37,0-12.74,0-19.12a2.55,2.55,0,0,1,1.08-2.3,4.27,4.27,0,0,1,3.22-.71A6,6,0,0,1,106,20.37c.38.43.7.92,1.07,1.37a5.72,5.72,0,0,0,3.74,2.12,6.37,6.37,0,0,0,3.69-.43A6.09,6.09,0,0,0,117.58,20a9.08,9.08,0,0,0,.72-3.6A8.3,8.3,0,0,0,115.76,10a5.35,5.35,0,0,0-3-1.31,7.2,7.2,0,0,0-3,.23A5.58,5.58,0,0,0,106.93,11a15.31,15.31,0,0,1-2.31,2.45,4.57,4.57,0,0,1-5.34.28,2.5,2.5,0,0,1-1-1.91,7.17,7.17,0,0,1,.52-3.31,13.73,13.73,0,0,1,2.89-4.69A12.34,12.34,0,0,1,108.37.4,16.74,16.74,0,0,1,112,0a13.21,13.21,0,0,1,11.09,5.6,17.59,17.59,0,0,1,2.91,7,17.6,17.6,0,0,1,.39,4.58,19.63,19.63,0,0,1-1.56,7,12.22,12.22,0,0,1-9.59,7.34A18.41,18.41,0,0,1,106.31,30.85Z"/>
      <path class="cls-1" d="M49.74,17.64H41.32c-.32,0-.41.2-.38.48,0,.07,0,.14,0,.21a7.08,7.08,0,0,0,3.55,5,6,6,0,0,0,3.59.6,12.54,12.54,0,0,0,5.38-1.86c1-.61,1.36-.53,2.08.39q1.25,1.64,2.43,3.3a1.21,1.21,0,0,1-.23,1.74,17.06,17.06,0,0,1-8.51,3.75,17.47,17.47,0,0,1-7.67-.78A12.2,12.2,0,0,1,35.39,26a15.51,15.51,0,0,1-2.74-6.77A17.55,17.55,0,0,1,34.28,8.13a12.86,12.86,0,0,1,8.41-6.7A18.13,18.13,0,0,1,46.63.84a13.2,13.2,0,0,1,7.84,1.92A10.34,10.34,0,0,1,58.8,8.44a16.05,16.05,0,0,1,.67,7.28c0,.24,0,.48,0,.72a1.16,1.16,0,0,1-1.06,1.18,4.47,4.47,0,0,1-.82,0H49.74Zm-3.51-4.93h4.1c1.23,0,1.25,0,1-1.24a3.58,3.58,0,0,0-2.25-3,5.83,5.83,0,0,0-3.23-.21,5.91,5.91,0,0,0-4.45,3.56c-.4.83-.4.84.48.85Z"/>
      <path class="cls-1" d="M148.37,17.64h-8.32c-.6,0-.61,0-.47.65a7.62,7.62,0,0,0,2.1,4,6,6,0,0,0,5.19,1.62A12,12,0,0,0,152,22.12a2.42,2.42,0,0,1,.45-.24c.6-.26,1-.24,1.38.27,1,1.24,1.9,2.5,2.8,3.79a1,1,0,0,1-.2,1.47,15.75,15.75,0,0,1-1.48,1.1,15.32,15.32,0,0,1-6,2.59,17.1,17.1,0,0,1-5.3.19,16,16,0,0,1-5.46-1.63,12.68,12.68,0,0,1-5.59-5.94,17,17,0,0,1-1.7-8A16.22,16.22,0,0,1,135.09,5,12.59,12.59,0,0,1,139,2.24,15.19,15.19,0,0,1,144.94.85a13.46,13.46,0,0,1,8.32,2,10.57,10.57,0,0,1,4,5.29,15.68,15.68,0,0,1,.86,4.4c.08,1.2-.06,2.38-.08,3.56s-.44,1.51-1.6,1.51Zm-3.47-4.93h4.62c.3,0,.54-.05.54-.44a3.94,3.94,0,0,0-2.22-3.73,6.38,6.38,0,0,0-2.21-.34A6.14,6.14,0,0,0,140,12c-.25.54-.17.66.43.66C141.89,12.72,143.39,12.71,144.9,12.71Z"/>
      <path class="cls-1" d="M163.81,16V3.07c0-.21,0-.41,0-.62A1.12,1.12,0,0,1,165,1.23c.92,0,1.85,0,2.77,0a1.8,1.8,0,0,1,2,1.34c.1.4.29.48.65.26A12.83,12.83,0,0,1,177.91,1c1.13.05,2.25.11,3.37.23.84.09,1.21.6,1,1.33-.54,1.73-1.14,3.43-1.67,5.16a1.24,1.24,0,0,1-1.39.94c-.92-.05-1.84-.17-2.76-.19a5.5,5.5,0,0,0-3.52,1.18,2.45,2.45,0,0,0-1.06,2.08c0,5.79,0,11.57,0,17.36,0,.24,0,.48,0,.72,0,.88-.38,1.23-1.27,1.24-1.82,0-3.63,0-5.44,0-1,0-1.35-.35-1.36-1.36,0-2.81,0-5.61,0-8.42Z"/>
      <path class="cls-1" d="M41.67,60a8.79,8.79,0,0,1,3.38-1.94,7.65,7.65,0,0,1,5.49.39,6.8,6.8,0,0,1,1.77,1.36c.32.31.46.27.73,0a8,8,0,0,1,3.18-1.8,7.9,7.9,0,0,1,5.4.38,5.09,5.09,0,0,1,2.93,4.06A12.56,12.56,0,0,1,64.79,65c0,3,0,6,0,9,0,.17,0,.35,0,.52a.59.59,0,0,1-.6.68,11.21,11.21,0,0,1-1.64,0,.73.73,0,0,1-.7-.75c0-.24,0-.48,0-.72,0-2.88,0-5.75,0-8.63a7.28,7.28,0,0,0-.38-2.41,3,3,0,0,0-2.19-2.11,5.06,5.06,0,0,0-5.53,1.73,1.22,1.22,0,0,0-.24,1.05c.06.54.15,1.08.16,1.63,0,3,0,6,0,8.93a2.46,2.46,0,0,1,0,.61,1,1,0,0,1-.29.51A3.23,3.23,0,0,1,51,75a.78.78,0,0,1-.24-.42,4.33,4.33,0,0,1,0-.72c0-2.47,0-4.93,0-7.39a26.77,26.77,0,0,0-.2-3,3.42,3.42,0,0,0-3.39-3.08,5.31,5.31,0,0,0-4.48,2.06,1.57,1.57,0,0,0-.28,1.16v10c0,.24,0,.48,0,.72,0,.61-.26.84-.9.88-.3,0-.61,0-.92,0-1,0-1.13-.14-1.23-1.09a7.42,7.42,0,0,1,0-.82V59.85a3.71,3.71,0,0,1,0-.82c.08-.37,0-.86.6-.92.76-.08,1,0,1.3.68C41.38,59.17,41.5,59.56,41.67,60Z"/>
      <path class="cls-1" d="M117.27,67.19h-5.14c-.7,0-.77.1-.61.79a6.49,6.49,0,0,0,1.88,3.56,5.27,5.27,0,0,0,4.36,1.3,8.13,8.13,0,0,0,3.69-1.43c.61-.42.69-.38,1.17.19,1,1.24,1,1.3-.32,2.27a8.43,8.43,0,0,1-4,1.48,9.53,9.53,0,0,1-5.59-.85,6.85,6.85,0,0,1-3.27-3.42,10,10,0,0,1,.48-9.79,7.22,7.22,0,0,1,5.56-3.41,8.65,8.65,0,0,1,4.61.54,5.9,5.9,0,0,1,3.43,4.44,7.35,7.35,0,0,1,.1,3.46c-.17.71-.28.82-1,.86-.21,0-.41,0-.62,0Zm-5.74-2.26H118c.76,0,1.51,0,2.26,0,.45,0,.59-.18.6-.61a3.52,3.52,0,0,0-2.51-3.68,5.19,5.19,0,0,0-4.53.56A5.66,5.66,0,0,0,111.53,64.93Z"/>
      <path class="cls-1" d="M77.34,57.9a7.71,7.71,0,0,1,4.15,1,7.12,7.12,0,0,1,3.14,3.28,10,10,0,0,1-.06,9.18,7.13,7.13,0,0,1-4.94,3.84,9.9,9.9,0,0,1-5.75-.28,7.42,7.42,0,0,1-4.45-4.4,8.91,8.91,0,0,1-.72-3.18c-.09-3.41.92-6.35,3.92-8.31A8.41,8.41,0,0,1,77.34,57.9Zm-5.57,8.6c0,.37,0,.75,0,1.13a5.36,5.36,0,0,0,4.52,5.2,5.21,5.21,0,0,0,5.6-2.69A8.21,8.21,0,0,0,82.53,65a5.2,5.2,0,0,0-5.83-4.53,4.66,4.66,0,0,0-3.13,1.33A6.28,6.28,0,0,0,71.77,66.5Z"/>
      <path class="cls-1" d="M134.75,71.07c.66-1.63,1.29-3.21,1.92-4.78,1-2.38,1.93-4.75,2.86-7.14a1.36,1.36,0,0,1,1.54-1c.41,0,.82,0,1.23,0,.78,0,.92.24.63.95-.56,1.36-1.14,2.71-1.71,4.06L135,77.77c-.51,1.2-1,2.38-1.52,3.59-.18.43-.41.71-.88.73s-1.22,0-1.82,0-.6-.22-.47-.68a6.91,6.91,0,0,1,.37-1c.67-1.57,1.33-3.15,2-4.71a2.34,2.34,0,0,0,0-2c-2-4.54-3.9-9.11-5.84-13.67-.18-.41-.35-.81-.5-1.23s0-.63.37-.65a17.53,17.53,0,0,1,2,0c.47,0,.69.39.85.79l1.78,4.26,3.13,7.57A2.71,2.71,0,0,0,134.75,71.07Z"/>
      <path class="cls-1" d="M92.44,60c.64-.43,1.15-.83,1.71-1.14a8.34,8.34,0,0,1,6.95-.48,5.35,5.35,0,0,1,3.51,4,13.6,13.6,0,0,1,.44,3.24c.06,2.77,0,5.54,0,8.31,0,.18,0,.35,0,.52a.76.76,0,0,1-.78.78c-.51,0-1,0-1.54,0a.68.68,0,0,1-.68-.65c0-.44-.07-.89-.07-1.33,0-2.53,0-5.06,0-7.6a10.35,10.35,0,0,0-.3-2.42,3.29,3.29,0,0,0-2.63-2.46,5.83,5.83,0,0,0-5.61,2,1.55,1.55,0,0,0-.28,1.16q0,4.89,0,9.76c0,.24,0,.48,0,.72,0,.55-.19.73-.71.82h-.11c-1.87.22-2.13,0-2.13-1.89V59.76c0-.24,0-.48,0-.72,0-.64.15-.83.6-.91a.93.93,0,0,1,1.17.56C92.16,59.1,92.28,59.52,92.44,60Z"/>
    </g>
  </g>
</svg>