<svg xmlns="http://www.w3.org/2000/svg" viewBox="0 0 401.46 78.6">
  <defs>
    <style>.cls-1{fill:#fff;}</style>
  </defs>
  <title>mortgage works</title>
  <g id="Layer_2" data-name="Layer 2">
    <g id="Layer_1-2" data-name="Layer 1">
      <path class="cls-1" d="M10,58.23c0,1.76,0,3.35,1.61,3.35,1.88,0,3.06-1,3.72-1a.37.37,0,0,1,.38.33l.95,4.5a2.11,2.11,0,0,1,.09.49c0,1-3.45,2-6.65,2C4,67.89,4,62.35,4,57.3V45H.66C.09,45,0,44.79,0,44.18V40.61c0-.6.09-.77.66-.77H4V32.93c0-.72.09-.88.75-1l4.16-.66c.14,0,.33-.05.61-.05.43,0,.47.27.47.93v7.68h5.38c.47,0,.85.11.85.55a2.13,2.13,0,0,1-.1.55l-.66,3.24c-.14.71-.42.77-.89.77H10Z"/>
      <path class="cls-1" d="M43.18,66.19c0,.6-.1.77-.67.77H34.78c-.57,0-.66-.17-.66-.77V49.28c0-2.08-.24-4.61-2.65-4.61-2,0-3.44,1.65-4,2.31V61.85h2.4c.57,0,.66.17.66.77v3.57c0,.6-.09.77-.66.77H19c-.57,0-.66-.17-.66-.77V62.62c0-.6.09-.77.66-.77h2.4V32.71H19.07c-.57,0-.66-.17-.66-.77V28.37c0-.6.09-.76.66-.76h7.69c.56,0,.66.16.66.76V42c1.27-1.21,3.16-3.13,6.55-3.13,5,0,6.14,3.9,6.14,8.67V61.85h2.4c.57,0,.67.17.67.77Z"/>
      <path class="cls-1" d="M56.37,50.16c0-2.24-.14-6.15-3.39-6.15-3.69,0-3.87,4.62-4,6.15ZM49,55.27c0,3.07.76,6.86,5.19,6.86,3.4,0,5.33-1.81,6-1.81a.66.66,0,0,1,.53.44l1.17,3.29a2.18,2.18,0,0,1,.15.61c0,1.42-4.72,3.23-8.45,3.23C47.31,67.89,43,63.78,43,53.68,43,45,47,38.91,53.3,38.91c8,0,9.44,8.34,9.44,15,0,1-.19,1.37-1.09,1.37Z"/>
      <path class="cls-1" d="M107.7,66.19c0,.6-.09.77-.66.77H99.3c-.56,0-.66-.17-.66-.77V49.28c0-2.08-.19-4.61-2-4.61-2,0-3.44,1.6-4.06,2.25V61.85H95c.57,0,.66.17.66.77v3.57c0,.6-.09.77-.66.77H87.27c-.57,0-.66-.17-.66-.77V49.28c0-2.08-.19-4.61-2-4.61-2,0-3.44,1.6-4.06,2.25V61.85H83c.57,0,.66.17.66.77v3.57c0,.6-.09.77-.66.77H72.18c-.57,0-.67-.17-.67-.77V62.62c0-.6.1-.77.67-.77h2.4V49.62A15.78,15.78,0,0,0,74.11,45H71.85c-.57,0-.66-.22-.66-.77V40.61c0-.6.09-.76.66-.76h6.56c1.13,0,1.27,1.64,1.5,2.85,1.42-1.43,3.49-3.79,7.22-3.79a5.1,5.1,0,0,1,4.81,3.79c1.42-1.43,3.45-3.79,7.22-3.79,4.43,0,5.48,3.9,5.48,8.67V61.85H107c.57,0,.66.17.66.77Z"/>
      <path class="cls-1" d="M121.48,53.4c0-5.11-.62-9-3.87-9s-3.87,3.89-3.87,9,.57,9,3.87,9,3.87-3.84,3.87-9m-3.87,14.49c-6.37,0-10.24-5.65-10.24-14.49s3.87-14.49,10.24-14.49,10.24,5.66,10.24,14.49S124,67.89,117.61,67.89"/>
      <path class="cls-1" d="M140.43,66.19c0,.6-.1.77-.66.77h-11c-.57,0-.66-.17-.66-.77V62.62c0-.6.09-.77.66-.77h2.41V49.62a17.2,17.2,0,0,0-.48-4.67h-2.26c-.57,0-.66-.17-.66-.77V40.61c0-.6.09-.76.66-.76h6.13c1.23,0,1.42,2,1.75,3.4.89-1.26,2.64-4.34,5.85-4.34,1.36,0,2.73.55,2.73,1.26a1.53,1.53,0,0,1-.09.55l-1.46,4.61c-.05.17-.19.5-.38.5a7.85,7.85,0,0,0-2.22-.61c-1.46,0-3,1.87-3.58,2.64v14h2.55c.56,0,.66.17.66.77Z"/>
      <path class="cls-1" d="M156,58.23c0,1.76,0,3.35,1.6,3.35,1.89,0,3.08-1,3.73-1a.37.37,0,0,1,.38.33l.94,4.5a1.69,1.69,0,0,1,.09.49c0,1-3.44,2-6.64,2C150,67.89,150,62.35,150,57.3V45h-3.35c-.57,0-.66-.16-.66-.77V40.61c0-.6.09-.77.66-.77H150V32.93c0-.72.09-.88.76-1l4.15-.66c.14,0,.33-.05.61-.05s.47.27.47.93v7.68h5.38c.47,0,.85.11.85.55a2.13,2.13,0,0,1-.1.55l-.66,3.24c-.14.71-.43.77-.9.77H156Z"/>
      <path class="cls-1" d="M175.89,46.32a4.93,4.93,0,0,0-3.72-1.65c-2.83,0-4.06,3.08-4.06,8.35,0,5,.94,8.12,3.78,8.12a5.05,5.05,0,0,0,4-1.86Zm5.66,10c0,3.62.24,9.28.24,12.35,0,6-2.55,9.94-9.1,9.94-3.68,0-9.77-1.76-9.77-2.91a3.43,3.43,0,0,1,.19-1.1l.89-3.35c.11-.38.29-.55.53-.55.56,0,3.44,2.14,7.64,2.14,3.3,0,3.87-1.59,3.87-4.67,0-1.92-.15-3.23-.15-3.62a8.58,8.58,0,0,1-5.7,2.09c-5.28,0-8.07-5.16-8.07-13.39,0-8.84,3.3-14.33,8.92-14.33a7,7,0,0,1,5.61,2.58c.14-.49,1-2.58,1.65-2.58a1.45,1.45,0,0,1,.48.11l3.68,1.59c.18.11.42.28.42.5,0,.71-1.33,2.68-1.33,7Z"/>
      <path class="cls-1" d="M195.9,54.66c-1.18,0-6.66-.44-6.66,4.4,0,2.14,1.33,3.73,3.12,3.73s3-1.43,3.54-2.09Zm5.66,2.58a17.87,17.87,0,0,0,.47,4.61h2c.52,0,.66.17.66.77v3.57c0,.6-.1.77-.66.77h-5.9c-1.13,0-1.23-1.37-1.41-2.36a7.51,7.51,0,0,1-6.09,3.29c-4.33,0-7.08-3.29-7.08-8.45,0-9.28,8.59-9.28,12.32-9.28v-1.7c0-2.47-.38-4.06-3.35-4.06-2.64,0-5.24,1.65-5.85,1.65-.23,0-.42-.34-.48-.55l-.94-3.35a3.11,3.11,0,0,1-.14-.66c0-1.26,4.68-2.58,8.3-2.58,5.9,0,8.12,3.13,8.12,8.84Z"/>
      <path class="cls-1" d="M218.07,46.32a5,5,0,0,0-3.73-1.65c-2.83,0-4.05,3.08-4.05,8.35,0,5,.94,8.12,3.76,8.12a5.1,5.1,0,0,0,4-1.86Zm5.66,10c0,3.62.24,9.28.24,12.35,0,6-2.55,9.94-9.11,9.94-3.68,0-9.76-1.76-9.76-2.91a3.39,3.39,0,0,1,.18-1.1l.9-3.35c.09-.38.28-.55.52-.55.57,0,3.44,2.14,7.64,2.14,3.31,0,3.87-1.59,3.87-4.67,0-1.92-.14-3.23-.14-3.62a8.62,8.62,0,0,1-5.71,2.09c-5.29,0-8.07-5.16-8.07-13.39,0-8.84,3.3-14.33,8.91-14.33a7,7,0,0,1,5.62,2.58c.15-.49,1-2.58,1.65-2.58A1.45,1.45,0,0,1,221,39l3.67,1.59c.2.11.42.28.42.5,0,.71-1.31,2.68-1.31,7Z"/>
      <path class="cls-1" d="M239.1,50.16c0-2.24-.14-6.15-3.4-6.15-3.69,0-3.87,4.62-4,6.15Zm-7.41,5.11c0,3.07.75,6.86,5.19,6.86,3.4,0,5.33-1.81,6-1.81.23,0,.42.22.52.44l1.18,3.29a2.19,2.19,0,0,1,.14.61c0,1.42-4.72,3.23-8.45,3.23-6.22,0-10.56-4.11-10.56-14.21,0-8.73,4-14.77,10.33-14.77,8,0,9.44,8.34,9.44,15,0,1-.2,1.37-1.09,1.37Z"/>
      <path class="cls-1" d="M277,67.12c-.19.72-.28.77-.89.77H272.4c-.61,0-.75-.32-.84-.87l-2.31-14.39c-.29-1.75-.53-4.61-.62-6.14h-.1c-.09,1.53-.56,4.39-.84,6.14L264.85,67c-.09.55-.23.87-.85.87h-3.67c-.62,0-.71,0-.9-.77l-5-22.17H253c-.56,0-.65-.16-.65-.77V40.61c0-.6.09-.76.65-.76h5.67c.61,0,.7.16.85.82l2.08,11.63c.51,2.69.79,6.26,1,9.28h.09c.05-2.09.58-6.53.9-8.56l2.17-12.3c.15-.82.19-.87.89-.87h4.2c.72,0,.76,0,.9.87L273.82,53a83.84,83.84,0,0,1,.89,8.56h.1a89.77,89.77,0,0,1,1-9.28l2.31-11.63c.14-.66.24-.82.85-.82h5.18c.57,0,.67.16.67.76v3.57c0,.61-.1.77-.67.77h-1.5Z"/>
      <path class="cls-1" d="M298.69,53.4c0-5.11-.61-9-3.87-9s-3.87,3.89-3.87,9,.57,9,3.87,9,3.87-3.84,3.87-9m-3.87,14.49c-6.37,0-10.24-5.65-10.24-14.49s3.87-14.49,10.24-14.49,10.24,5.66,10.24,14.49-3.87,14.49-10.24,14.49"/>
      <path class="cls-1" d="M317.69,66.19c0,.6-.09.77-.67.77H306.09c-.58,0-.67-.17-.67-.77V62.62c0-.6.09-.77.67-.77h2.4V49.62A17.77,17.77,0,0,0,308,45h-2.27c-.56,0-.66-.17-.66-.77V40.61c0-.6.1-.76.66-.76h6.13c1.23,0,1.42,2,1.75,3.4.9-1.26,2.65-4.34,5.85-4.34,1.37,0,2.73.55,2.73,1.26a1.53,1.53,0,0,1-.09.55l-1.46,4.61c0,.17-.19.5-.38.5a7.75,7.75,0,0,0-2.21-.61c-1.47,0-3,1.87-3.59,2.64v14H317c.58,0,.67.17.67.77Z"/>
      <path class="cls-1" d="M345.38,66.19c0,.6-.1.77-.66.77h-5.85c-.52,0-.57,0-.9-.55l-8.11-12.85h-.09v8.29h2.4c.57,0,.66.17.66.77v3.57c0,.6-.09.77-.66.77H321.36c-.56,0-.65-.17-.65-.77V62.62c0-.6.09-.77.65-.77h2.41V32.71h-2.35c-.57,0-.66-.17-.66-.77V28.37c0-.6.09-.76.66-.76h7.69c.56,0,.66.16.66.76V50.65l5.89-5.59V45h-1.93c-.57,0-.66-.17-.66-.77V40.61c0-.6.09-.76.66-.76h10.43c.56,0,.65.16.65.76v3.57c0,.6-.09.77-.65.77H341.7l-6.65,6.59,7.36,10.31h2.31c.56,0,.66.17.66.77Z"/>
      <path class="cls-1" d="M357.43,44.35a17.17,17.17,0,0,0-1.8-.17c-1.8,0-3.12.77-3.12,2.75,0,3.07,4.25,2.85,7.6,5.43a8,8,0,0,1,3.16,6.7c0,5-3.07,8.83-8.07,8.83-2.78,0-8.34-1.37-8.34-3.18v-6c0-.61.14-.77.65-.77h3.21c.62,0,.67.22.67,1v2.7a8.45,8.45,0,0,0,3.34.76,2.57,2.57,0,0,0,2.88-2.74c0-3.18-4.62-3.18-7.73-5.6a7.44,7.44,0,0,1-2.78-6.2c0-5,3.24-9,8.34-9,2.46,0,6.51.77,6.51,2.52v5.66c0,.6-.09.77-.61.77h-3.26c-.52,0-.65-.17-.65-.77Z"/>
      <polygon class="cls-1" points="375.11 16.68 355.17 15.84 371.52 25.07 375.58 22.97 368.52 19.55 376.79 19.95 381.29 12.99 379.94 20.73 384.02 18.65 386.06 0 375.11 16.68"/>
      <polygon class="cls-1" points="401.46 29.47 385.12 20.25 381.05 22.35 388.13 25.77 379.85 25.37 379.85 25.37 379.84 25.37 375.35 32.33 376.69 24.58 372.62 26.67 370.58 45.33 381.52 28.64 401.46 29.47"/>
    </g>
  </g>
</svg>