<svg xmlns="http://www.w3.org/2000/svg" viewBox="0 0 96.57 111.09">
  <defs>
    <style>.cls-1{fill:#fff;}</style>
  </defs>
  <title>Kensington</title>
  <g id="Layer_2" data-name="Layer 2">
    <g id="Layer_1-2" data-name="Layer 1">
      <path class="cls-1" d="M.19,80.78V.22H39.1V27.65l.17,0,1-2Q46.23,14.1,52.13,2.53c.32-.61.66-1.73.94-2.36H93.58S92.45,2.3,91.9,3.31q-8,14.87-16,29.72A39.25,39.25,0,0,1,67,44.68a23.79,23.79,0,0,1-18.12,5.61A18.45,18.45,0,0,1,37,44.82a32.86,32.86,0,0,1-5.21-7.33c-.74-1.35-1.45-2.73-2.24-4A10.38,10.38,0,1,0,18.21,48.86c2.25.55,4.56.82,6.85,1.22C31.79,51.24,36.94,54.67,39.69,61c4,9.65-2.77,19.77-2.77,19.77S.38,80.8.19,80.78Z"/>
      <path class="cls-1" d="M93.63,80.74l-43.54.06a1.82,1.82,0,0,1-.54-.69A18.37,18.37,0,0,1,62.85,54,20,20,0,0,1,80.11,59.2a38.08,38.08,0,0,1,7.63,10.23C89.74,73.12,93.63,80.74,93.63,80.74Z"/>
      <path class="cls-1" d="M57.5,107.9h.13c.67,0,1.33,0,2,0,.09,0,.14,0,.16.12a1.76,1.76,0,0,0,1.53,1.32,4.33,4.33,0,0,0,1.48,0,2.33,2.33,0,0,0,1.49-.77,2.1,2.1,0,0,0,.45-1,2.88,2.88,0,0,0,.07-.59c0-.52,0-1.05,0-1.6l-.06.08a3.62,3.62,0,0,1-2.54,1.63,4.06,4.06,0,0,1-3.26-.9,4,4,0,0,1-1.06-1.38,5.45,5.45,0,0,1-.47-2.7,5,5,0,0,1,.66-2.29A4.16,4.16,0,0,1,61,97.79a5.16,5.16,0,0,1,1.36,0,3.24,3.24,0,0,1,1.18.36,3.54,3.54,0,0,1,1.19,1.12l.09.14V97.94H67v.13c0,2.9,0,5.8,0,8.71a4.9,4.9,0,0,1-.39,2,3.39,3.39,0,0,1-1,1.26,4.93,4.93,0,0,1-2.23.92,8.68,8.68,0,0,1-2.16.06,5.22,5.22,0,0,1-2-.54,3.25,3.25,0,0,1-1.69-2.12C57.56,108.23,57.54,108.07,57.5,107.9Zm2.17-5.42A3.88,3.88,0,0,0,60,104a2.33,2.33,0,0,0,1.19,1.24,2.52,2.52,0,0,0,1.53.2,2.43,2.43,0,0,0,2-1.6,3.29,3.29,0,0,0,.22-1.28,3.8,3.8,0,0,0-.32-1.76,2.21,2.21,0,0,0-1.16-1.09,3,3,0,0,0-1.65-.16A2.26,2.26,0,0,0,60,100.86,3.75,3.75,0,0,0,59.67,102.48Z"/>
      <path class="cls-1" d="M10.11,94.37l-5.44,6.29,5.72,6.88H7.62a.23.23,0,0,1-.19-.09q-2.41-3-4.85-5.89l-.13-.16v6.13H0V94.39H2.45v5.92h0c.11-.14.23-.27.34-.4l3.8-4.51.82-1a.2.2,0,0,1,.13-.08h2.55Z"/>
      <path class="cls-1" d="M20.07,103.22H13c0,.17,0,.34.05.5a3.13,3.13,0,0,0,.43,1.29,2.1,2.1,0,0,0,1.25.93,3.44,3.44,0,0,0,2,0,1.61,1.61,0,0,0,1.13-1.18l0-.15H20a3.64,3.64,0,0,1-.32,1.08,3.31,3.31,0,0,1-1.9,1.68,6.29,6.29,0,0,1-2.65.35,5.06,5.06,0,0,1-1.94-.53A4.32,4.32,0,0,1,11,104.6a5.57,5.57,0,0,1-.26-1.52,7.15,7.15,0,0,1,.12-1.6,4.83,4.83,0,0,1,.8-1.86A4.39,4.39,0,0,1,13.94,98a5.1,5.1,0,0,1,2.23-.2,4.8,4.8,0,0,1,1.69.51,3.9,3.9,0,0,1,1.5,1.46,4.51,4.51,0,0,1,.63,1.88C20.05,102.14,20.05,102.67,20.07,103.22Zm-7-1.5h4.82a3.53,3.53,0,0,0-.3-1.25,1.73,1.73,0,0,0-1-.94A2.75,2.75,0,0,0,15,99.39a2.1,2.1,0,0,0-1,.45,2.58,2.58,0,0,0-.79,1.19C13.14,101.25,13.1,101.48,13,101.72Z"/>
      <path class="cls-1" d="M85.87,102.72a5.4,5.4,0,0,1-.36,2,4.49,4.49,0,0,1-1.68,2.14,4.93,4.93,0,0,1-2.26.81,5.31,5.31,0,0,1-2.94-.45,4.37,4.37,0,0,1-2.31-2.48A6,6,0,0,1,76,102a4.88,4.88,0,0,1,.83-2.24A4.46,4.46,0,0,1,79,98.08a5.24,5.24,0,0,1,2.6-.3,4.62,4.62,0,0,1,4.08,3.47,5.17,5.17,0,0,1,.11.54C85.83,102.1,85.85,102.41,85.87,102.72Zm-7.61,0a4,4,0,0,0,.49,2.12,2.19,2.19,0,0,0,1.29,1,3.2,3.2,0,0,0,1.41.09,2.21,2.21,0,0,0,1.25-.61,2.91,2.91,0,0,0,.74-1.34,5.75,5.75,0,0,0,.11-1.85,3.4,3.4,0,0,0-.45-1.52,2.38,2.38,0,0,0-1-.94,2.81,2.81,0,0,0-1.59-.2A2.34,2.34,0,0,0,78.57,101,4.36,4.36,0,0,0,78.26,102.72Z"/>
      <path class="cls-1" d="M30.74,107.54H28.52v-6a2.83,2.83,0,0,0-.21-1,1.42,1.42,0,0,0-1.08-.84,2.71,2.71,0,0,0-1.66.16,2,2,0,0,0-1.19,1.63,3.32,3.32,0,0,0,0,.55v5.56H22.13v-9.6h2.21v1.5l.25-.37a3.22,3.22,0,0,1,2.12-1.29A4.08,4.08,0,0,1,29,98a2.7,2.7,0,0,1,1.45,1.48,5.09,5.09,0,0,1,.35,2v6A.38.38,0,0,1,30.74,107.54Z"/>
      <path class="cls-1" d="M90.17,107.55H88V97.94h2.22v1.47h0l.21-.32A3.21,3.21,0,0,1,91.84,98a3.94,3.94,0,0,1,1.77-.23,3.45,3.45,0,0,1,1.17.28,2.62,2.62,0,0,1,1.44,1.48,5.06,5.06,0,0,1,.35,2v6H94.34v-6a2.51,2.51,0,0,0-.2-1,1.43,1.43,0,0,0-1.09-.84,2.63,2.63,0,0,0-1.66.16,2,2,0,0,0-1.19,1.63,5.07,5.07,0,0,0,0,.55v5.56Z"/>
      <path class="cls-1" d="M46.78,97.94H49v1.51l.06-.08A3.09,3.09,0,0,1,50.67,98a3.82,3.82,0,0,1,1.77-.23,3.76,3.76,0,0,1,1.19.28,2.75,2.75,0,0,1,1.27,1.16,3.83,3.83,0,0,1,.47,1.65q0,.43,0,.87v5.84H53.18v-5.78a3.4,3.4,0,0,0-.13-1,1.46,1.46,0,0,0-1.28-1.09,2.59,2.59,0,0,0-1.58.19,1.92,1.92,0,0,0-1.14,1.56,5.46,5.46,0,0,0,0,.8v5.37H46.78Z"/>
      <path class="cls-1" d="M40.23,100.61h-2a4.94,4.94,0,0,0-.19-.49,1.25,1.25,0,0,0-1-.74,2.48,2.48,0,0,0-1.21.05,1.07,1.07,0,0,0-.78,1.45.9.9,0,0,0,.57.49,5.74,5.74,0,0,0,1.28.33,11.28,11.28,0,0,1,1.83.41,2.84,2.84,0,0,1,1.41,1,2.28,2.28,0,0,1,.38,1,3.9,3.9,0,0,1,0,1.32,2.62,2.62,0,0,1-1.57,2,4.82,4.82,0,0,1-1.83.4,6,6,0,0,1-2.33-.28,2.92,2.92,0,0,1-1.88-1.81,3.22,3.22,0,0,1-.2-1.07h2.09c0,.12,0,.25.08.37a1.59,1.59,0,0,0,.55.86,1.49,1.49,0,0,0,.71.26,3.55,3.55,0,0,0,1.3,0,1.14,1.14,0,0,0,.91-1.62.92.92,0,0,0-.45-.44,5.18,5.18,0,0,0-1.34-.4,11.64,11.64,0,0,1-1.75-.39,3.21,3.21,0,0,1-1.28-.73,2.2,2.2,0,0,1-.58-1.25,3.51,3.51,0,0,1,0-1.12,2.4,2.4,0,0,1,.55-1.13,3.28,3.28,0,0,1,1.81-1.07,5.23,5.23,0,0,1,3.13.17A2.69,2.69,0,0,1,40,99.62,4.77,4.77,0,0,1,40.23,100.61Z"/>
      <path class="cls-1" d="M74.46,97.93V99.6H72.35v5a1.75,1.75,0,0,0,.13.75.93.93,0,0,0,.87.54,2.79,2.79,0,0,0,1.11-.15l.08,0v1.63c0,.09,0,.13-.1.16a4.69,4.69,0,0,1-1.78.18,3.28,3.28,0,0,1-1.15-.27,2.3,2.3,0,0,1-1.28-1.64,4.41,4.41,0,0,1-.1-1V99.61H68.85V97.94h1.28V95.83h2.21v2.1Z"/>
      <path class="cls-1" d="M44.82,107.54H42.61V97.93h2.21Z"/>
      <path class="cls-1" d="M43.69,93.78a1.28,1.28,0,1,1-1.32,1.28A1.29,1.29,0,0,1,43.69,93.78Z"/>
    </g>
  </g>
</svg>