<svg xmlns="http://www.w3.org/2000/svg" viewBox="0 0 179.43 74.83">
  <defs>
    <style>.cls-1{fill:#fff;}</style>
  </defs>
  <title>Virgin Money</title>
  <g id="Layer_2" data-name="Layer 2">
    <g id="Layer_1-2" data-name="Layer 1">
      <path class="cls-1" d="M37.41,0A37.42,37.42,0,1,0,74.83,37.41,37.41,37.41,0,0,0,37.41,0ZM49,21.39a.15.15,0,0,0,0-.07s0-.07,0-.1,0,0,0-.07l0,0v0s0-.06,0-.07,0-.12,0-.13a.09.09,0,0,1,0-.07.54.54,0,0,1,.07-.13.13.13,0,0,0,0-.05.05.05,0,0,1,0,0s0,0,0,0,0,0,0-.06l.07-.08,0,0s0,0,0,0,0,0,0,0,0,0,0,0a.09.09,0,0,1,0-.05l.06,0s0,0,0-.05l.09-.07s0,0,0-.05,0,0,.06,0l0,0h0a0,0,0,0,0,0,0L50,20l0,0h0v0a.06.06,0,0,1,.05,0s0,0,0,0,0,0,0,0l.1,0,0,0s.07,0,.11,0l.05,0,.06,0a.45.45,0,0,0,.11,0,.33.33,0,0,0,.13,0,.06.06,0,0,1,.06,0h.53s0,0,0,0,0,0,.06,0l.07,0a.23.23,0,0,0,.12,0s0,0,0,0l0,0s0,0,0,.06l0,.07a.08.08,0,0,1,0,0s0,0,0,.06,0,0,0,0,0,0,0,.06,0,.05,0,.08,0,.11,0,.13,0,0,0,0,0,0,0,0,0,0,0,.07a.06.06,0,0,0,0,0s0,0,0,0v0s0,.05-.06.08a.61.61,0,0,0,0,.12s0,.07,0,.1v.05l0,0s0,0,0,.06l0,.05s0,0,0,.05,0,0,0,.05,0,0,0,.05,0,0,0,.06-.08,0-.11.08a.71.71,0,0,1-.1.14.74.74,0,0,0-.12.13.41.41,0,0,1-.07.11.61.61,0,0,0-.07.1l-.08.12a1.92,1.92,0,0,1-.22.18l-.12.08a.1.1,0,0,0,0,0s0,0,0,.05a.42.42,0,0,1-.12,0l-.09.08c0,.05-.13.06-.19.09l0,0a.13.13,0,0,1-.12,0l0,0h-.07c-.05,0-.07.05-.12,0a1.5,1.5,0,0,0-.2,0c-.08,0-.17,0-.24-.07a.17.17,0,0,0-.12,0,.2.2,0,0,1-.11-.06.73.73,0,0,1-.17-.18l0-.05a.15.15,0,0,1,0-.07.56.56,0,0,0,0-.12.78.78,0,0,1,0-.14s-.06-.05-.06-.1,0-.08,0-.13S49,21.42,49,21.39ZM47.2,35.55a.89.89,0,0,1,0-.23s0-.31,0-.34a.27.27,0,0,1,0-.09.38.38,0,0,1,0-.1,1.69,1.69,0,0,0,0-.23,1.48,1.48,0,0,1,0-.2.82.82,0,0,0,0-.22.71.71,0,0,1,0-.21s0-.25,0-.33v-.11s0-.07,0-.07,0,0,0,0h0s0,0,0,0,0,0,0,0,0-.06,0-.08v0s0,0,0,0a.23.23,0,0,1,0-.07s0-.18,0-.2a.07.07,0,0,0,0,0s0,0,0,0,0,0,0-.07,0-.18,0-.19,0-.1,0-.12a.31.31,0,0,1,0-.1.9.9,0,0,0,0-.22s0-.12,0-.15a.11.11,0,0,0,0-.06l0,0s0,0,0-.05a1.09,1.09,0,0,1,0-.18s0-.05,0-.11h0a0,0,0,0,0,0,0h0v0a0,0,0,0,0,0,0l0,0a0,0,0,0,1,0,0l0-.1a1.2,1.2,0,0,0,0-.19h0s0,0,0,0,0,0,0,0h0v0s0,0,0,0,0,0,0,0,0,0,0,0,0,0,0-.05a.57.57,0,0,1,0-.13.85.85,0,0,0,0-.18s0,0,0-.05h0s0,0,0,0,0,0,0-.05,0,0,0,0a.19.19,0,0,0,0-.08.57.57,0,0,0,0-.13,0,0,0,0,1,0,0s0,0,0,0a.45.45,0,0,1,0-.11s0-.06,0-.07,0-.07,0-.12v0s0,0,0-.05h0s0,0,0,0,0,0,0-.05,0,0,0,0,0,0,0,0,0,0,0,0a0,0,0,0,1,0,0h.05s0,0,0,0h0s0,0,0-.05,0,0,0,0,0,0,0,0,0,0,0,0,0,0,0,0v-.13s0-.07,0-.09a.45.45,0,0,1,0-.12s0,0,0-.06,0,0,0,0,0,0,0,0v-.06a0,0,0,0,0,0,0s0-.06,0-.07,0-.08,0-.1,0-.14,0-.16v-.06h0s0,0,0,0v0s0,0,0-.06,0,0,0-.05a.17.17,0,0,1,0-.07h0s0,0,0,0h0s0,0,0,0,0,0,0-.05h0a0,0,0,0,0,0,0s0,0,0,0,0,0,0,0a.34.34,0,0,0,0-.1.44.44,0,0,1,0-.1.28.28,0,0,1,0-.08h0v-.09a.09.09,0,0,1,0,0s0-.07,0-.08a.57.57,0,0,0,0-.13v-.05h0s0,0,0,0h0s0,0,0-.05,0,0,0,0,0,0,0,0a.45.45,0,0,0,0-.11s0,0,0-.06h0l0-.16c0-.06,0-.08,0-.09h0s0-.05,0-.05,0,0,0-.06a0,0,0,0,0,0,0s0-.06,0-.07l0,0s0,0,0,0,0,0,0,0a0,0,0,0,1,0,0s0,0,0,0a0,0,0,0,1,0,0s0,0,0,0,0,0,0,0l0-.08s0,0,0-.05l.09-.12s0,0,0-.06,0,0,0,0,0-.06,0-.07h0a.41.41,0,0,1,0-.08s.08-.09.1-.1a.87.87,0,0,1,.09-.11s0,0,0,0v0s0,0,.06,0,0,0,0,0,0,0,0,0l.13-.11s0,0,0,0a.48.48,0,0,1,.11-.09l.08,0,0,0s0,0,0,0h0s0,0,0,0,0,0,.06,0h0s0,0,0,0l.06,0h.06l0,0,0,0h0s0,0,0,0,0,0,0,0a.61.61,0,0,1,.14,0s0,0,.06,0H50s0,0,0,0h0a.12.12,0,0,0,.1,0s.06,0,.07,0l0,0h.06s0,0,0,0a0,0,0,0,0,0,0l0,0,0,0s0,0,0,0,0,0,0,0,0,0,0,0,0,0,0,0,0,0,0,.05,0,0,0,0,0,0,0,0,0,0,0,0,0,0,0,0a.13.13,0,0,1,0,.06h0v0a0,0,0,0,1,0,0s0,0,0,0,0,0,0,0,0,0,0,0a0,0,0,0,0,0,0s0,0,0,0,0,0,0,0v0l0,0h0s0,0,0,0,0,0,0,0h0a0,0,0,0,1,0,0s0,0,0,.07v0a0,0,0,0,1,0,0h0s0,0,0,0l0,0h0a.08.08,0,0,1,0,0v0h0s0,0,0,0a.43.43,0,0,1,0,.05s0,0,0,.05v0s0,.05,0,.06a0,0,0,0,0,0,0,.06.06,0,0,1,0,0s0,0,0,0l0,0s0,0,0,.05l0,0s0,0,0,0a0,0,0,0,0,0,0,0,0,0,0,1,0,0,0,0,0,0,0,0,0s0,0,0,0h0a0,0,0,0,1,0,0h0s0,0,0,0,0,0,0,0a0,0,0,0,0,0,0h0s0,0,0,0,0,0,0,0l-.07.06s0,0,0,0,0,0,0,0l0,0v0s0,0,0,0h.07a0,0,0,0,1,0,0s0,0,0,0a.42.42,0,0,0,0,.06s0,0,0,0h0s0,0,0,0,0,0,0,.05h0v0a.23.23,0,0,0,0,0s0,0,0,0l0,0s0,0,0,0,0,0,0,0,0,0,0,0h0s0,0,0,0h0s0,0,0,0h0s0,0,0,0a0,0,0,0,1,0,0,.09.09,0,0,0,0,0s0,0,0,0,0,0,0,0v0s0,0,0,0l0,0s0,0,0,0h0s0,0,0,0h0a0,0,0,0,0,0,0h.11s0,0,0,0h0s0,0,0,0,0,0,0,0,0,0,0,0,0,0,0,0,0,0,0,0h0s0,0,0,0,0,0,0,0h0s0,0,0,0,0,0,0,0,0,0,0,0,0,0,0,.05,0,0,0,.05a0,0,0,0,1,0,0s0,0,0,0h0s0,0,0,0,0,0,0,0,0,0,0,0,0,0,0,0,0,0,0,0,0,0,0,0,0,0,0,0h0s0,0,0,0h0a.33.33,0,0,0,0,.1s0,0,0,.06a.1.1,0,0,1,0,0h0v0a.11.11,0,0,1,0,.05,0,0,0,0,0,0,0s0,0,0,.06a.66.66,0,0,0,0,.14.41.41,0,0,0,0,.11s0,0,0,0h0v0s0,0,0,0,0,0,0,0l0,0a0,0,0,0,0,0,0h0s0,0,0,0,0,0,0,0h0s0,0,0,0,0,0,0,0,0,0,0,0v0h0s0,0,0,0l0,0s0,0,0,0v0h0s0,0,0,0a.37.37,0,0,1,0,.09s0,.05,0,.08,0,.09,0,.1,0,0,0,.05l0,0h0s0,0,0,0,0,0,0,0l0,0s0,.06,0,.06,0,0,0,0,0,0,0,0,0,0,0,.05,0,0,0,0,0,0,0,.06,0,.07,0,.09,0,0,0,0,0,0,0,0h0s0,0,0,0,0,0,0,0,0,0,0,.05a.07.07,0,0,0,0,.05s0,0,0,0,0,0,0,0,0,0,0,0a.05.05,0,0,1,0,0s0,0,0,.05,0,0,0,0,0,0,0,0v0s0,0,0,0a.65.65,0,0,0,0,.14s0,0,0,0,0,0,0,0,.06,0,.06.06,0,0,0,0,0,0,0,0a.14.14,0,0,0,0,.06s0,0,0,0,0,0,0,.06,0,0,0,0a.1.1,0,0,0,0,.1s0,0,0,.06a0,0,0,0,1,0,0s0,0,0,0-.07,0-.07.05a.05.05,0,0,1,0,0s0,0,0,0,0,0,0,0l0,0a.06.06,0,0,0-.07.05.39.39,0,0,0,0,.13s0,0,0,0,0,0,0,0,0,0,0,0a.44.44,0,0,0,0,.1.06.06,0,0,1,0,.06s0,0,0,0,0,0,0,.06l0,0s.08,0,.09.05l0,0s0,0,0,0,0,0,0,0l0,0a.11.11,0,0,0,0,.06s0,0,0,0h0l0,0h0s0,0,0,0,0,0,0,0,0,0,0,0,0,0,0,0a0,0,0,0,0,0,0,.05.05,0,0,0,0,0v0s0,0,0,.05h0s0,0,0,0,0,0,0,0,0,0,0,0a0,0,0,0,1,0,.06s0,0,0,0l.07,0,0,0s0,0,0,0,0,0,0,0,0,0,0,0,0,0,0,0a.32.32,0,0,0-.12-.08h0s0,0,0,0,0,0,0,.05v0s0,.06,0,.1v0l0,0s0,0,0,0a.43.43,0,0,1,0,.05.9.9,0,0,0,0,.23,1.84,1.84,0,0,0,0,.34s0,.08,0,.11-.05.15,0,.19,0,0,0,.05l0,0s0,0,0,0,0,0,0,0l0,0a.22.22,0,0,0,0,.08,1.61,1.61,0,0,1,0,.22,1.48,1.48,0,0,0,0,.21.11.11,0,0,0,0,.11.23.23,0,0,1,0,.05s0,.07,0,.1a.17.17,0,0,0,0,.07s0,0,0,0a.05.05,0,0,1,0,0,.08.08,0,0,0-.05.07s0,.05,0,.06,0,0,0,.08h0s0,.06,0,0,0,.1,0,.15,0,.11-.05.14-.08,0-.08,0a.27.27,0,0,1,0,.12.44.44,0,0,0-.08.15.94.94,0,0,1-.18.21.54.54,0,0,0-.16.14.35.35,0,0,1-.11.13s0,0-.06,0l0,0s-.06,0-.09,0-.14.1-.15.11-.06,0-.09,0,0,0,0,0h0a.57.57,0,0,0-.19.1,3.27,3.27,0,0,0-.31.17l-.31.1a.81.81,0,0,1-.22,0,.86.86,0,0,1-.21,0l-.18,0s-.06-.06-.09-.08l-.14-.11a.33.33,0,0,1-.07-.13l-.06-.18a.41.41,0,0,1,0-.19S47.2,35.59,47.2,35.55ZM31.64,33.43a1.62,1.62,0,0,1,.31,0s.09,0,.13,0l.08,0,.08,0c.07,0,.12-.06.19-.08a.59.59,0,0,0,.19,0s0-.08.09-.08a.32.32,0,0,1,.14,0,.37.37,0,0,0,.15,0s0,0,0,0-.05,0-.07,0,0,0,.1-.06v0h0s.1,0,.14,0,0-.1.08-.09,0,0,.06,0l.07,0h.08s0,0,0,0l.08-.05s0,0,0,0,0,0,.06,0,0,0,0,0h0s0,0,0,.06l0,0s0,0,0,0,0,0,0,0,.05,0,.07,0a.14.14,0,0,0,.09,0s0,0,0,0H34a.12.12,0,0,1,.08,0l.09,0h.27a.65.65,0,0,1,.2,0,.38.38,0,0,1,.1,0,.18.18,0,0,1,.07.05c.06,0,.09,0,.12.1l.06.07a.06.06,0,0,1,0,0l0,0A.25.25,0,0,0,35,33l.06,0s0,0,0,.09l0,0s0,0,0,.05l0,.06,0,0v0h0s0,0,0,0,0,0,0,0a.2.2,0,0,1,0,.08h0s0,0,0,.07a.12.12,0,0,0,0,.08s0,.07,0,.11a.18.18,0,0,0,0,.1s0,.21,0,.2a.33.33,0,0,1,0,.17l0,.06a.24.24,0,0,1,0,.08l-.07,0,0,.07a.84.84,0,0,1-.06.14c-.08,0-.12.16-.19.2l-.07,0s0,0,0,0h0a.81.81,0,0,0-.09.1l-.14.09a.2.2,0,0,0-.08,0l-.06.06,0,0,0,0-.06.06a.63.63,0,0,0-.12.11.31.31,0,0,1-.13.06s-.06.07-.08.08l-.1.07h0s0,0-.05,0,0,0,0,0l0,0h0s0,0,0,0,0,0,0,0l-.06.07-.07,0h0s0,0,0,0,0,0-.06.08l-.11.16a1.71,1.71,0,0,0-.11.14l-.11.13-.11.15a.56.56,0,0,1,0,.08.32.32,0,0,1,0,.09s0,.06-.07.09,0,.07,0,.1a.19.19,0,0,0,0,.13c0,.05,0,.06,0,.1s-.09,0-.12.09a.29.29,0,0,0,0,.09s0,0,.07,0-.05,0-.07,0a.29.29,0,0,0,0,.09.31.31,0,0,0,0,.1s0,.06,0,.09-.08.05-.09.1,0,.06,0,.09,0,.05,0,.08a.29.29,0,0,0,0,.09.38.38,0,0,0,0,.1s0,0,0,.08a.08.08,0,0,1,0,0s0,0,0,0,0,0-.05,0-.07,0-.07,0,.09.07,0,.1,0,0,0,.05,0,0,0,0,0,.07,0,.09,0,.07,0,.1,0,.08,0,.1h0s0,0,0,0l0,0a.05.05,0,0,0,0,0,.9.9,0,0,1,0,.16,1.27,1.27,0,0,0,0,.2.19.19,0,0,0,0,.08s0,0,0,.07-.05.09-.05.14a.66.66,0,0,0,0,.2s.05.14,0,.14,0,.09,0,.1a.12.12,0,0,0,0,.1,1.47,1.47,0,0,1,0,.21,1.49,1.49,0,0,0,0,.21s0,.06,0,.09a.34.34,0,0,0,0,.1s0,.07,0,.11,0,.06,0,.09,0,0,0,.07,0,.06,0,.09a.48.48,0,0,0,0,.12c0,.08,0,.16,0,.24a1.28,1.28,0,0,1,0,.19,1,1,0,0,0,0,.17s0,0,0,0,0,0-.05.05a.79.79,0,0,0,0,.13.29.29,0,0,1,0,.13s0,.1-.05.11,0,.12,0,.18a.14.14,0,0,1,0,.07s0,.06,0,.1a1.21,1.21,0,0,1,0,.19c0,.07,0,.14,0,.21a.91.91,0,0,1,0,.23l0,.12a.14.14,0,0,0,0,.06s0,0,0,0-.06.12-.08.15l-.06.15c0,.05-.06.1-.08.15s-.06.12-.09.16l-.06,0a.31.31,0,0,1,0,.06,1.53,1.53,0,0,1-.18.18l0,.05s0,.07,0,.08-.06,0-.08,0,0,0-.06,0l-.06,0s0,0-.06.05l-.07,0-.07,0,0,0h0l0,0,0,0-.06,0-.15.09s-.16,0-.17.06a.11.11,0,0,1-.08,0s-.08,0-.11,0-.1.05-.16.06H29.9l0,0h-.22s-.13-.07-.15,0l-.1,0s0,0-.09,0v0h0l-.05,0,0,0v0a.09.09,0,0,0,0-.05l0,0s-.05,0-.07-.08l0-.06a.13.13,0,0,0,0-.06s0,0,0,0,0,0,0-.05,0,0,0-.08,0,0,0-.08a.15.15,0,0,0,0-.07.67.67,0,0,1,0-.2.74.74,0,0,1,0-.21,1.48,1.48,0,0,1,0-.21,1.34,1.34,0,0,0,0-.2.46.46,0,0,1,0-.2s0-.07,0-.1,0-.07,0-.12,0,0,0-.08a.31.31,0,0,0,0-.1c0-.06.05-.09.06-.15a1.48,1.48,0,0,0,0-.21c0-.06,0-.13,0-.19a.43.43,0,0,0,0-.12s0,0,0-.07A.15.15,0,0,0,29,42h0v0a.34.34,0,0,0,0-.2l0-.08s0,0,0-.07l0-.09s0-.07,0-.11,0-.07,0-.1a.33.33,0,0,1,0-.1l0-.08,0-.09s0,0,0,0,0,0,0,0,0,0,0-.07,0-.11,0-.18-.05-.06,0-.1,0,0,.06-.08,0-.1,0-.1,0-.22,0-.24,0-.08,0-.1,0-.06,0-.09-.06-.17,0-.17a1.52,1.52,0,0,0,.06-.2s0,0,0-.08a.11.11,0,0,0,0,0s0,0,0,0,0,0,0-.05a.24.24,0,0,1,0-.12s0-.12,0-.14,0-.06,0-.08a.4.4,0,0,0,0-.11,1.46,1.46,0,0,1,0-.22,1.25,1.25,0,0,0,0-.19v-.21a1.47,1.47,0,0,0,0-.21c0-.07,0-.14,0-.21a1.37,1.37,0,0,0,0-.19s0-.06,0-.09,0-.07,0-.1,0-.25,0-.37a1.83,1.83,0,0,0,0-.33.24.24,0,0,1,0-.12s0-.1,0-.11a.24.24,0,0,1,0-.08.25.25,0,0,0,0-.09.91.91,0,0,1,0-.17c0-.13,0-.24,0-.36a1.58,1.58,0,0,1,.05-.38l.06-.24a.3.3,0,0,1,.06-.18.1.1,0,0,1,0-.09,1,1,0,0,1,.07-.18l.06-.18a1.09,1.09,0,0,0,.08-.15.25.25,0,0,1,0-.07l0,0,0,0a1.13,1.13,0,0,1,.1-.13l.12-.12a2.85,2.85,0,0,1,.26-.23l0,0,.05,0,.07,0s0,0,.06-.06l.09,0,.08,0a.32.32,0,0,0,.09,0l.07,0a1.45,1.45,0,0,1,.22-.09l.24-.07h0s.07,0,0,0,0,0,0,0a.58.58,0,0,0,.14,0Zm-11,6.11s0,0,0,0h0s0,0,0,0,0,0,0,0h0s0,0,0,0a.07.07,0,0,0,0,0s0,0,0,.05,0,0,0,0l0,0v.07h0a0,0,0,0,1,0,0V40a.05.05,0,0,1,0,0,.13.13,0,0,0,0,.06,0,0,0,0,0,0,0s0,0,0,.07v.05a.1.1,0,0,0,0,.09s0,0,0,.05h0a0,0,0,0,1,0,0,.18.18,0,0,1,0,.09s-.08.12-.06.18,0,.05,0,.09a.08.08,0,0,0,0,.09s0,0,0,.06,0,0,0,.07,0,.06,0,.09a0,0,0,0,0,0,0s0,.06,0,.09,0,0,0,0,0,.08,0,.11a.24.24,0,0,1,0,.2v0h0s0,0,0,0-.06,0-.06.07v0s0,0,0,0a.09.09,0,0,0,0,0,.43.43,0,0,0,0,.05l0,0a.08.08,0,0,1,0,0s0,0,0,0v0h0s0,0,0,0,.1,0,.07.06h-.05s0,0,0,0a.06.06,0,0,1,0,0s0,0,0,0,0,0,0,0,0,0,0,0,0,0,0,0a.25.25,0,0,0,0,.12.34.34,0,0,1,0,.1.11.11,0,0,1,0,0h0a.1.1,0,0,0,0,.09s0,.06,0,.09a.09.09,0,0,0,0,.05s0,0,0,0,0,0,0,.05,0,0,0,0,0,0,0,0l0,0s0,0,0,0l0,0v0s0,0,0,.05v0l0,0v.09s0,0,0,.05,0,0,0,.06,0,0,0,0,0,.06,0,.1a0,0,0,0,1,0,0h0s0,0,0,0,0,0,0,0v0s0,.05,0,.08,0,0,.07,0,0-.05.07,0a.08.08,0,0,0,0,0v0h0a0,0,0,0,1,0,0s0,0,0,0v0s0,0,0,0,0,0,0,0,0,0,0,.07l0,0a.09.09,0,0,1,0,0s0,0,0,.06,0,0,0,0,0,0,0,.08a.17.17,0,0,0,0,.1s0,.08,0,.1,0,0,0,0,0,0,0,0,0,0,0,0h0a0,0,0,0,0,0,0v.07s0,.06,0,.09,0,0,0,.08,0,.06,0,.1,0,0-.07,0,0,0,0,0h0s0,0,0,.08,0,0,0,0,0,0,0,0h0c0,.07,0,0-.06.09s0,0,0,.06l0,0s0,0,0,0h0v0s0,0,0,.09,0,0,0,0,0,0,0,0a.49.49,0,0,1,0,.12.34.34,0,0,0,0,.1l0,.11a.49.49,0,0,0,0,.12.25.25,0,0,0,0,.12.17.17,0,0,1,0,.12s0,.05,0,.08,0,0,0,.05,0,0,0,0,0,0,0,.05,0,0,0,0,0,0,0,0v.06s0,.07.05.09l.05,0s0,0,0,0,0,0,0,0,0,0,0,0l0,0s0,0,0,0,0,0,0,.07,0,0,0,0v0s0,0-.05,0h-.05s0,0,0,0,0,0,0,0-.07,0,0,0v0a0,0,0,0,1,0,0h0s0,0,0,0,0,.06,0,.09a.33.33,0,0,1,0,.1s0,0,0,0,0,0,0,0a.09.09,0,0,0,0,.05s0,0,0,0,0,0,0,0l0,0v.08s0,0,0,0,0,0,0,.06l0,.05s0,0,0,.06,0,0,0,.05a.68.68,0,0,0,0,.14s0,.06,0,.1a.66.66,0,0,1,0,.14s0,0,0,.06,0,0,0,.06,0,.08,0,.1h0s0,0,0,0a.09.09,0,0,1,0,.07s0,0,0,0a.15.15,0,0,1,0,.07.07.07,0,0,0,0,.05s0,.07,0,.11,0,0,0,.06,0,0,0,0,0,.07,0,.1,0,0,0,0v0h0v0a.28.28,0,0,1,0,.13.5.5,0,0,0,0,.12v.06s0,0,0,0a.57.57,0,0,0,0,.13s0,0,0,0a.06.06,0,0,0,0,.06A.32.32,0,0,1,19,50a.41.41,0,0,0,0,.11s0,.08,0,.12a.48.48,0,0,1,0,.12s0,0,0,0,0,0,0,0h0a0,0,0,0,1,0,0s0,0,0,.07,0,.08,0,.12,0,.09,0,.12,0,.07,0,.1,0,0,0,0a.11.11,0,0,0,0,0,.62.62,0,0,0,0,.13s0,0,0,.06v0s0,0,0,0,0,0,0,.05,0,0,0,0a.57.57,0,0,1,0,.13s0,0,0,.06,0,.07,0,.09h0a.24.24,0,0,0,0,.12.21.21,0,0,1,0,.11s0,.09,0,.12,0,0,0,.05,0,0,0,.06,0,.07,0,.11a.2.2,0,0,1,0,.07s0,.05,0,.06,0,0,0,0l0,0s0,0,0,0,0,.09,0,.13,0,.06,0,0v.06a.09.09,0,0,0,0,0v.05l0,0s0,0,0,0,0,0,0,.05,0,.08,0,.12a.5.5,0,0,1,0,.12.09.09,0,0,1,0,0s0,.07,0,.11,0,0,0,.06a.43.43,0,0,1,0,0s0,0,0,0v0s-.05.06,0,.11,0,.06,0,.11,0,.08,0,.12a.69.69,0,0,0,0,.13s0,0,0,0,0,0,0,0,0,0,0,.06,0,0,0,.07,0,.06,0,.08,0,0,0,0,0,0,0,0,0,0,0,0,0,0,0,.05l0,0s0,0,0,0,0,0,0,.07,0,0,0,.06,0,0,0,0,0,.07,0,.11,0,.05,0,.06,0,0,0,0,0,0,0,.05,0,0,0,0,0,0,0,0a.06.06,0,0,1,0,.06s0,.08,0,.12a.45.45,0,0,0,0,.11s0,0,0,.06v.07a.09.09,0,0,0,0,0s0,0,0,.06a.51.51,0,0,1,0,.13.28.28,0,0,0,0,.09.23.23,0,0,0,0,.12.27.27,0,0,1,0,.12s0,.07,0,.11,0,.08,0,.12,0,0,0,.05,0,0,0,0,0,0,0,.05v.07s0,.09,0,.12,0,.08,0,.12a.43.43,0,0,0,0,0s0,0,0,0,0,0,0,0a1.8,1.8,0,0,0-.05.19V57a.13.13,0,0,1,0,.06.45.45,0,0,1,0,.11.13.13,0,0,1,0,.06s0,0,0,.05,0,.08,0,.11a.13.13,0,0,1,0,.06s0,0,0,0,0,.08,0,.12a.36.36,0,0,1,0,.11s0,0,0,.08,0,0,0,0,0,0,0,0,0,0,0,0l0,.06v0l0,0s0,.06,0,.07,0,0,0,0l0,0-.08.07-.09.07,0,0,0,0-.06,0s0,0,0,0H17.2s0,0,0,0h0a1,1,0,0,0-.22.06.31.31,0,0,1-.13,0h-.07l-.06,0h-.2l-.06,0a.45.45,0,0,1-.11,0h-.09l-.06,0-.13-.05s0,0-.09,0,0,0,0,0a0,0,0,0,0,0,0l-.06,0-.07,0,0,0s0,0,0,0h0a0,0,0,0,1,0,0s0,0,0,0,0-.07-.06-.09l0,0s0-.07,0-.1,0,0,0-.06a.09.09,0,0,1,0-.05.19.19,0,0,1,0-.08s0,0,0,0,0-.07,0-.12,0,0,0,0,0,0,0,0,0,0,0,0l0-.11a.09.09,0,0,1,0-.05s0,0,0-.06v-.06a.42.42,0,0,0,0-.12.05.05,0,0,1,0,0l0,0s0,0,0,0v-.07a.14.14,0,0,1,0-.07s0,0,0,0a.06.06,0,0,1,0-.05.14.14,0,0,0,0-.11s0,0,0,0l0,0v0l0-.08s0-.07,0-.08,0,0,0,0,0,0,0,0a.22.22,0,0,1,0-.11s0,0,0,0v0s0,0,0,0,0,0,0,0-.06,0,0-.07a.07.07,0,0,0,0-.05v0s0,0,0,0,0,0,0,0l0,0,0,0a.43.43,0,0,1,0,0s0-.05,0-.08,0-.06,0-.08-.06,0,0,0a.17.17,0,0,1,0-.12.5.5,0,0,0,0-.12s0,0,0,0a.15.15,0,0,1,0-.07s0,0,0-.05v-.06a.28.28,0,0,0,0-.09s0,0,0-.08,0-.06,0-.1,0-.12,0-.18a.57.57,0,0,0,0-.18.05.05,0,0,1,0,0s0,0,0-.06l0,0s0,0,0,0,0,0,0,0v-.06s0,0,0-.06,0,0,0,0,0,0,0,0V54a.09.09,0,0,0,0,0,.49.49,0,0,0,0-.12l0-.13a.77.77,0,0,1,0-.15l0,0v-.07s0,0,0-.05,0-.07,0-.11a.12.12,0,0,0,0-.1s0,0,0,0,0,0,0,0,0-.08,0-.11,0,0,0,0v-.07a.78.78,0,0,0,0-.14v-.06s0,0,0,0,0,0,0,0l0-.05v-.06l0,0a.08.08,0,0,0,0,0s0,0,0-.05,0,0,0,0,0,0,0-.05,0,0,0,0a1865820318486.58,1865820318486.58,0,0,0,0-.1v0a.07.07,0,0,0,0-.06l0,0a.25.25,0,0,1,0-.12s0-.07,0-.11,0-.08,0-.12a.29.29,0,0,0,0-.1.08.08,0,0,0,0,0s0,0,0,0,0,0-.06,0l0,0h0a0,0,0,0,1,0,0s0,0,0,0,0,0,0,0,.05,0,.05,0l0,0a.26.26,0,0,0,.05-.09s0,0,0,0,0,0,0,0V51.1l0-.05a.16.16,0,0,0-.07-.09.05.05,0,0,0-.05,0l0,0s0-.06,0-.1,0,0,0-.07,0,0,0-.05a.11.11,0,0,0,0-.08s0,0,0-.08a.16.16,0,0,0,0-.09s0-.08,0-.09a.07.07,0,0,1,0-.05s0,0,0,0,0,0,0,0a.17.17,0,0,1,0-.07.19.19,0,0,0,0-.1.13.13,0,0,1,0-.06s0,0,0-.07h0a.27.27,0,0,1,0-.09c-.06,0,0-.12,0-.16a.06.06,0,0,0,0,0s0,0,0,0,0,0,0-.07,0,0,0-.07,0,0,0,0l0,0a.24.24,0,0,1,0-.08.22.22,0,0,1,0-.08s0,0,0,0v-.07s0-.05,0-.07V49l0,0s0,0,0,0,0,0,0,0,0-.08,0-.11,0,0,0-.06,0-.05,0-.07,0,0,0-.05l0,0s0-.09,0-.13,0-.08,0-.13v0l0,0a.38.38,0,0,1,0-.1.22.22,0,0,0,0-.08.15.15,0,0,1,0-.07s0,0,0-.06,0,0,0,0,0,0,0,0h0a.29.29,0,0,0,0-.13s0,0,0-.06,0,0,0,0l0,0v0a.17.17,0,0,0,0-.07.25.25,0,0,1,0-.12.2.2,0,0,0,0-.13l0,0s0,0,0-.06a.27.27,0,0,0,0-.13s0,0,0,0,0,0,0,0,0,0,0-.07a.06.06,0,0,0,0,0,.07.07,0,0,0,0,0s0-.06,0-.1v-.08c0-.05-.05-.06-.05-.1s0-.06,0-.08a.22.22,0,0,0,0-.08.88.88,0,0,1,0-.15s0-.1,0-.15,0-.08,0-.11a.5.5,0,0,1,0-.12.28.28,0,0,0,0-.09c0-.05,0-.1,0-.15s0-.13,0-.19a1.29,1.29,0,0,0,0-.19.25.25,0,0,1,0-.09.06.06,0,0,0,0,0l0,0s0,0,0-.07,0-.05,0-.07a1.28,1.28,0,0,1,0-.19.16.16,0,0,0,0-.1.19.19,0,0,1,0-.08,1.49,1.49,0,0,1,0-.21.28.28,0,0,0,0-.09l0,0v0s0-.07,0-.1a.46.46,0,0,0,0-.2.11.11,0,0,1,0-.08,1.11,1.11,0,0,0,0-.17.24.24,0,0,0,0-.09.14.14,0,0,1,0-.11s0-.05,0-.08a.31.31,0,0,1,0-.09A1.93,1.93,0,0,0,13,42.8a1,1,0,0,0,0-.18.29.29,0,0,1,0-.09s0-.08,0-.09,0,0,0-.08l0-.09c0-.06,0-.12,0-.18a2,2,0,0,1,0-.24.41.41,0,0,0,0-.11s0,0,0-.05,0,0,0-.07,0-.12-.08-.13,0,0,0-.05,0,0,0-.06v-.21a.14.14,0,0,1,0-.09s0,0,0,0,0,0,0,0a1.27,1.27,0,0,0,0-.2.24.24,0,0,1,0-.09l0-.13,0-.13a.76.76,0,0,0,0-.16.8.8,0,0,1,0-.15.14.14,0,0,0,0-.07v0s0,0,0,0,0,0,0-.07a.41.41,0,0,1,0-.11.71.71,0,0,0,0-.2c0-.06,0-.13,0-.19s0-.06,0-.09,0-.1,0-.14a.86.86,0,0,0,0-.17,1.23,1.23,0,0,1,0-.2.25.25,0,0,0,0-.09s0,0,0-.08a1.48,1.48,0,0,0,0-.21s-.05.08-.07,0a.34.34,0,0,0,.05-.14,1.1,1.1,0,0,0,0-.18s0,0,0,0h0s0,0,0,0,0,0,0,0a.07.07,0,0,0,0-.05s0,0,0,0a.2.2,0,0,1-.08-.08.18.18,0,0,1,0-.21s0,0,0-.08-.06,0-.08-.06,0-.07,0-.1l0,0s0-.06,0,0v0s0,0,0,0h0s0,0,0,0,0,0,0,0-.06-.05-.08-.06,0,0,0-.05v0s0,0,0-.06,0,0,0,0,0,0,0,0,0,0,0-.07,0,0-.07-.05a.08.08,0,0,0-.08.05s0,.08,0,0,0,0,0,0l0,0s0-.06,0-.08,0,0,0,0l0,0v0s0,0,0-.06,0,0,0,0,0,0,0,0h-.05a.12.12,0,0,1-.05-.07s0,0,0,0l0,0h-.1s0,0,0,0l0,0h-.1s-.05,0-.07,0,0,0,0,0v.07s0,0,0,.07,0,0,0,0v0l0,0s0,0,0,0,0,0,0,0,0,0,0,0,0,0,0,0,0,0,0,0,0,0,0,.05,0,0,0,0l0,0h0s0,0,0,.07l0,0s0,0,0,0-.09,0-.12,0,0,0,0,.07,0,0,0,0v0s0,.05,0,.06,0,0,0,0,0,0,0,0,0,0,0,0,.06,0,.06.05,0,0,0,0,0,0,0,0-.06,0-.09,0,0,0,0,0,0,0,0,0,0-.07-.07,0a.06.06,0,0,0,0,.06s0,0,0,0,0,0,0,0,0,0,0,0,0,.07,0,.1,0,0,0,0,0,0,0,0,0,.08,0,.07,0-.06,0,0a.07.07,0,0,0,0,0s0,0,0,0a.06.06,0,0,1,0,.08s-.08,0-.09,0,0,0,0,0,0,0,0,0,0,0,0,0a.06.06,0,0,1,0,0s0,0,0,0h0s0,0,0,0h0l0,0h0s0,0,0,0,0,.05,0,.07a.06.06,0,0,1,0,0s0,0,0,0,0,.07,0,.11a.06.06,0,0,0,0,0s0,0,0,0a0,0,0,0,1,0,.06h-.06a.07.07,0,0,0,0,0s0,.05,0,.09,0,0,0,0,0,0,0,0,0,.07,0,.09,0,.06,0,.07,0,0,0,0a.05.05,0,0,1,0,0s0,0,0,0a.07.07,0,0,0,0,0s0,0,0,0v.05s0,0,0,0,0,0,0,0,0,0,0,0a0,0,0,0,1,0,0s0,0,0,0h0s0,0,0,0,0,.06,0,.07h.08s0,0,0,0l0,0a.06.06,0,0,0,0,0s-.06,0,0,0,0,0,0,0v0a0,0,0,0,1,0,0s0,0,0,0a0,0,0,0,1,0,.05s0,0-.07.07,0,0,0,.07,0,0,0,0,0,0,0,0a0,0,0,0,1,0,0s0,0,0,0a0,0,0,0,0,0,.05s0,0,0,0,0,0,0,0,0,0,0,0,0,0,0,0,0,0,0,0a.11.11,0,0,0,0,0,.08.08,0,0,1,0,.05s0,0,0,0,0,.08,0,.09.09,0,.1,0-.07,0-.09,0a.13.13,0,0,0-.08.08.38.38,0,0,0-.08.17.14.14,0,0,1,0,.09s0,0,0,.1,0,0-.05.06,0,.06,0,.09-.09.07-.12.12,0,0,0,.06,0,.06,0,.08-.08.08-.09.14,0,.08,0,.1,0,0-.05.07a.31.31,0,0,0,0,.1s0,0,0,0,0,0,0,0a.06.06,0,0,0,0,.06s0,.09,0,.11,0,0-.07.09a.19.19,0,0,0,0,.18s0,0,0,.06-.09,0-.13,0,0,.06,0,.08a.1.1,0,0,1-.05,0,.52.52,0,0,1-.1.11.91.91,0,0,1-.24.16.61.61,0,0,0-.12.05s0,0,0,0H8.47l-.06,0H8.34l-.15,0a.45.45,0,0,1-.11,0H7.92s-.08,0-.11,0l-.13,0a.94.94,0,0,1-.28-.1,1.62,1.62,0,0,1-.46-.48.85.85,0,0,1-.12-.37A1.91,1.91,0,0,1,7,40.93c0-.13.08-.23.12-.35a2.44,2.44,0,0,0,.14-.34,1.35,1.35,0,0,0,0-.18c0-.05.06-.12,0-.16s0-.12.08-.18,0-.06,0-.09,0-.08,0-.12.06-.12.08-.18a1,1,0,0,0,0-.18h0c.07-.21.18-.4.26-.62s.15-.34.21-.52a.5.5,0,0,0,0-.21s.06-.17.08-.14,0-.12.05-.19c-.12,0,.06-.14.09-.16A1.26,1.26,0,0,0,8.35,37a.48.48,0,0,0,0-.24.64.64,0,0,1,0-.24c.05-.12.17-.21.2-.34a2.35,2.35,0,0,1,.14-.45,1.37,1.37,0,0,0,0-.23c0-.06.09-.14,0-.19a.58.58,0,0,1,.08-.18A.49.49,0,0,0,9,34.94c0-.12.09-.25.13-.37s.09-.29.14-.44a1,1,0,0,0,.07-.24,1.37,1.37,0,0,1,0-.19c0-.08.07-.15.09-.22a.67.67,0,0,1,.1-.28A.46.46,0,0,0,9.65,33c0-.1,0-.17,0-.25a.35.35,0,0,1,.06-.22,1.14,1.14,0,0,0,.1-.19c.09-.21.12-.43.19-.64l.06-.16.06-.18s0-.06,0-.09,0-.05,0-.08.09-.29.13-.43,0,0,0,0,0,0,0,0,0,0,0,0a.21.21,0,0,1,0-.07.61.61,0,0,1,.05-.12.64.64,0,0,0,0-.07l0-.06c0-.06,0-.13.05-.19l0-.09,0-.09c0-.13.08-.25.12-.38a1.34,1.34,0,0,1,.17-.31,1,1,0,0,1,.16-.24,1.06,1.06,0,0,0,.15-.15.85.85,0,0,1,.19-.14l.1-.06.13-.05h.07s0,0,0,0l.06,0,.13,0a.3.3,0,0,1,.13,0c.05,0,.09,0,.14,0s0,0,.06,0,0,0,.05,0h.14l.17,0,.07,0a.39.39,0,0,1,.14.05l.06,0a.68.68,0,0,1,.17.09l.07.06.07.07.09.07s0,.05.06.07l.06.06,0,.06s0,0,0,0l.06.12s0,0,0,.06,0,0,0,0,0,0,0,.06l0,.08a2.58,2.58,0,0,1,.08.26c0,.05,0,.09,0,.13s0,.09,0,.13,0,.2,0,.29a.25.25,0,0,1,0,.07s0,0,0,.07a.66.66,0,0,0,0,.14s0,0,0,.07,0,.06,0,.09a.7.7,0,0,1,0,.14.66.66,0,0,0,0,.14.14.14,0,0,1,0,.06v.07l0,.12v.1s0,0,0,0v0s0,0,0,0a.09.09,0,0,1,0,.05s0,.06,0,.09a.08.08,0,0,1,0,.07v.07c0,.05,0,.09,0,.15a.28.28,0,0,0,0,.13s0,0,0,.05l0,0a0,0,0,0,0,0,0s0,.09,0,.14,0,0,0,0,0,0,0,.06a.86.86,0,0,0,0,.16.17.17,0,0,0,0,.07v.08l0,.13a.5.5,0,0,0,0,.13.25.25,0,0,1,0,.12.35.35,0,0,0,0,.2s0,0,0,0,0,0,0,.05a.17.17,0,0,1,0,.07.11.11,0,0,0,0,.06.06.06,0,0,1,0,.06.24.24,0,0,0,0,.12s.07.08.07.12a0,0,0,0,1,0,0s0,0,0,.06a.58.58,0,0,0,0,.14s0,0,0,0l0,0s0,0,0,.05,0,0,0,0,0,.11,0,.12,0,0,0,0,0,.05,0,.06,0,0,0,0a.08.08,0,0,0,0,.05h0s.06,0,.08,0,.06,0,0,0,0,0-.06,0,0,.1,0,.13a0,0,0,0,0,0,0s0,0,0,0a.19.19,0,0,1,0,.1.11.11,0,0,0,0,.12s.06,0,.1,0,0,0,0,0,0,0,0,0,0,0,0,0,0,0,0,0,0,0,0,.06,0,0,0,.06,0,0,0,.08v.07s0,0,0,0,0,0,0,0-.07,0-.06.09a.08.08,0,0,0,0,.05s0,0,0,0,0,0,0,0,0,0,0,0v0a0,0,0,0,1,0,0s0,0,0,.06a.17.17,0,0,0,0,.07l0,0a0,0,0,0,1,0,0,.06.06,0,0,1,0,.06.17.17,0,0,0,0,.12s0,0,0,0,0,0,0,.06,0,0,0,0,.05,0,.05,0,0,0,0,0,0,0,0,.05a.79.79,0,0,0,0,.13.51.51,0,0,1,0,.13A.27.27,0,0,0,15,37s0,0,0,.08,0,0,0,.06a2.63,2.63,0,0,1,.06.39s.05,0,.07,0a.11.11,0,0,1,0,.08s0,.08,0,.14,0,.06,0,.1,0,.07,0,.11,0,.07,0,.11,0,0,.07.06.06,0,.08.05,0,.06,0,.09,0,.05,0,.09,0,0,0,.07l0,0c.05,0,0,0,0,.06s.05,0,.07,0,0,0,0,.06a.43.43,0,0,0,.07.2.46.46,0,0,0,.07.07s0,.08,0,.11a.3.3,0,0,1,0,.1.48.48,0,0,0,0,.12s0,.09,0,.13,0,.08,0,.12a.34.34,0,0,0,.08.17s.09.1.09.14a.07.07,0,0,1,0,.07s-.06,0-.09,0,0,0,0,.06a.22.22,0,0,1,0,.08.29.29,0,0,0,0,.09s0,0,0,.07,0,.11,0,.16a.47.47,0,0,0,.05.1.15.15,0,0,1,0,.07s0,0,0,.08l0,.06a1.09,1.09,0,0,1,0,.18c0,.07,0,.14,0,.21a1.29,1.29,0,0,0,0,.19.28.28,0,0,0,0,.09s0,0,0,.07,0,.05,0,.08,0,0,0,.08,0,0,0,0,0,.06,0,.09l0,.06a.5.5,0,0,1,0,.12s0,.07.05.11a.19.19,0,0,1,0,.15l0,.07,0,0s0,0,0,0,0,.06,0,.08,0,0,0,.08,0,.06,0,.08-.05,0,0,.06,0,0,0,.07,0,0,0,.08a.11.11,0,0,0,0,.1v.11s0,0,0,.06,0,0,0,.06.07.07.07,0,.06,0,.07,0,0,0,0,0l0,0s-.09.06-.11.08,0,0,0,.06,0,.05,0,.07,0,.13.06.08,0,0,0,0a0,0,0,0,1,0,0s0,0-.05,0,0,0,0,.06,0,.06,0,.09a.15.15,0,0,1,.07,0,.53.53,0,0,1,.06.19c0,.08-.06,0,0,.24s0,.09,0,.19a.62.62,0,0,0,0,.13s0,.06,0,.08a2.25,2.25,0,0,0,.05.22.66.66,0,0,0,.06.2c0,.06,0,.16,0,.22a1.76,1.76,0,0,0,0,.23s0,.08,0,.12,0,.05,0,.09.18,0,.18.14,0,.06,0,.1,0,.05,0,.1a.48.48,0,0,1,0,.27c0,.06,0,0,0,.1s0,.06,0,.1.08,0,.14,0,0,.13.05.1,0-.09.07-.12a.17.17,0,0,1,0-.12h.05c0-.14,0-.27.05-.4a.34.34,0,0,1,0-.1s0-.06,0-.07,0-.14,0-.22,0-.21,0-.31,0-.41.07-.62c.07-.42.15-.84.19-1.27a1.27,1.27,0,0,1,.05-.34,7.24,7.24,0,0,0,.17-.95c0-.17,0-.35.06-.52a2.1,2.1,0,0,0,.06-.24c0-.23.1-.45.12-.68a3.11,3.11,0,0,1,.07-.44c.06-.33.14-.66.17-1,0-.17,0-.34.08-.5a1.67,1.67,0,0,1,.05-.31,3,3,0,0,0,.08-.41c0-.16.08-.33.12-.49a1,1,0,0,0,0-.3.75.75,0,0,1,.08-.31c-.05-.08,0-.24.05-.32s0-.23.07-.34.06-.23.08-.35.07-.44.12-.66,0-.24.07-.36l.18-.67c0-.14.08-.29.1-.43a.65.65,0,0,1,0-.2,1.62,1.62,0,0,0,0-.2s.05-.06.06-.1,0-.08,0-.12l.06-.24c0-.13.08-.25.11-.37a1.65,1.65,0,0,0,0-.31c.05-.24.14-.47.19-.71s.18-.59.25-.9A3.31,3.31,0,0,1,20,30a1.85,1.85,0,0,0,0-.23c0-.07.08-.12.09-.18a.81.81,0,0,0,0-.15c0-.1,0-.2.07-.31.06-.29.12-.59.21-.89,0-.14.11-.28.15-.43s.07-.29.11-.44.17-.57.25-.87a2,2,0,0,1,.08-.22A.39.39,0,0,0,21,26a.51.51,0,0,1,.06-.21c0-.06.11-.08.1-.17a2,2,0,0,1,0-.35A.94.94,0,0,1,21.3,25c.05-.11,0-.23.07-.34s0-.24.11-.29,0-.19.05-.27,0-.22.08-.33.09-.2.12-.31a3,3,0,0,1,.2-.45,1.09,1.09,0,0,0,.07-.24,1.33,1.33,0,0,0,.15-.45,2.21,2.21,0,0,1,.08-.35.33.33,0,0,1,.07-.16s.07-.09.09-.13a.69.69,0,0,1,.05-.13.88.88,0,0,0,0-.15c.17-.54.34-1.09.56-1.61.09-.21.16-.43.23-.65s.14-.34.21-.51.09-.31.15-.47.09-.26.14-.37a2.13,2.13,0,0,0,.11-.33c0-.1.09-.2.12-.3s.18-.46.26-.7.13-.38.2-.56.12-.34.19-.5a2.76,2.76,0,0,0,.08-.27c0-.07.08-.13.11-.21s.14-.44.23-.65.07-.22.11-.33a2.37,2.37,0,0,0,.13-.34c.07-.22.18-.42.26-.64s.09-.23.13-.34a1.38,1.38,0,0,0,.13-.39,1.2,1.2,0,0,1,.13-.31,2.15,2.15,0,0,0,.13-.32,4.87,4.87,0,0,1,.24-.57l.15-.29c0-.07.09-.24.18-.27a.58.58,0,0,1,.06-.17,1.67,1.67,0,0,1,.18-.28L27,9.85l.13-.15s0-.07,0-.09.05,0,.06,0h0a.14.14,0,0,1,.1-.08.07.07,0,0,1,0-.09h.06s0,0,0,0,.08-.09.15-.13a3.1,3.1,0,0,1,.58-.39l.13-.06.14,0c.05,0,.07-.05.13-.06l.16,0,.16,0,0,0,.07,0,.05,0h.32l.13,0a.51.51,0,0,0,.13,0,.26.26,0,0,1,.09.05l0,0h.07l.11,0,.1,0a.52.52,0,0,1,.13.06l.1,0,0,0,0,0,.07,0s0,0,0,0h.07s0,0,0,0,0,0,.05,0v0l0,0s0,0,0,0l0,0s0,0,0,0h0l0,0a.27.27,0,0,1,.08.07,1.15,1.15,0,0,1,.14.17l0,0s0,0,0,0,0,.09.07.13l0,.05s0,0,0,0,0,0,0,.06,0,0,0,.08,0,0,0,.06a.08.08,0,0,1,0,.05l0,.08s0,0,0,.07,0,0,0,0l0,.05,0,.1a.37.37,0,0,0,0,.11s0,0,0,.06a.43.43,0,0,0,0,.05.24.24,0,0,0,0,.08.22.22,0,0,1,0,.08V11s0,.08,0,.11l0,0s0,0,0,0h0s0,0,0,0a.43.43,0,0,1,0,.05.5.5,0,0,0,0,.12s0,.07,0,.1l0,0s0,0,0,.06,0,0,0,0l0,0a.38.38,0,0,0,0,.1s0,0,0,.08,0,0,0,0h0l-.05.06s0,0,0,0,0,.07-.05.1l-.06.07,0,0s0,0,0,0v0l0,0s0,0,0,0h0s0,0,0,0,0,0,0,.05l-.05,0s0,0,0,0,0,.05,0,.08l0,0v0h0s-.05,0-.07.06a.17.17,0,0,0,0,.1.37.37,0,0,1,0,.11.06.06,0,0,0,0,0s0,0,0,.05,0,0,0,0,0,0,0,0,0,.05,0,.07l0,0,0,0h0a0,0,0,0,1,0,0h0v0l0,0h0s0,0-.05,0,0,0,0,0h0v0s0,0,0,0h0a.07.07,0,0,1-.06,0s0,0,0,0,0,0,0,0,0,0,0,.06,0,0-.06,0,0,0,0,.06,0,0,0,.08l0,0s0,0,0,.05-.07,0-.07,0l0,0s0,0,0,0a.05.05,0,0,0,0,0s0,0,0,0,0,0,0,0,0,0,0,0,0,0,0,.05l0,0,0,0s0,.08,0,.09h-.12a.14.14,0,0,1-.07.1l0,0v0s0,0-.05,0,0,0,0,0l-.05,0s0,0,0,0l0,0s0,0,0,0l0,0,0,0s0,0,0,0,0,0,0,0,0,0-.06,0a.1.1,0,0,0,0,.06l-.07.09-.05.06-.06.08a.18.18,0,0,0-.05.08s0,.06,0,.07h0s0,0,0,0-.13.15-.19.24a.42.42,0,0,0-.07.13s0,0,0,.06-.05.08-.08.12-.06.05-.08.1,0,0,0,.06,0,0,0,0h0s-.12.08-.06.13l-.07,0s0,.06,0,.09-.05.14-.07.18,0,0-.06,0l-.06.05a.39.39,0,0,0-.08.14s-.06.07-.07.12,0,0,0,.06l-.07.12,0,.09a.2.2,0,0,1,0,.08s0,0,0,0a.07.07,0,0,1,0,.05.79.79,0,0,1,0,.09.1.1,0,0,1,0,0,.08.08,0,0,1,0,0s-.05.11-.09.17,0,.09-.06.14,0,.06,0,.09,0,0,0,0l0,0a.41.41,0,0,0-.07.15s0,0,0,.07,0,.05,0,.07,0,0,0,0a.77.77,0,0,0-.12.24c-.07.15-.13.3-.2.44s-.06.22-.1.22v.05c-.05,0,0,.06,0,.09a.09.09,0,0,0,0,.05s0,0,0,0,0,0,0,0,0,0,0,0-.05.09-.07.14l0,0a.43.43,0,0,1,0,0s0,.09-.06.08,0,.06,0,.09,0,0,0,0a.06.06,0,0,0,0,0c0,.06-.06.11-.08.16s0,.06,0,.09a.43.43,0,0,0,0,.07c0,.05,0,.11-.07.17l-.06.14a.35.35,0,0,0-.06.14c.05,0,0,0,0,.06a.28.28,0,0,0,0,.09s0,.05,0,.08,0,.05,0,.08a.28.28,0,0,1,0,.09l0,0s0,0,0,0,0,0,0,0l0,0s0,0-.05.06,0,.09-.05.14-.05.1-.08.11,0,0,0,.05a.15.15,0,0,1,0,.07.31.31,0,0,0-.06.13c0,.1-.13.13-.15.23s0,.07,0,.09a.42.42,0,0,0,0,.12s0,0,0,.05l-.05.08s0,0,0,0a.15.15,0,0,0,0,.09.07.07,0,0,0,0,.05v0s0,0,0,0l0,0-.05.08a.13.13,0,0,1,0,.06.15.15,0,0,1,0,.09s0,0,0,0,0,0,0,0v.11a.13.13,0,0,1,0,.06s0,0,0,0,0,0,0,0,0,0,0,0,0,0,0,0,0,0,0,0v0h0v0a.1.1,0,0,1,0,0s0,0,0,0v0s0,0,0,0,0,0,0,0,0,0,0,0,0,.07-.05.11a.07.07,0,0,0,0,.05.25.25,0,0,0,0,.07s0,.06,0,.09l0,0s0,.05,0,.07,0,0,0,.05,0,.05,0,.08,0,.08,0,.13a.13.13,0,0,1,0,.06l0,0s0,0,0,0,0,0,0,.06l0,0s0,0,0,.06,0,0,0,.05,0,0,0,0a.19.19,0,0,1,0,.07s0,0,0,0,0,0,0,.06,0,0,0,.05,0,0,0,.05a.11.11,0,0,0,0,.06.13.13,0,0,1,0,.1s0,.06-.06.1a.22.22,0,0,0-.05.12s0,.08,0,.12l0,.05a0,0,0,0,1,0,0s0,0,0,0a.94.94,0,0,0-.06.15.59.59,0,0,0,0,.14.08.08,0,0,0,0,0s.05,0,0,0,0,0,0,0l0,.06a.24.24,0,0,0,0,.08c.05,0,0,.09,0,.11l-.07.11a.14.14,0,0,0,0,.11s0,0,0,.05,0,0,0,.06l0,.08-.06.05s0,0,0,.06a.15.15,0,0,0,0,.07.59.59,0,0,1,0,.13l-.07.12s0,0,0,0,0,0,0,.05a.33.33,0,0,0,0,.14c0,.05.05.07.08.11a.19.19,0,0,0,0,.07.1.1,0,0,1,0,.07s-.05,0-.07,0a.39.39,0,0,0-.06.19C24,27,24,27,24,27a.1.1,0,0,0,0,0s0,0,0,.06,0,.08,0,.12a.45.45,0,0,0,0,.12l0,.11a1.52,1.52,0,0,1-.06.2s-.06.09-.05.15v0s0,0,0,.06a1.34,1.34,0,0,1-.12.24c0,.07-.06.15-.1.22a.72.72,0,0,0-.1.22.34.34,0,0,0,0,.1s0,0,0,.07,0,0-.05.05,0,.07,0,.11a.17.17,0,0,1,0,.1.08.08,0,0,0,0,0l0,0s0,0,0,0,0,.05,0,.06a.08.08,0,0,0,0,.05v0s0,.07,0,.11a.43.43,0,0,1,0,.12v.05s0,0,0,0,0,.09,0,.12a.43.43,0,0,0,0,.11.08.08,0,0,0,0,.05s0,0,0,0,0,.06,0,.09a.14.14,0,0,0,0,.11.29.29,0,0,1,0,.09s0,0,0,0,0,0,0,.06,0,.05,0,.07,0,0,0,.05l0,0s0,0,0,.06,0,0,0,.05a.24.24,0,0,1-.06.08l0,0H23a.19.19,0,0,0-.08.07s0,.07-.05.1,0,.08,0,.11a.19.19,0,0,0,0,.1.35.35,0,0,1,0,.11s0,0,0,0v0a.17.17,0,0,1,0,.07s0,.05,0,.08a.34.34,0,0,0,0,.1v.08l0,0a.09.09,0,0,1,0,.05c0,.05-.09.07-.13.11a.22.22,0,0,0,0,.11.15.15,0,0,1,0,.11s0,0-.06.06,0,.12,0,.17a.06.06,0,0,0,0,0s0,0,0,0a.21.21,0,0,0,0,.07.06.06,0,0,0,0,.06.13.13,0,0,0,0,.06v0h0s0,0,0,0,0,0,0,0a.14.14,0,0,0,0,.07v0s0,0,0,0a.08.08,0,0,0,0,0,.11.11,0,0,1,0,.06.05.05,0,0,0,0,0s0,0,0,0,0,0,0,.05v.06s0,0,0,0,0,.06,0,.09a.13.13,0,0,0,0,.09.32.32,0,0,0,0,.09v0s0,0,0,0a.08.08,0,0,1,0,0s0,0,0,.05l0,0s0,0,0,.06l0,0s0,.05,0,.08,0,0,0,0,0,.05,0,.06,0,.07,0,.11v0h0s0,0,0,.05,0,0,0,.06,0,0,0,0a.5.5,0,0,0,0,.12v0s0,0,0,0,0,0,0,.06,0,0,0,0a.25.25,0,0,0,0,.15s0,0,0,0,0,0,0,0,0,0,0,0,0,0,0,.05,0,0-.05.08l0,.1c0,.07,0,.15-.05.22l0,.09v0s0,0,0,0,0,.05,0,.08,0,0,0,0a.07.07,0,0,0,0,.05.34.34,0,0,0,0,.1l0,.09a.41.41,0,0,0,0,.08.36.36,0,0,0,0,.1s0,.07,0,.1a.34.34,0,0,0,0,.1.79.79,0,0,1,0,.09.36.36,0,0,0,0,.1s0,.06,0,.07,0,0,0,0h0v0a.09.09,0,0,0,0,0c0,.05,0,.1,0,.15s0,0,0,0a.09.09,0,0,1,0,0,.14.14,0,0,1,0,.06.56.56,0,0,0,0,.12.25.25,0,0,1,0,.09.45.45,0,0,0,0,.11.3.3,0,0,0,0,.1s0,0,0,.06a.11.11,0,0,1,0,0l0,0a.15.15,0,0,1,0,.08s0,.05,0,.09,0,0,0,0a.06.06,0,0,1,0,.05.12.12,0,0,1,0,.09s-.06,0-.06.06,0,0,0,0,0,0,0,0l0,0s0,.06,0,.09a.18.18,0,0,1,0,.1s0,.08-.07.08H20.9s0,0,0,0,0,.07,0,.11a2.05,2.05,0,0,0-.09.43s0,0,0,.07,0,0,0,0,0,0,0,0a.08.08,0,0,0,0,0s0,0,0,0,0,0,0,0,0,.07,0,.1,0,.08,0,.12a.65.65,0,0,1,0,.14l0,0a.09.09,0,0,0,0,0s0,.07,0,.09l0,0s0,0,0,0S20.68,39.52,20.68,39.54Zm7.47-9.15s0,0,0,0,0,0,0,.06,0,0,0,.05h0s0,0,0,0,0,0,0,.07a.14.14,0,0,1,0,.11s-.07.06-.09.11,0,0,0,0,0,0,0,0,0,0,0,.06,0,0,0,0,0,.06,0,.09-.05.06-.06.07,0,.05-.08.06-.06,0-.07.05,0,.05,0,.08,0,0,0,0a.08.08,0,0,0,0,0,.2.2,0,0,1-.13.09.1.1,0,0,0-.07,0s-.05.05,0,.07-.05,0,0,0-.11,0-.09.06-.12.07-.12.09,0,0,0,.05a.08.08,0,0,1-.07,0v0s0,0-.05.05-.06,0-.09,0a0,0,0,0,0,0,0l0,0-.07,0-.05.05,0,0,0,0s-.05,0-.07,0,0,0-.05.05-.15,0-.12.08-.05,0-.08,0-.06,0-.05.06h-.06s0,0,0,0l-.09,0s0,0,0,0,0,0-.06,0-.06,0-.09,0-.05,0-.1,0,0,0,0,0,0,0-.05,0h-.13s0,0,0,0-.06,0-.09,0l0,0,0,0s-.07,0-.1,0h-.06s0,0,0,0-.05,0-.07-.06,0-.07,0-.12l-.07,0s0-.05,0-.07v0s0,0,0,0,0,0,0,0,0-.09,0-.13,0-.06,0-.08,0,0,0-.05,0,0,0-.06,0,0,0-.06,0,0,0,0l0,0s0,0,0-.05,0-.08,0-.12a.29.29,0,0,1,0-.13l0,0s0,0,0-.06a.47.47,0,0,0,0-.1s0-.07,0-.1,0,0,0,0a.06.06,0,0,0,0,0s0,0,.05-.06a.3.3,0,0,0,0-.08.16.16,0,0,0,0-.09.34.34,0,0,1,0-.1s.06,0,.07-.06l.06,0a.48.48,0,0,1,.15-.22l.11-.09a.27.27,0,0,0,.1-.11c0-.05.08-.05.13-.08l.13-.11.25-.22a.27.27,0,0,0,.08-.07l.11-.05.14-.08s.06,0,.09,0l.08,0a1.22,1.22,0,0,1,.17-.07h.09s0,0,0,0h0l.09,0h.09a.29.29,0,0,1,.16,0s0,0,0,0,0,0,0,0l.08,0h0l0,0s.05,0,.08,0a0,0,0,0,1,0,0c.06,0,.06,0,.08.07l0,.06s0,0,0,.07,0,0,0,0v.05s0,0,0,0a.42.42,0,0,0,0,.06s0,0,0,.07.06.06.06.12,0,.1.06.1v.08c0,.08,0,.14,0,.22s0,0,0,.05S28.15,30.37,28.15,30.39ZM26.73,37.5a.63.63,0,0,0,.08.23s0,.11.08.14,0,0,0,0-.05.05-.06.09a.4.4,0,0,0,0,.15c0,.06.06.08.06.14a.55.55,0,0,1,0,.13c0,.08-.07.13-.1.21a.83.83,0,0,0,0,.13s0,0,0,0,0,.05,0,.07a.67.67,0,0,1,0,.2c0,.07,0,.08,0,.16s0,.05,0,.09,0,0,0,.07,0,.11,0,.18,0,.13-.05.18,0,.12,0,.18-.06.08-.08.13a1.08,1.08,0,0,0,0,.18,2.36,2.36,0,0,1,0,.38,1,1,0,0,1,0,.17.61.61,0,0,0,0,.19v.18c0,.06,0,.13,0,.17s-.05,0-.06.06,0,0,0,.08a.46.46,0,0,1,0,.26s0,0,0,0a.35.35,0,0,0,0,.2,1.34,1.34,0,0,0,0,.2.41.41,0,0,1,0,.19.47.47,0,0,1,0,.17.32.32,0,0,0,0,.09s0,.07,0,.1h0c0,.05,0,.15,0,.2s0,.1,0,.17,0,.12,0,.2,0,.11-.05.17a1.49,1.49,0,0,1,0,.21.34.34,0,0,1,0,.1.24.24,0,0,0,0,.09.67.67,0,0,1,0,.2s0,.07,0,.1,0,0,0,.07a.74.74,0,0,0,0,.21h0a.13.13,0,0,1,0,.06s0,0,0,.06,0,0,0,0a.56.56,0,0,0,0,.12s0,0,0,0,0,.08,0,.11a.37.37,0,0,1,0,.21c.07.07,0,.2,0,.29s0,.08,0,.1a.5.5,0,0,0,0,.12.33.33,0,0,1,0,.14s0,.1,0,.09v0s0,0,0,.07,0,.07,0,.1a.44.44,0,0,0,0,.2.41.41,0,0,0,0,.11s0,.05,0,.08,0,.14,0,.21a.85.85,0,0,0-.1.19.57.57,0,0,0,0,.13c0,.07,0,.06,0,.05s.18-.09.17.06,0,.06,0,.13a.06.06,0,0,1,0,.06s-.05,0-.06,0a.11.11,0,0,1-.1-.09c-.06.05,0,.15-.06.2s-.12,0-.16,0-.06,0-.11.09a.88.88,0,0,1-.22.21l-.14.09a.63.63,0,0,0-.12.11s-.11.07-.15.11l-.25.14-.16.08-.07,0s0,.06-.06.07-.13,0-.18,0,0,0-.09,0h-.09a.84.84,0,0,1-.35-.07.76.76,0,0,0-.16-.06s0,0-.07,0,0-.05,0-.07S23.2,48,23.19,48l-.05-.15a1.66,1.66,0,0,1-.06-.16c0-.06,0-.13,0-.17s0-.18,0-.25v-.81c0-.13,0-.25,0-.38a1,1,0,0,1,0-.17.29.29,0,0,0,0-.16c0-.06,0-.14,0-.19a1.08,1.08,0,0,0,0-.19c0-.23,0-.44,0-.67a1.51,1.51,0,0,0,0-.3h0a.11.11,0,0,1,0-.08,2.2,2.2,0,0,1,.05-.37c0-.12.05-.24.07-.36s0-.13,0-.19,0-.11,0-.17-.13-.37,0-.25a2.83,2.83,0,0,0,0-.29h0a.55.55,0,0,1,0-.26s0-.21,0-.23a2.06,2.06,0,0,0,.07-.7s0-.09,0-.12,0-.1,0-.16,0-.22,0-.32,0-.13,0-.16.07-.05.05-.13,0-.37,0-.45a2.35,2.35,0,0,0,.05-.37c0-.15,0-.28,0-.44a2,2,0,0,1,0-.42c0-.13.1-.22,0-.34s0,0,0,0,0-.21.07-.26a2.44,2.44,0,0,1,.1-.24c.09-.21.16-.42.26-.63a2.82,2.82,0,0,1,.18-.29c.06-.07.13-.19.21-.22s.09-.12.13-.16,0,0,.07-.06.07,0,.1,0l0,0a.36.36,0,0,1,.16-.11l.19-.13a2,2,0,0,1,.61-.29A.94.94,0,0,1,26,36l.21,0c.05,0,.09,0,.15,0s0,0,.13.12a.38.38,0,0,1,.11.14.67.67,0,0,1,.08.25.78.78,0,0,1,.05.14c0,.05,0,.06,0,.08s0,0,0,0-.06.16,0,.19.06.16.18.16-.16,0-.2.08A.42.42,0,0,0,26.73,37.5ZM64,29.74l.08,0,.09,0h0s0,0,0,0h0s.07,0,.06,0l.07,0s0,0,0,0,0,0,0,0a.67.67,0,0,1,.12-.06l.06,0,.05,0s.08,0,.12-.07a0,0,0,0,0,0,0s.06,0,.07-.07l.07,0s0,0,0,0l.06,0,.2-.11.13-.08.14-.08s.13,0,.14-.08l0,0s.07-.07.1-.07,0,0,0,0,0,0,0,0l.06-.05a.75.75,0,0,1,.15-.09l.33-.13s0,0,0,0l.18-.05.18,0,.1,0,0,0h.17c.1,0,.2,0,.3,0s.08,0,.13,0,.07,0,.11,0,.08,0,.12,0a.53.53,0,0,1,.12,0s.08,0,.13,0a.15.15,0,0,0,.11,0s0,0,0-.07.06.05.08,0,0,.06,0,.09a.1.1,0,0,0,.1,0s0,0,0-.05,0,0,.08,0,0,0,0,.06,0,0,0,0l0,0,0,0s0,0,.06.06,0,.05,0,.08,0,0,0,.07,0,0,0,.07,0,0,.06.05,0,.07,0,.08a.24.24,0,0,0,0,.08s0,0,0,0,0,0,0,.05,0,0,.06,0,0,.05,0,.07,0,0,.06.05,0,0,0,0,0,0,0,0,0,0,0,0,0,0,0,.06,0,0,0,0-.1,0-.07.08.06,0,.09,0,0,.07,0,.09,0,0,.07,0-.05.06-.07.06-.09,0-.09,0,0,.06,0,.09,0,.05,0,.07,0,.06,0,.09,0,0,0,0,0,0,0,0-.1.07-.07.11h0a0,0,0,0,1-.06,0s0,0,0,.06,0,0,0,.05.05.07,0,.09-.06,0-.07,0,0,0,0,0,0,0,0,0a.19.19,0,0,1,0,.08l0,.09c0,.05-.07.06-.1.12a1.74,1.74,0,0,1-.11.18s-.07,0-.09.06a.16.16,0,0,1-.08.05c0,.06,0,.06-.07.08s-.08.07-.07.09a.07.07,0,0,1-.06,0c-.11,0-.2.16-.3.22l-.17.1-.31.17a.33.33,0,0,1-.13.07,1.89,1.89,0,0,0-.33.13l-.29.11a1.46,1.46,0,0,1-.2,0l-.41.13a1.41,1.41,0,0,1-.22.06l-.2.07a2.8,2.8,0,0,0-.41.13c-.08,0-.38.11-.44.14l-.19.07c-.13,0-.27.11-.41.15l-.14,0-.14.07a.61.61,0,0,1-.13,0l-.13.06-.13,0-.12.06-.09,0-.09.05a.67.67,0,0,1-.18.07.69.69,0,0,0-.15.07s0,0-.08,0-.09,0-.06,0-.06,0-.09,0,0,0-.06.05a.8.8,0,0,0-.16.08.43.43,0,0,1-.16,0l-.16.08-.17.08a1.39,1.39,0,0,0-.19.06s0,0-.06.05a.12.12,0,0,0-.07,0s-.11,0-.16.08,0,0,0,0h0l-.05,0-.1.05-.17.08a.94.94,0,0,0-.22.12l-.16.07-.09,0-.08.07-.15.06-.08.06a.71.71,0,0,1-.15.08l-.08,0s0,.06-.06,0v0a.46.46,0,0,1-.13.08s0,0-.07,0,0,0-.07,0l-.14.08h0s0,0,0,0h-.08s0,0,0,.05l-.06,0-.2.09s-.05,0-.05,0a.25.25,0,0,0-.09,0s0,0,0,0l-.07,0s-.1,0-.11.08a.6.6,0,0,0-.23.1s-.11,0-.16.09l-.16.07-.18.1-.2.1,0,0,0,0s0,0-.06.05-.1.06-.16.08-.11.06-.17.09h0s0,0,0,0h-.11s0,0-.05.07l-.07,0a.69.69,0,0,0-.15.07l-.07,0-.06,0s-.12.06-.14.1a.8.8,0,0,0-.15,0s0,0-.06.06-.06,0-.08.05l-.21.09s0,0-.06,0-.14.06-.17.08l-.07.07-.15.08-.09,0-.06.06s0,0-.07,0l0,0-.07.05H55l-.1.06s0,0,0,0l-.06,0s-.09.06-.13.07l-.06.05s0,0-.07,0a.86.86,0,0,0-.16.1l-.16.08-.06.05-.15.08a.18.18,0,0,1-.07,0,2,2,0,0,0-.32.17c-.06,0-.1.07-.17.1l-.09,0-.06.06-.18.09a.32.32,0,0,0-.12.08l-.07.05-.09,0s0,0,0,0h0l-.08,0-.1,0s0,0-.08.06a1.3,1.3,0,0,1-.15.1l-.08,0-.06.05a.38.38,0,0,0-.1,0l-.07.06L52,39s0,0-.06.06a.71.71,0,0,1-.15.08l-.14.09a.37.37,0,0,1-.16.09l-.17.11-.17.08-.18.11a3.87,3.87,0,0,1-.34.21.91.91,0,0,1-.17.09.38.38,0,0,0-.12.1l-.33.18-.17.1-.07.06,0,0h-.06s0,0,0,0l0,0-.07,0s0,0-.05.06l-.15.06-.17.1-.15.1-.06,0-.07,0a.67.67,0,0,1-.14.09.34.34,0,0,0-.14.09s-.1.07-.13.08,0,0-.09.06,0,0,0,.05l-.05,0a1,1,0,0,1-.17.1,0,0,0,0,1,0,0s-.12,0-.17.07,0,0-.05.06l-.09,0,0,0,0,0-.07,0a.13.13,0,0,1-.06,0s-.06,0-.06.05,0,0,0,0-.06,0-.09,0a.12.12,0,0,0-.08,0,.3.3,0,0,0-.08,0s0,0,0,0,0,0,0,0-.06,0-.09,0l-.08,0a1,1,0,0,0-.17.1.45.45,0,0,1-.14.1s-.05,0-.07.05,0,0-.05,0a.44.44,0,0,0-.15.08l-.07.05s-.07,0-.06,0-.1,0-.13.1-.13.1-.16.11h0l0,0,0,0,0,0,0,0s0,0,0,0h0s-.06,0-.07.06,0,0,0,0a0,0,0,0,1,0,0s-.06,0-.08.05l-.05,0a.09.09,0,0,1,0,0h0l-.05,0,0,0s0,0,0,0h-.05l0,0v0h0a.08.08,0,0,0,0,0,.06.06,0,0,1,0,0s-.07,0,0,0h0l0,0,0,0,0,0,0,0s0,0,0,0,0,0,0,0,0,.05,0,.07l-.05.07,0,0,0,0s-.09,0-.12,0,0,0,0,.06-.05,0-.08,0,0,0,0,0,0,0-.06,0l0,.07h0a.18.18,0,0,1-.08.09s0,0-.06.06,0,0,0,0,0,0,0,0v0s0,0,0,0,0,0,0,.05,0,0,0,0v.07s-.05,0-.05.07,0,0,.08,0,0,0,0,0a.06.06,0,0,1,0,0s0,0,0,0,0,0,0,0,0,0,0,0l0,0s0,0,0,.07,0,0,0,.08a.06.06,0,0,0,0,.06s0,0,0,0a.06.06,0,0,1,0,0s0,0,0,0a.06.06,0,0,1,0,0l0,0v0s0,.08,0,.07l0,0s0,0,0,0a.06.06,0,0,1,0,0s0,0,0,0,0,0,0,0l0,0s0,0,0,0l0,0v.08h0s.07.05.08.05,0,0,0,0,0,0,0,0,0,0,0,.07a.37.37,0,0,0,0,.11.06.06,0,0,1,0,0s0,0,0,0a.13.13,0,0,1,0,.09s0,0,0,0,0,0,0,0h0s0,0,0,0,0,0,0,.05,0,0,0,0a.41.41,0,0,1,0,.11v.08a.33.33,0,0,1,0,.06.06.06,0,0,0,0,0s0,.05,0,.06,0,0,0,0,0,0,0,0,0,0,0,0,0,0,0,.06,0,0,0,0a0,0,0,0,0,0,0s0,0,0,0,0,.06,0,.08,0,0,.07,0h0s0,0,0,0,0,0,0,0,0,0,0,.06,0,0-.06,0,0,0,0,0a0,0,0,0,0,0,0s0,0,0,.08l0,0a0,0,0,0,1,0,0,.09.09,0,0,0,0,.08l0,0,0,0s0,.07,0,.09,0,0,0,0v0a.43.43,0,0,1,0,.05s0,0,0,0,0,0,0,0,0,.09,0,.11.08,0,.08,0,0,0,0,0a.15.15,0,0,0,0,.06s0,0,0,0,0,0,0,.05l0,0s0,0,0,0l0,0s0,0,0,0,0,0,0,0,0,0,0,0,0,0,0,.06,0,0,0,.05v.06s0,0,0,0v0l0,0a.06.06,0,0,0,0,0s0,0,0,.06a.17.17,0,0,1,0,.07s0,.06,0,.08,0,0,0,0,0,0,0,0,0,.06,0,.08a.33.33,0,0,1,0,.1s0,0,0,0,0,0,0,0,0,.05,0,.05h0a.06.06,0,0,1,0,0,.14.14,0,0,1,0,.06s0,0,0,0a.06.06,0,0,1,0,0l0,0s0,0,0,0,0,0,0,0l0,0s0,0,0,0,0,0,0,0a0,0,0,0,1,0,0,0,0,0,0,1,0,0h0s0,0,0,.06,0,0,0,0h0s0,0,0,0a0,0,0,0,1,0,0s0,0-.07,0-.06,0,0,0,0,0,0,0a.06.06,0,0,1,0,0h0a0,0,0,0,0,0,0v0h0s0,0,0,0h0l0,0h0s0,0,0,0a.09.09,0,0,0,0,.07h0s0,0,0,.07l0,0v0s0,0,0,0h0s0,0,0,0,0,0,0,0,0,0,0,0,0,0-.05,0,0,0,0,0V50s0,0,0,0v0s0,0,0,0,0,.06,0,.09a.17.17,0,0,0,0,.07v0s0,0,0,0,0,0,0,0l0,0,0,0h0s0,0,0,0,0,0,0,0v0h0v0l0,0s0,0,0,0v.11s0,0,0,0,0,0,0,0v.11a0,0,0,0,0,0,0V51l0,0h0s0,0,0,0l0,0s0,0,0,.07v.09s0,.09,0,.1h0v.07s0,0,0,0,0,0,0,0h0l0,0,0,0s0,0,0,.06,0,0,0,0h0s0,0,0,0v0s0,0,0,0,0,0,0,0l0,0s0,.06,0,.07v0s0,0,0,0,0,0,0,0a.06.06,0,0,1,0,0v.06s0,0,0,.05,0,0,0,0l0,0h0s0,0,0,0,0,0,0,0h0s0,0,0,.08l0,.09s0,.07,0,.09,0,0,.06-.06a0,0,0,0,1,0,0s0,0,0,0l0,.07a.07.07,0,0,1,0,0s0,0,0,0,0,0,0,0,0,0,0,0,0,0,0,.06,0,0,0,0h0s0,0,0,0,0,0,0,0-.06,0,0,.06a.05.05,0,0,1,0,0s0,0,0,0,0,0,.05,0a0,0,0,0,1,0,0,.15.15,0,0,1-.09,0s-.06,0-.08,0a.05.05,0,0,0,0,0s0,0,0,0,0,0,0,0,0,0,0,0l0,0s0,0,0,0,0,0,0,0,0,.08,0,.09h0s0,0,0,0-.09,0-.06,0,0,0,0,0,0,0,0,0,0,0,0,0,0,0,0,0,.06,0,.07,0-.05,0-.05.06.07-.07.11,0l0,0a.13.13,0,0,1,0,.06.08.08,0,0,1,0,0l0,0s0,0,0,0,0,0,0,0a.13.13,0,0,0-.09,0l0,0s-.06,0,0,.05l.05,0a.06.06,0,0,0,0,0l0,0a.2.2,0,0,1,.08,0s0,.05,0,.06-.08,0-.09,0,0,.06,0,.07l.05,0v0h0s0,0,0,.08,0,0,0,0,0,0,0,0,0,0-.07,0l0,0h-.06s-.07,0-.09,0,.05,0,.08,0h.1s0,0,0,0,0,0-.05,0a0,0,0,0,0,0,0s0,0,0,0,0,.06,0,.08a.14.14,0,0,1,0,.08l0,0,0,0s-.05.05,0,.08,0,0,0,0a.09.09,0,0,1,0,0s.06,0,.05,0l0,0s0,0,0,0,0,0,0,0,0,0,0,0l0,0s0,0,0,0,0,0,0,0,0,0,0,0,0,.06,0,.09-.07,0-.06,0,0,0,0,0,0,0,0,.06,0,0,0,0,0-.06,0,0,0,0,0,0,0,.06,0,.09,0,0,0,.07,0,0,.06,0,0-.09,0-.07,0,.11-.08.12-.07,0-.1,0,0,.07,0,.1,0,0,0,0,0,0,0,0-.08,0,0,.06h0s0,0,0,0,0,.06,0,.08.07,0,.09,0,0,.07,0,.09,0,0,.06,0,.05.05,0,.08-.2,0-.19,0-.06.05,0,.1.06,0,.07.09-.07,0-.06.07,0,0,0,0,0,0,0,0,.05,0,.08,0a.12.12,0,0,0,.05,0s-.05,0,0-.06.07,0,.06,0,0,0,0,0a.06.06,0,0,0,0,0,.28.28,0,0,1,0,.09s0,0,0,0l0,0s.06,0,.07,0a.12.12,0,0,1-.07,0s-.16,0-.12.07l0,0s0,0,0,0,0,0,0,.06a.19.19,0,0,1,0,.16s-.07,0-.07.08.08.07.11.09,0,.06,0,.08.06,0,.08,0,0,0,0,.09h0s.12-.07.12,0l0,0s0,0,0,0,0,0,0,0,0,0,0,0,0,0,0,0,.06.13,0,.17-.06,0,0,.07,0,0,.07,0,.19,0,.11.05h-.05l0,0s0,0,0,.08a.12.12,0,0,0,0,.08l.08,0s0,0,0,0v0s0,0-.06.05,0,.07.08.1-.09.05-.06.12h.08s0,0,0,0a.13.13,0,0,0,0,.06.15.15,0,0,1,0,.06s0,0,0,.06,0,0,0,0,0,0,0,0-.08,0,0,0-.13-.09-.14,0,0,.06.06.09a.06.06,0,0,1,0,.09s0,0,0,.06,0,0,0,0a0,0,0,0,1,0,0v0s0,0,0,0,0,0,0,0,.05,0,.06,0a0,0,0,0,1,0,0h0a0,0,0,0,1,0,0s0,0,0,0h0s0,0,.05,0l0,0h.05s0,0,0-.07l0,0,0,0s0,0,0,.06l0,0a0,0,0,0,0,0,0s0,0,0,0,0,0,0,0,0,0,0,0,0,0,0,0,0,0,0,0l0,0s0,0,0,.06,0,0,0,0,0,0,0,0l0,0s0,0,0,0l0,0a0,0,0,0,1,0,0h0s0,0,0,.08,0,.05,0,.07a.08.08,0,0,0,0,.07h0v0s0,0,0,.06,0,0,0,0h0a.11.11,0,0,0,0,0s0,0,.07,0,0,0,0,0,0,0,0,0,0,0,0,0,0,0,.05,0-.06,0-.07.06,0,0,0,.05l0,0-.07.07s0,.05.06.07a.1.1,0,0,1-.1,0h-.12s-.12.07,0,.08a0,0,0,0,0,0,0s0-.08.06-.07a.33.33,0,0,1,.1.06h0a.28.28,0,0,1-.09.07c-.05,0-.1,0-.13,0s0,0,0,0,0,0,0,0h0s0,0,0,0,0,0,0,0,0,0,0,0,0,0,0,0,0,0,0,0,0,0,0,0,0,0,0,.07,0,.08,0,.09.12.09.16.08,0-.1,0-.15a.05.05,0,0,1,0,0s0,0,0,0a.23.23,0,0,0,0,.14s0-.08,0-.06,0,0,.06,0,0,0,0,0,0,0,0,0a.07.07,0,0,1-.06.06s0-.05,0-.06-.09,0-.12.07.07-.07.12,0,0,.09.08.09,0,0,.06,0,.05,0,.07,0a.08.08,0,0,1-.06.1s.07-.08,0-.09-.11.05,0,.06,0,0-.05,0,0,0-.06,0,0,0,0,0,0,0,0,.06-.05,0-.07,0a.22.22,0,0,1,0,.08s-.07,0-.09,0a.1.1,0,0,1,0,0s0,0,0,0,0,0,0,0h0l0,0s0,0,0,0,.06,0,.09,0,0,0,0,0l0,0s0,.08,0,.08,0,0-.06,0l0,0h0s0,0,0,.06,0,0,0,.06,0,0,0,0,.07,0,.09,0,0,.08,0,0h0s0,0,0,0,.06,0,.06,0,0,.06,0,.09,0,.05,0,.06,0,0,0,.05a0,0,0,0,0,.05,0,0,0,0,0,1,0,0s0,0,0,0,.07,0,.08,0,0,.07,0,.06,0,0,0-.06,0,.06,0,.1-.08.06-.1.07-.05.06,0,.1,0,.05,0,.06h-.06s0,0,0,0,0,0,0,0-.09,0-.11,0,0,.06,0,.07l0,.07a.15.15,0,0,0,0,.09h0l0,0a.49.49,0,0,1,.16,0s-.05,0-.07,0,0,0,0,0h0s0,0,0,0-.06,0-.08,0,0,0,0,0l0,0,0,.06a.61.61,0,0,1,0,.12s0,.06,0,.09l0,.07-.11.15-.06.06a.2.2,0,0,1-.07.06l-.43.31-.1,0L44.1,64H44l-.1,0a.82.82,0,0,1-.35,0h-.33l-.21,0a2.4,2.4,0,0,1-.38-.12.53.53,0,0,1-.17-.08,1.1,1.1,0,0,0-.14-.09.65.65,0,0,1-.16-.13.27.27,0,0,1-.07-.08s-.06,0-.08-.07a.39.39,0,0,1-.08-.1.89.89,0,0,1-.08-.17l0,0v0l0-.11a.62.62,0,0,1-.07-.19l0-.07a.34.34,0,0,0,0-.1s0,0,0,0a1,1,0,0,0,0-.18s0-.05,0-.08,0,0,0,0h0a.38.38,0,0,1,0-.1s0-.07,0-.1a.4.4,0,0,0,0-.11.05.05,0,0,1,0,0s0,0,0,0a0,0,0,0,0,0,0v0s0,0,0,0a.33.33,0,0,1,0-.1s0-.18,0-.19a.39.39,0,0,0,0-.15v-.13a.19.19,0,0,1,0-.08l0,0a.07.07,0,0,0,0-.09,1,1,0,0,0,0-.29.38.38,0,0,1,0-.1s0-.07,0-.11,0-.05,0-.08a1.34,1.34,0,0,1,0-.2c0-.09,0-.18,0-.27a.06.06,0,0,1,0,0v0s0-.06,0-.09,0-.06,0-.09,0-.06,0-.1v-.2c0-.05,0-.17,0-.2a.24.24,0,0,1,0-.08s0-.07,0-.11a.48.48,0,0,1,0-.17c0-.06,0-.12,0-.17a.54.54,0,0,1,0-.18c0-.07,0-.14,0-.2s0-.07,0-.11v-.1s0,0,0-.08V58c0-.05,0-.11,0-.16a.14.14,0,0,1,0-.07.27.27,0,0,1,0-.09c0-.06,0-.13,0-.19a1.47,1.47,0,0,0,0-.21c0-.07,0-.14,0-.21a1.36,1.36,0,0,1,0-.2s0-.06,0-.09a.29.29,0,0,1,0-.13.58.58,0,0,0,0-.19v-.1s-.05,0,0-.09,0,0,0-.07v-.11a1.41,1.41,0,0,1,0-.21c0-.07,0-.13,0-.2a.67.67,0,0,1,0-.2.34.34,0,0,1,0-.1.61.61,0,0,0,0-.13.86.86,0,0,0,0-.16,1.73,1.73,0,0,0,0-.32.24.24,0,0,1,0-.08.34.34,0,0,1,0-.1c0-.07,0-.14,0-.21s0-.11,0-.18a.75.75,0,0,0,0-.15c0-.06,0-.09,0-.14a1.11,1.11,0,0,0,0-.19s0-.05,0-.08a.17.17,0,0,0,0-.1.24.24,0,0,0,0-.09l0-.08a.17.17,0,0,1,0-.1s0,0,.08,0a1.62,1.62,0,0,0,0-.22l0-.05s0,0,0,0,0,0,0,0v-.06s0-.09,0-.1,0,0,0,0h0a.86.86,0,0,0,0-.16.43.43,0,0,1,0-.16v-.16a1.48,1.48,0,0,1,0-.21.33.33,0,0,1,0-.14s0,0,0-.08a.19.19,0,0,1,0-.09.24.24,0,0,1,0-.09.34.34,0,0,1,0-.1v-.1s0-.05,0-.09a1.41,1.41,0,0,0,0-.21s0,0,0,0,0,0,0,0a.14.14,0,0,0,0-.09.33.33,0,0,0,0-.1s0,0,0-.08,0-.06,0-.09a.4.4,0,0,0,0-.11,1.14,1.14,0,0,1,0-.32h0c0-.06,0-.12,0-.19a1.41,1.41,0,0,1,0-.2,1.62,1.62,0,0,0,0-.22s0-.06,0-.09,0-.07,0-.1a1.2,1.2,0,0,1,0-.19V48.6a.05.05,0,0,1,0,0,.05.05,0,0,0,0,0,.34.34,0,0,0,0-.1,1.48,1.48,0,0,0,0-.21c0-.07,0-.13,0-.19s0-.06,0-.09,0-.12,0-.18,0,0,0-.08,0-.12,0-.16h0a.44.44,0,0,0,0-.2c0-.08,0-.14,0-.21s0-.27,0-.4,0,0,0-.08,0-.06,0-.08a.62.62,0,0,0,0-.19v-.09s0,0,0,0,0-.07,0-.1a.08.08,0,0,0,0-.08.34.34,0,0,1,0-.1h0s-.09,0-.13.06l0,0h0l-.08,0-.12.06-.12.09-.08,0-.07.05-.15.1a1.3,1.3,0,0,1-.15.1l-.12.08a.34.34,0,0,1-.09.08,1.1,1.1,0,0,0-.14.09l-.13.11a.27.27,0,0,1-.13.1.1.1,0,0,0-.06.05.11.11,0,0,1-.06.07s0,0-.08,0l-.06.07s-.12.06-.17.12a.55.55,0,0,1-.14.12s-.1.09-.14.08,0,.06,0,.07a.67.67,0,0,1-.11.07l-.11.1-.09.08-.08,0-.09,0s0,0-.05.06l-.07.05a.18.18,0,0,0-.07,0s0,0,0,.06a.13.13,0,0,0-.06,0s-.07,0-.07.06,0,0,0,0,0,0,0,0,0,0-.07.05l0,0h-.05l0,.07a.75.75,0,0,0-.13.11.38.38,0,0,1-.13.09s-.05,0-.07.05,0,0-.06,0l0,0s0,0,0,0l-.16.12s-.05.08-.07.08h0a0,0,0,0,0,0,0s-.05,0-.08,0l-.07.06h0c0,.06-.09.06-.14.11l-.13.11-.13.09-.06.06-.08,0-.28.25-.16.13-.06.05,0,0,0,0s0,.06,0,.08h-.05l0,0-.06.06s0,.05-.06.06-.05,0-.07,0,0,0-.06.05a.81.81,0,0,0-.14.12l-.15.11-.09.08s0,.06-.05.07,0,0,0,0l0,0a.2.2,0,0,1-.07.06.93.93,0,0,0-.15.13l-.06.06,0,0,0,0-.07,0-.1.1s-.09,0-.12.08l-.15.13-.14.11c-.06,0-.1.09-.15.12l-.09.06,0,0,0,0c-.06,0-.1.09-.15.12a1.86,1.86,0,0,0-.27.22,1.45,1.45,0,0,0-.18.17,1.18,1.18,0,0,1-.19.11s0,.06-.07.08l-.29.24-.14.12a1,1,0,0,0-.15.13l-.08,0s0,0-.06.06a.81.81,0,0,1-.14.12.74.74,0,0,0-.13.12c-.07.07-.17.11-.24.19s-.08,0-.11.09v0s-.05.06-.09.09l-.09.06-.06,0-.05.06s-.11.05-.14.1,0,0-.05.06a.14.14,0,0,1-.08,0,.2.2,0,0,0-.07.06s0,0,0,.06-.06,0-.08,0-.05,0-.08.06a.45.45,0,0,0-.13.11s0,.05,0,.07-.05,0-.07.07l-.11.12-.08,0c-.05,0,0,0-.06.06s-.08.07-.11.12l-.1.12s0,0,0,.07-.06.05-.08.07l-.12.11s0,.05-.06.06l-.06,0a.38.38,0,0,0-.1.12.14.14,0,0,1-.06.07s-.06,0-.06.05-.07.06-.11.09l-.13.07s-.09,0-.12.09-.15.11-.22.18-.08.12-.14.16l-.1.07-.05.09a.27.27,0,0,1-.07.08l-.07,0s0,0,0,0v0l-.1.06c-.05,0,0,.09-.08.13a.47.47,0,0,1-.09.06.28.28,0,0,0-.07.09l-.11.12s0,0-.07.05a.49.49,0,0,0-.24.23c-.06.11-.09.23-.2.3l-.16.1-.11.13s0,0,0,.07,0,0-.05,0-.06.09-.11.13l-.12.12a.1.1,0,0,1-.06.05s0,0-.05.07l0,0s0,.1-.08.13l-.06,0-.05.06a.26.26,0,0,0-.09.09l-.11.13-.13.1,0,.06-.06.06s-.13.1-.12.13-.07,0-.1.09l-.13.12-.06.06s-.05,0-.07.05,0,0,0,.07l-.05,0,0,0v0h0l0,0a.18.18,0,0,1-.07,0s0,.08-.06.12a.36.36,0,0,0-.07.1.88.88,0,0,1-.12.15l-.07.08-.07,0s0,.05,0,.08-.07,0-.09.06l-.05.07s-.06,0-.08,0,0,.05-.05.07l-.06,0-.05.06a.25.25,0,0,0,0,.07l-.06.08s0,0,0,0-.06.1-.15.14-.08.08-.12.1-.07.07-.11.11a1.13,1.13,0,0,0-.1.13l0,0,0,0-.23.2-.14.13a.15.15,0,0,0-.06,0s0,.05-.05.06-.05,0-.08,0l0,.06-.11.13s0,.05,0,.07-.07,0-.1.05,0,.06-.07.08-.11,0-.09.07a.34.34,0,0,0-.06.06s0,0-.06,0,0,0-.07,0h-.08l0,0,0,0s0,0-.07.06-.14,0-.2,0-.07,0-.1,0a.29.29,0,0,1-.1,0l-.09,0-.1,0s-.06,0-.1,0h0s0,0-.05,0l-.2,0-.09,0s-.07,0-.1,0l-.08,0-.09,0c-.12-.05-.22-.13-.33-.17s-.08-.1-.13-.14-.09,0-.11-.08a.75.75,0,0,1-.06-.13s0,0-.05-.08a1.11,1.11,0,0,1-.09-.19l0-.09a1.09,1.09,0,0,1-.05-.17.36.36,0,0,1,0-.11s0-.08,0-.12-.07-.15-.05-.26.07-.19,0-.22.06-.08,0-.09a.46.46,0,0,1,.09-.2L21,60l.14-.18c.08-.1.14-.2.23-.3a1.93,1.93,0,0,0,.29-.35A.83.83,0,0,1,21.8,59l.17-.18c.12-.11.23-.25.36-.36s.19-.21.29-.3l.31-.27s.1-.09.15-.14a.86.86,0,0,1,.13-.14,1.92,1.92,0,0,0,.17-.13s0-.07.06-.1l.08-.08c.11-.11.24-.19.35-.31a2.7,2.7,0,0,1,.31-.28l.17-.17c.06-.06.12-.09.17-.15l.32-.32L25,56l.05,0,0,0s0,0,.06-.08l.09-.06a.76.76,0,0,0,.09-.09l.08-.07a.2.2,0,0,0,.08-.08,1.14,1.14,0,0,1,.17-.15s0,0,.06,0,0,0,0-.05a.58.58,0,0,1,.12-.1l.13-.11.14-.14.35-.29c.07,0,.12-.11.18-.16l.18-.14s0-.06.07-.08.07,0,.1-.07a1,1,0,0,1,.2-.16s.13-.11.16-.13a1.19,1.19,0,0,1,.18-.15s0,0,0-.06.12-.1.18-.15l.09-.06a.27.27,0,0,1,.08-.07s0-.06.07-.09l.1-.06c.15-.09.26-.25.41-.35a4.38,4.38,0,0,0,.34-.29l.16-.13s.07,0,.1-.06,0-.07.08,0,0-.1.07-.12a.63.63,0,0,1,.12-.07c.12-.1.23-.22.36-.31a.61.61,0,0,0,.16-.16l.07-.08s.07-.06.06-.09.13,0,.17-.07.07-.07.11-.11.23-.13.23-.22,0,0,.06,0,.2-.09.16-.18a.45.45,0,0,0,.21-.15l.28-.22c.09-.09.19-.16.29-.26a.19.19,0,0,1,.09,0s.05-.05.08-.08a1.46,1.46,0,0,1,.19-.16l.35-.29c.13-.08.23-.21.37-.28s.1-.1.17-.13.08-.1.13-.14l.16-.13a1.63,1.63,0,0,0,.17-.11l.14-.13a1,1,0,0,1,.17-.12s0-.05.08-.08l.11-.05s0-.06.07-.08a.31.31,0,0,0,.09-.07s0-.06.07-.09l.09-.07c.06,0,.11-.09.17-.12v0a.55.55,0,0,0,.08-.06.21.21,0,0,0,.1,0l.15-.1.14-.11s.06,0,.08-.05,0-.07.05-.07,0,0,0,0,0,0,.06-.06.05,0,.07-.05l.06,0a.3.3,0,0,1,.17-.1s0,0,0-.06l.06-.06a1.13,1.13,0,0,1,.13-.1h0s0,0,0,0l.09,0s0,0,0-.07.06,0,.06,0l.14-.1S36,47,36,47l0,0,.06,0s0-.05,0-.06l.07,0h0l.23-.16a2.07,2.07,0,0,0,.24-.17c0-.05.11-.09.16-.14a.19.19,0,0,1,.1-.05A.35.35,0,0,0,37,46.2l.08-.07s.07,0,.09,0,0-.06.07-.08.09,0,.08-.07.06,0,.11-.07l.13-.07s.07-.06.11-.09.11,0,.09-.09a.13.13,0,0,0,.09,0,.18.18,0,0,1,.07-.05l.07-.07s0,0,.09,0,0,0,.06-.08a.24.24,0,0,1,.08-.06.7.7,0,0,0,.17-.09l.07-.06s.06,0,.06-.07c.16-.07.29-.23.44-.31s.24-.21.37-.3l.34-.26.09-.07.05,0s0,0,0,0,.06,0,.09-.06l.09-.07a1.77,1.77,0,0,0,.17-.12,1.68,1.68,0,0,1,.45-.3h0c0-.06.11-.08.14-.12a.71.71,0,0,1,.14-.1l.18-.12c.05,0,.1-.11.15-.15l.1,0,.09-.05.09-.06s.09,0,.13-.07v0h0v0s0,0,0-.06,0-.06,0-.09a.14.14,0,0,0,0-.09s0-.06,0,0,0,0,0,0,0,0,0,0,0,0,0-.05a.16.16,0,0,0,0-.07s0,0,0,0a.25.25,0,0,1,0-.09s.07,0,.06,0l0-.08a.48.48,0,0,1,0-.12s0-.05,0-.06,0,0,0,0a.13.13,0,0,1,0-.12s0,0,0,0,0,0,0-.06,0-.14,0-.24,0-.19-.07-.2,0,0,0,0a.08.08,0,0,0-.09,0s-.07,0-.06.08l-.11.05-.09.06-.11.05s0,.07,0,.1-.09,0-.13,0,0,.05-.07.08l-.05,0s0,0,0,0-.08,0-.11,0,0,0,0,0h-.06c0,.08-.07.06-.12.08l-.15,0s-.13,0-.17,0,0,0,0,0h-.08a0,0,0,0,0,0,0c0,.07-.07,0-.1,0s-.09,0-.13.05-.1,0-.12,0,.07,0,.11,0-.11,0-.13,0-.06,0-.08,0l-.08,0h-.05l0,0s0,0-.06,0,0,0,0,0l0,0s-.07,0-.08,0l-.24,0c-.08,0-.17,0-.25,0a.45.45,0,0,1-.11,0h-.14c-.06,0-.15,0-.21,0v0h0v0a.25.25,0,0,1-.12,0h-.09s-.07,0-.11,0l-.1,0-.1,0H37.7l-.09,0a.18.18,0,0,0-.11,0s0,0,0,0,0,0-.06-.06,0,0-.06-.05L37.21,42a1.06,1.06,0,0,1-.27-.18s0,0,0,0,0,0,0,0-.1-.09-.16-.14-.12-.12-.17-.19,0-.05-.07-.08,0-.08,0-.11,0,0-.06-.09a.18.18,0,0,0,0-.1s0-.12,0-.16,0-.11-.05-.16a.19.19,0,0,0,0-.08s0-.06,0-.09a1.91,1.91,0,0,0-.06-.33.37.37,0,0,1,0-.15c0-.06,0-.1,0-.16s0-.11,0-.14h0a1.09,1.09,0,0,1,0-.18c0-.18,0-.34,0-.49s0-.18,0-.27,0-.07,0-.12,0-.28,0-.42,0-.35,0-.53a.23.23,0,0,0,0-.12.47.47,0,0,1,0-.1c0-.06,0-.22,0-.25s0-.08,0-.12a.57.57,0,0,0,0-.13l0-.11s0-.09,0-.12,0,0,0-.11a.66.66,0,0,1,0-.14,2.67,2.67,0,0,1,0-.4c0-.14,0-.27,0-.4a.67.67,0,0,0,0-.2s0,0,0,0,0,0,0,0,0-.08,0-.09,0,0,0,0v0a.17.17,0,0,1,0-.1.67.67,0,0,0,.06-.12s0-.1,0-.15a.36.36,0,0,1,0-.1,1.16,1.16,0,0,0,0-.18s0,0,0-.06,0-.05,0-.07a.94.94,0,0,0,0-.16c0-.11,0-.22,0-.33s0-.12.05-.18a1.16,1.16,0,0,1,0-.18.64.64,0,0,0,.06-.18c0-.05,0-.1,0-.15a.74.74,0,0,1,0-.14l0-.11s0,0,0-.06,0,0,.05-.06,0-.07,0-.1l0-.07,0-.08a1,1,0,0,1,.07-.18l0-.07a.32.32,0,0,0,0-.09l0-.07,0-.07,0-.07,0,0a.06.06,0,0,0,0,0s0,0,0,0,0,0,0,0,0,0,0-.07l.06-.08s0-.06,0-.07h0s0-.07,0-.11.06-.06.08-.1,0-.07.07-.1l0,0s0,0,0,0,0,0,0-.07.09-.13.1-.12a.81.81,0,0,1,.12-.18s0-.08.06-.11,0,0,0,0l0-.05a.58.58,0,0,1,.1-.12l.05-.06a.08.08,0,0,1,0,0h0l0-.08.05-.07a1.31,1.31,0,0,0,.12-.11,3,3,0,0,1,.26-.22,1.18,1.18,0,0,1,.28-.2s.07-.07.09-.08,0,0,.06,0,0,0,0,0,0,0,.05,0l0,0,0,0a.23.23,0,0,1,.07-.07s.06,0,.07-.06.06,0,.06,0a.37.37,0,0,1,.14-.07l.09,0,.09,0s0,0,.07,0a.13.13,0,0,0,.08,0l.16-.05a1,1,0,0,0,.18,0c.05,0,0,0,.07,0l.09,0h.11l.09,0h.09l.09,0h.07l.08,0,.09,0,.09,0,0,.07.06.06a.1.1,0,0,1,0,.07s0,.06,0,.07h0s0,.05,0,.09a.14.14,0,0,0,0,.07.31.31,0,0,1,0,.19s0,.1,0,.14,0,0,0,0,.06,0,.05.08-.08.16-.08.19a.22.22,0,0,1,0,.08s0,0,0,.06,0,.14,0,.15-.06.06-.08.08l0,.05s0,0,0,.06,0,0,0,.07,0,0-.07,0a.19.19,0,0,1,0,.08s0,0,0,.06-.05.12-.08.12-.06,0-.08.05,0,.05-.07.07-.06,0-.08,0v0s0,0,0,0a0,0,0,0,1,0,0s-.11.11-.14.14a.51.51,0,0,0-.06.21h0c0,.1,0,.08-.12.14v0s0,.07-.07.1-.1.06,0,.09a.27.27,0,0,0,0,.13h0s-.05.08-.07.1-.08,0-.08,0,0,.13-.06.12,0,.07,0,.09-.05.06-.06.09-.08.16-.08.22-.06.16-.05.24-.11.12-.15.18a1.46,1.46,0,0,0-.07.19.65.65,0,0,0-.06.23,1.74,1.74,0,0,1,0,.22l0,.09s0,.06,0,.1a.24.24,0,0,0,0,.08.31.31,0,0,1,0,.1c0,.06-.06.1-.08.16a.29.29,0,0,0,0,.1s.06.29,0,.29,0,.06,0,.12,0,.07,0,.11,0,0,0,0l0,0s0,.09,0,.08a.91.91,0,0,1,.05.21s0,.17-.08.18a.25.25,0,0,1,0,.08l0,0c0,.05,0,.1,0,.15s0,.06,0,.09,0,.07,0,.12a.69.69,0,0,1,0,.2,1.13,1.13,0,0,0,0,.41c0,.07,0,.14,0,.21a.84.84,0,0,1-.05.17s0,0,0,.07a.41.41,0,0,0,0,.11.36.36,0,0,0,0,.1.23.23,0,0,1,0,.16l0,.07s.05,0,.05.07,0,.05,0,.07a1.27,1.27,0,0,0,0,.39,2.59,2.59,0,0,0,.09.4.34.34,0,0,0,.06.06.27.27,0,0,1,0,.12.32.32,0,0,0,.09.17.5.5,0,0,0,.14.15l.1.07.11,0,.09,0h.1a1.5,1.5,0,0,0,.2,0,1.94,1.94,0,0,0,.33-.07l.09-.05a.38.38,0,0,0,.1,0l.1-.05.07,0s0,0,.07,0l.08-.05s0,0,0,0l0,0,0-.06h0l.1-.08.19-.23.1-.11a1.75,1.75,0,0,0,.29-.69c0-.07,0-.14,0-.2a.16.16,0,0,0,0-.09.38.38,0,0,1,0-.1,2.7,2.7,0,0,0,.06-.41,1.2,1.2,0,0,1,0-.2c0-.08,0-.16,0-.24s0,0,0-.07a.34.34,0,0,0,0-.1c0-.11,0-.2,0-.31a1.1,1.1,0,0,0,0-.18,1.15,1.15,0,0,0,0-.18h0c0-.06,0-.13,0-.19a.88.88,0,0,1,0-.16c0-.07,0-.13,0-.19s0-.14,0-.21v0l0,0a.48.48,0,0,0,0-.12c0-.09,0-.16,0-.24a.78.78,0,0,1,0-.22.65.65,0,0,0,0-.24s0-.06,0-.09,0,0,0,0,0,0,0,0a1.33,1.33,0,0,0,0-.2s-.06,0-.06,0a.31.31,0,0,1,0-.08c0-.08.06,0,.09,0a.76.76,0,0,0,0-.15c0-.06,0-.09,0-.15a1.28,1.28,0,0,1,0-.19,1.08,1.08,0,0,1,0-.18.41.41,0,0,0,0-.11.43.43,0,0,1,0-.11.34.34,0,0,1,0-.1.17.17,0,0,0,0-.1,1,1,0,0,1,0-.24s0-.06,0-.1a.33.33,0,0,0,0-.1,1.38,1.38,0,0,1,0-.2.74.74,0,0,0,0-.21,1.85,1.85,0,0,1,0-.23.34.34,0,0,0,0-.1s0,0,0-.05,0,0,0,0,0-.06,0-.09a.34.34,0,0,0,0-.1,1.62,1.62,0,0,1,0-.22.11.11,0,0,0,0-.08s0,0,0,0a.05.05,0,0,1,0,0,.63.63,0,0,0,0-.19.66.66,0,0,1,0-.14v-.14a1.06,1.06,0,0,1,0-.25,1.64,1.64,0,0,1,0-.22s0-.06,0-.09,0-.09,0-.14a1.18,1.18,0,0,1,0-.2,1.27,1.27,0,0,1,0-.2.54.54,0,0,1,0-.1s0-.06,0-.09a.42.42,0,0,1,.09-.19s0,0,0,0,0,0,0,0a.2.2,0,0,1,.06-.07s0,0,0,0h0s.08-.09.11-.13a.94.94,0,0,1,.1-.1l.12-.09c.05,0,.07-.07.12-.08a.05.05,0,0,1,0,0s.07,0,.1,0,0,0,0-.05h.1l.08,0,.15-.08a1.13,1.13,0,0,1,.45,0,1,1,0,0,0,.25,0,1,1,0,0,1,.23.06c.13.05.27.07.35.2s.08.08.11.13a.18.18,0,0,1,0,.07s0,0,.06.06a.11.11,0,0,1,.06.15s0,0,0,.07.08,0,.1,0,0,0,0,0-.08,0-.09,0,0,.05.06.07,0,.05,0,.08,0,.06,0,.09a.41.41,0,0,1,0,.11s0,.06,0,.09,0,.05,0,.08,0,.07,0,.08,0,0,0,0v.09a.22.22,0,0,0,0,.14s0,0,.06.06,0,0,0,.06-.06,0-.07,0,0,.07,0,.11,0,0,0,.07a.1.1,0,0,0,0,.09c0,.07,0,.08,0,.09s0,.13,0,.19,0,.07,0,.11,0,0,0,.07,0,0,0,.07,0,.05.05.08,0,.1-.07.15,0,.05,0,.07a.1.1,0,0,1,0,.09.14.14,0,0,0,0,.09.32.32,0,0,1,0,.09s0,.05,0,.09,0,0,0,0l0,0s0,0,0,.06a.08.08,0,0,1,0,.09s0,0,0,0a.07.07,0,0,0,0,.06s.08.06,0,.11a0,0,0,0,1,0,0s0,.09,0,.12,0,.08,0,.11.06,0,.07,0-.06.1-.08.11a1.93,1.93,0,0,0,0,.24c0,.05,0,.09,0,.14a.42.42,0,0,1,0,.12s0,.06,0,.11-.06,0-.05.09,0,0,0,.05,0,0,0,0,0,.09,0,.13a2.71,2.71,0,0,1,0,.29V33l0,.15c0,.18,0,.37,0,.55s-.05.41-.06.62c0,0,0,.12,0,.16a1.21,1.21,0,0,0,0,.19,1.11,1.11,0,0,1,0,.19s-.06.12,0,.14h0s0,0,0,.05,0,0,0,.06a.66.66,0,0,1,0,.14c0,.09,0,.18,0,.28a2.83,2.83,0,0,0,0,.29.29.29,0,0,1,0,.13s-.06.08,0,.08,0,.12,0,.18,0,.13,0,.18a1.33,1.33,0,0,0,0,.2s0,.08,0,.1.05,0,.08,0,0,0,0,0,0,.05,0,.08V37a.8.8,0,0,1,0,.27.5.5,0,0,1,0,.12s0,0,0,.06,0,0,0,0,0,0,0,0a.15.15,0,0,0,0,.07v.27c0,.06.06,0,.07.09s0,0,0,.07,0,0,0,0v0s0,0,0,.07,0,0,0,.08a.23.23,0,0,1-.06.15s0,0,0,.07.06,0,.05.07h-.05s0,.17,0,.18-.08.1,0,.08a.21.21,0,0,1,0,.15c0,.06,0,.06,0,.11s0,0,0,0,0,0,0,0,0,0,0,.06,0,0,0,.07,0,0,0,0,0,0,0,0,0,0,0,0a.15.15,0,0,1,0,.08c0,.06,0,.13,0,.19a.42.42,0,0,0,0,.19.36.36,0,0,1,0,.18.17.17,0,0,0,0,.17.28.28,0,0,1,0,.18s0,0,0,.07,0,.06,0,.09,0,0,0,.08,0,0,0,.07a.29.29,0,0,1,0,.15h0s.15,0,.17,0a.18.18,0,0,0,.07-.05l0,0h0s0-.05.05-.06l0,0s0,0,0,0l.07,0,.07,0s0,0,.05,0l.08,0,.16-.1a.13.13,0,0,1,.06,0s.05,0,.08-.06.12-.06.17-.1L46,40a.22.22,0,0,0,.11-.05s0-.06.07-.07a.15.15,0,0,0,.09,0,.47.47,0,0,0,.09-.06,3.17,3.17,0,0,1,.49-.32l.8-.5a4.55,4.55,0,0,1,.43-.28c.15-.07.29-.19.44-.25h0s.09-.07.11-.09l.1-.07.08,0a.6.6,0,0,0,.11-.06.46.46,0,0,1,.16-.11.6.6,0,0,0,.16-.08l.16-.12h0a.19.19,0,0,1,.12-.07l.14,0c.06,0,.1-.08.16-.11a1.1,1.1,0,0,0,.14-.09s0,0,0,0a.22.22,0,0,0,.09-.07s.1,0,.15-.09a1,1,0,0,1,.17-.1l.18-.06a.58.58,0,0,1,.18-.08.34.34,0,0,0,.14-.09l0-.06s0,0,.08,0,.09-.07.13-.11l0,0s0,0,0,0a.19.19,0,0,1,.1-.05s0,0,.08,0l.08,0,.08,0s0,0,.07,0a.36.36,0,0,1,.14-.1h0a0,0,0,0,1,0,0h0s0,0,0,0l0,0h0s0,0,0-.07,0,0,.08,0,.06,0,.08-.05,0,0,.08,0,0,0,.07-.06a.2.2,0,0,0,.08,0s0,0,.08,0l.11,0a.5.5,0,0,1,.12-.08l.35-.22a1,1,0,0,0,.16-.12s0,0,.08,0l.08-.05s.06-.08.13-.1l.17-.08c.11,0,.2-.12.31-.16a.6.6,0,0,0,.15-.09l.18-.11c.11-.08.24-.13.36-.2l.35-.2.07,0,.09,0,0,0s0,0,0,0,.05,0,.07-.06a1.32,1.32,0,0,1,.33-.18,2.33,2.33,0,0,1,.34-.2s.07,0,.1-.05a.47.47,0,0,0,.09-.06l.11-.07.05,0c.07,0,.16-.08.23-.14l.08,0,.09,0v0a.47.47,0,0,1,.14-.08,2.43,2.43,0,0,0,.35-.2l.07,0a.24.24,0,0,0,.1-.06l.18-.09c.26-.12.48-.29.73-.43l.34-.16.21-.12.08,0,.08,0s0,0,.07-.06.06,0,.08-.05l.14-.08c.06,0,.08-.07.14-.09l.2-.13.07,0,.12-.08s0,0,.07,0a.1.1,0,0,0,.05-.08c0-.1,0-.08-.07-.1a.44.44,0,0,1-.18-.09l-.07-.06-.08-.06a.69.69,0,0,1-.11-.13l-.07-.08a.42.42,0,0,1,0-.1.32.32,0,0,0,0-.09s0,0-.05,0a.15.15,0,0,1,0-.09.34.34,0,0,0,0-.1.52.52,0,0,1,0-.18,1.5,1.5,0,0,0,0-.22,2.94,2.94,0,0,1,0-.42,1.36,1.36,0,0,0,0-.2l0-.1a.41.41,0,0,1,0-.11.16.16,0,0,0,0-.1s0,0,0-.09,0-.09,0-.14,0-.08,0-.13l0,0v0a.41.41,0,0,0,0-.11,1.77,1.77,0,0,0,0-.23.74.74,0,0,1,0-.21.56.56,0,0,0,0-.23.71.71,0,0,0,0-.2c0-.06-.06-.09,0-.16a1,1,0,0,0,0-.25s0-.07,0-.1a.32.32,0,0,1,0-.09.61.61,0,0,0,0-.18s0-.05,0-.06l0,0a.28.28,0,0,1,0-.13s0,0,0,0l0,0a.13.13,0,0,1,0-.11s0,0,0-.06a.17.17,0,0,0,0-.1h0s0-.06,0-.1,0,0,0,0l0,0s0-.07,0-.09a1.11,1.11,0,0,0,0-.17s0,0,0-.08l0-.45c0-.07,0-.14,0-.21a.41.41,0,0,0,0-.19h0s0,0,0,0l0,0a.14.14,0,0,0,0-.09,1.62,1.62,0,0,0,0-.22,3.84,3.84,0,0,1,0-.48,3.24,3.24,0,0,0,0-.44.27.27,0,0,1,0-.09s0,0,0,0,0,0,0,0,0-.05,0-.08a.22.22,0,0,0,0-.08.41.41,0,0,0-.31-.21.44.44,0,0,1-.2,0l0,0h0s0,0,0,0a.06.06,0,0,0-.06,0,.16.16,0,0,0-.09,0,.68.68,0,0,1-.15,0,.27.27,0,0,0-.17.08s-.06,0-.1,0a.46.46,0,0,0-.07.07s-.07,0-.1,0,0,0-.06,0-.06.13-.14.14-.06,0-.09,0l-.07.05,0,.07s0,0,0,.06,0,0,0,.06a.29.29,0,0,1-.13.08c0,.06,0,.15,0,.19l-.07,0-.08.05-.16.14-.08.1s0,0-.06,0,0,0,0-.05h0s0,.05.06.08a.22.22,0,0,1,0,.18.78.78,0,0,1-.15.1l-.08,0s0,0,0,.07a.28.28,0,0,1,0,.2.32.32,0,0,1,0,.09s0,.06,0,.09,0,0,0,0,0,0,0,0,0,0,0,.05-.05,0-.06,0,0,0,0,0,0,0,0,.08,0,.06,0,.09v.11s0,.05,0,.06,0,0,0,0,0,.05,0,.09a.06.06,0,0,1,0,.06s-.07.07,0,.11.08,0,.1,0,0,.07,0,.1,0,0,0,0,0,0-.06,0-.06-.1-.07-.06.05,0,0,.08h0l0,0c0,.07,0,.1.09.09s.07,0,.07,0,0,0-.06.05,0,0,0,.06,0,0,0,.06-.08,0-.12.07.07,0,.1,0l.06.06c0,.06-.12,0-.16,0s-.1.06-.09.1,0,.05,0,.08,0,.06,0,.09,0,0,0,.07a.06.06,0,0,1,0,.07s.05,0,.07.07l0,.06c0,.05.05.08,0,.12s0,.12-.08.11-.06,0-.07,0,0,0,0,0-.09.05-.12.09.06,0,.06.1,0,0,0,0a.32.32,0,0,1-.09,0,.27.27,0,0,0,0,.09h0s0,0,0,.07,0,0,0,0,.06.09.11.12,0,0,0,0,0,0,0,0,0,.07,0,.08-.05,0-.05.05,0,0,0,.05a.31.31,0,0,1,0,.09s0,0,0,.07l0,0c.05,0,.07,0,0,.06l-.09,0a.08.08,0,0,1-.08,0s0-.11,0-.14,0,.06,0,.07,0,0,0,.07,0,0,0,0-.14.08-.06.1-.05.05,0,.11,0,0,0,0,0,0,0,0,0,0,0,.08h-.07s0,0,0,0,0,.05,0,.07,0,0,0,.05,0,.11,0,.15v.18a.74.74,0,0,0,0,.21v.11s0,.07,0,.09.07,0,.07.05-.06.05-.06.07a0,0,0,0,0,0,0s0-.07.07-.05h0c0,.05,0,.12,0,.14s-.1,0-.09.06.05,0,.05.07,0,0-.05,0,0,.05,0,.09,0,.06,0,.08,0,0,0,0v.05s-.12,0-.13,0,.09,0,.12.05,0,0,0,0a.24.24,0,0,1,0,.09c0,.06-.06.08-.08.13s0,0,0,0,0,0,0,0a.94.94,0,0,0,0,.09s-.06.05-.06.08,0,0,0,0,0,0,0,0,0,.07,0,.1.05.07,0,.06,0-.16-.1-.13,0,.09,0,.14,0,.1,0,.13.05.05.06.1a.23.23,0,0,1,0,.14s-.07,0-.08,0,0,0,0,0l-.05,0-.06.07s.06.09-.06.08,0,0,0,.06l0,0s0,0,0,.06,0,0,0,.05.09,0,0,.06,0,0-.05,0a.05.05,0,0,0,0,0h0s0,0,0,.05l0,0a.53.53,0,0,1,0,.13s-.19,0-.13.1h0s-.06.05-.08,0h0a.21.21,0,0,1-.06.1l0,0s0,0,0,0,0,0-.05,0l0,0-.09.06-.06.05-.17.07,0,0h-.06s0,.07-.09.07a.17.17,0,0,0-.11,0,.28.28,0,0,1-.09.06l-.25.1c-.1,0-.19,0-.28.05s-.16,0-.25,0h-.12l-.12,0a.46.46,0,0,1-.23-.12c-.08,0-.13-.07-.17-.17a.56.56,0,0,0,0-.12l0-.06s0,0,0,0l0,0a.82.82,0,0,1,0-.26.41.41,0,0,1,0-.11s0-.08,0-.11a.76.76,0,0,1,0-.15s0,0,0-.05,0,0,0-.08a.31.31,0,0,1,0-.1.86.86,0,0,1,0-.16.59.59,0,0,0,0-.13s0,0,0-.07a.26.26,0,0,0,0-.05s0-.08,0-.13,0-.08,0-.13a2.83,2.83,0,0,0,0-.29.53.53,0,0,1,0-.13s.06-.09,0-.1,0-.06,0-.09a.75.75,0,0,0,0-.15h0s0-.1,0-.15,0-.13,0-.16v0h0s0-.07,0-.1a.34.34,0,0,0,0-.1c0-.06,0-.12,0-.18s0-.13,0-.2,0,0,0-.07a.15.15,0,0,0,0-.07,2.71,2.71,0,0,0,0-.29,2.62,2.62,0,0,0,0-.28.62.62,0,0,0,0-.13c0-.05,0-.12,0-.17s0,0,0,0,0,0,0,0,0-.07,0-.11a.28.28,0,0,0,0-.09s0-.12,0-.16,0-.06,0-.08a.42.42,0,0,1,0-.16,1,1,0,0,0,0-.28c0-.06,0-.07,0-.13s0,0,0,0v-.05a2.53,2.53,0,0,1,0-.28,2.26,2.26,0,0,1,0-.27A2.65,2.65,0,0,0,53,27s0,0,0-.07,0,0,0-.06,0,0,0-.06,0,0,0,0a.74.74,0,0,0,0-.26,2.28,2.28,0,0,1,0-.26A1.29,1.29,0,0,1,53,26a1.45,1.45,0,0,0,0-.36c0-.15,0-.29,0-.44a1.48,1.48,0,0,0,0-.21,1.81,1.81,0,0,1,0-.23,1.86,1.86,0,0,1,.12-.38,1.34,1.34,0,0,0,.07-.18,1.3,1.3,0,0,1,.08-.17,1.19,1.19,0,0,1,.09-.15,1.3,1.3,0,0,1,.1-.15.71.71,0,0,1,.1-.14c0-.06.08-.16.16-.17s.06-.07.09-.09l0,0s0,0,0,0h0a.08.08,0,0,0,0,0l.1-.06a.81.81,0,0,1,.18-.1c.07,0,.12-.09.19-.11h.05l.09,0a.8.8,0,0,1,.2-.07,2.12,2.12,0,0,1,.44-.06.75.75,0,0,1,.21,0,.31.31,0,0,0,.21,0s0,0,.06-.06l.08,0a.34.34,0,0,1,.2,0s0,0,.08,0,.06,0,.07.05,0,.05.06.06a.71.71,0,0,0,.14,0,.14.14,0,0,1,.09,0l.09,0a.25.25,0,0,0,.17,0s.07,0,.11,0l.08,0,.09-.06.09,0,.16-.08a.42.42,0,0,0,.15-.11s0,0,.06-.06l.06,0a.76.76,0,0,0,.14-.11s0-.08.06-.12,0,0,.07,0,0-.05,0-.05,0,0,0,0a1,1,0,0,1,.24-.26l.08-.06.07-.06.11-.13a.47.47,0,0,1,.14-.14l.09-.08a.41.41,0,0,0,0-.08s.11-.07.15-.1l.17-.1.33-.2a1.51,1.51,0,0,0,.18-.09l.13-.05.07-.06a.53.53,0,0,1,.18,0l.1,0a.22.22,0,0,1,.11,0l.06,0h0l.07,0a1.7,1.7,0,0,1,.22,0h.21l.23,0a.69.69,0,0,1,.2,0,3.88,3.88,0,0,1,.36.15s.06.05.08.07a.27.27,0,0,1,.08.07s.06.13.11.12.08-.13.08,0,0,.05,0,.08,0,0,0,.06a.24.24,0,0,0,.06.08s0,0,0,.07,0,.1,0,.15.05-.06.07,0,0,.07,0,.08,0,.11,0,.17,0,.08,0,.09.07,0,.1,0,0,.09.08.14-.09,0-.12,0a.38.38,0,0,0,0,.21s0,0,.05.08,0,.09.07.11.07,0,.09,0,0,0,0,0,0,.05,0,.07,0,.07,0,.13l0,.06s0,0,0,0,0,0,0,0,0,0,0,0h-.06l0,0h0s0,0,0,0a.1.1,0,0,0,0,.07.49.49,0,0,0,0,.21V23s0,.05,0,.07,0,.06,0,.08,0,0,0,0,0,.08,0,.09.06,0,.07,0,.08-.13.11-.09,0,0,0,0v0s0,.05,0,.09a.21.21,0,0,0,0,.19c.06,0,0,.09.08,0s0,.06,0,.07-.05,0-.07,0-.05,0-.05.06,0,0,0,.06a.09.09,0,0,1,0,.07s-.07,0-.06,0,0,0,.07,0,0,0,0,0,0,.05,0,.06,0,0,0,0,0,.05,0,.09a.17.17,0,0,1,0,.1c0,.07,0,.07.06.09l0,0v0s0,0,0,0,0,0-.06,0,0,0-.08,0a.81.81,0,0,0,0,.22.08.08,0,0,0,.09.06s.07,0,.05.06a.13.13,0,0,1-.09.05s0,0,0,.05,0,.1,0,.11,0,0,0,0,0,0,0,0,.06,0,.08.05,0,0,0,0-.07,0-.09,0,0,.13,0,.15l0,0s0,.07,0,.09a1,1,0,0,0,0,.25v.24c0,.07,0,.15,0,.23a1.64,1.64,0,0,1,0,.22.28.28,0,0,0,0,.13c0,.05,0,0,.06.05s0,0,0,.08,0,0,0,.07-.08,0-.09,0,0,0,0,0,0,0,0,0l0,0v.05s0,.06,0,.08.07,0,0,.05-.06,0-.08,0,0,0,0,.05,0,0,0,.06,0,0,0,.06,0,0,0,.06l.12,0c.06,0,0,0,0,.08s-.07,0-.06.06a.19.19,0,0,0,0,.07.06.06,0,0,0,0,0l0,.06s0,0,0,0,0,0,0,0l0,.05s0-.07,0-.08,0,0,0,0l0,.07s0,0,0,.05,0,0,0,.06v.08a.43.43,0,0,1,0,.16s0,0-.06,0,0,0,0,.05A.27.27,0,0,0,62,28s0,0,0,0,0,0,0,0,.05,0,.07,0,0-.06,0-.07,0,0,0,0,0,0,0,0v0s-.06,0-.09,0,0,0,0,.06.09,0,0,0-.06,0-.09,0,0,.13.07.14.06,0,.07,0,0,.07,0,.08,0-.05-.07,0a.07.07,0,0,0,0,.08s0,0,0,.08a.24.24,0,0,1,0,.08s0,0,0,.06a.05.05,0,0,1,0,0l0,0s0,0,.08,0a.11.11,0,0,1,.08,0s-.12.13,0,.13,0,.07,0,.09.06,0,.08,0,0,0,0,0h0a.08.08,0,0,1,0,.08c0,.06-.06.11-.12.11s0,0,0,.05,0,0,0,0,0,0,0,0,0,0,0,.05.06,0,.07,0,0,.05.06.05v.09h0s0,.09,0,.09,0,0,.06,0,0,0,0,.05,0,0,0,0,0,.05,0,0a.13.13,0,0,1,.12,0s0,.08.06.14a.23.23,0,0,0,.12.06v0s.07,0,.11,0H63a1.21,1.21,0,0,0,.36-.1A1.66,1.66,0,0,1,63.5,30s.15,0,.16-.07l.07,0,.16-.08S64,29.77,64,29.74Z"/>
      <path class="cls-1" d="M161,30.77A6.82,6.82,0,0,0,158.59,29a8,8,0,0,0-3.33-.66,8.26,8.26,0,0,0-3.36.66,7.32,7.32,0,0,0-2.56,1.86,8.35,8.35,0,0,0-1.64,2.85,12.07,12.07,0,0,0,0,7.33,8.37,8.37,0,0,0,1.65,2.87A7.34,7.34,0,0,0,152,45.71a8.55,8.55,0,0,0,3.42.66,8.33,8.33,0,0,0,2.53-.34,7,7,0,0,0,1.84-.84A6.75,6.75,0,0,0,161,44.13a9.53,9.53,0,0,0,.79-1,2.08,2.08,0,0,0,.37-1.05.94.94,0,0,0-.46-.81,1.65,1.65,0,0,0-.92-.3,1.07,1.07,0,0,0-.66.17,2.28,2.28,0,0,0-.46.5c-.13.18-.31.4-.52.65a4.88,4.88,0,0,1-2.06,1.33,5.12,5.12,0,0,1-1.7.25,5,5,0,0,1-3.86-1.48,6,6,0,0,1-1.37-4.22h11.47c.92,0,1.38-.4,1.38-1.21a11.38,11.38,0,0,0-.5-3.41A8.2,8.2,0,0,0,161,30.77ZM150.3,35.61a7,7,0,0,1,.46-1.87,4.82,4.82,0,0,1,1-1.55,4.46,4.46,0,0,1,1.49-1,5.22,5.22,0,0,1,2.06-.38,4.93,4.93,0,0,1,2.07.4,4.38,4.38,0,0,1,2.38,2.61,7.81,7.81,0,0,1,.43,1.84Z"/>
      <path class="cls-1" d="M178.93,28.94a2.07,2.07,0,0,0-1.11-.31,1,1,0,0,0-.65.2,1.9,1.9,0,0,0-.43.68l-5.3,12.41-5-12.34c-.25-.63-.63-.95-1.15-.95a2,2,0,0,0-1.16.34,1,1,0,0,0-.52.91,1.3,1.3,0,0,0,.13.56c.09.19.18.4.27.62l5.9,14.23-2.46,5.53a2.68,2.68,0,0,0-.22.57,2.38,2.38,0,0,0-.05.41,1.06,1.06,0,0,0,.4.89,1.5,1.5,0,0,0,1,.32,1.24,1.24,0,0,0,.81-.23,2.45,2.45,0,0,0,.51-.71l9.2-21.14.26-.59a1.62,1.62,0,0,0,.11-.53A.94.94,0,0,0,178.93,28.94Z"/>
      <path class="cls-1" d="M106.17,29.73A6,6,0,0,0,102,28.29a7,7,0,0,0-3.5.85,5.4,5.4,0,0,0-2.2,2.22,4.65,4.65,0,0,0-1.87-2.24A6.13,6.13,0,0,0,91,28.29a6.41,6.41,0,0,0-2.58.46,5.78,5.78,0,0,0-1.64,1A4.12,4.12,0,0,0,86,30.87a6,6,0,0,0-.28.63V29.91a1.2,1.2,0,0,0-.36-1,1.69,1.69,0,0,0-1-.27,1.6,1.6,0,0,0-1,.27,1.26,1.26,0,0,0-.34,1V44.68a1.31,1.31,0,0,0,.37,1.07,1.7,1.7,0,0,0,1,.28,1.75,1.75,0,0,0,1.06-.28,1.27,1.27,0,0,0,.39-1.07v-7.2A12.49,12.49,0,0,1,86,35.15,7.63,7.63,0,0,1,86.74,33a4.29,4.29,0,0,1,1.39-1.54,3.84,3.84,0,0,1,2.19-.59,4.67,4.67,0,0,1,1.77.29,2.62,2.62,0,0,1,1.1.81,3,3,0,0,1,.55,1.3A9.1,9.1,0,0,1,93.89,35v9.84c0,.79.5,1.18,1.49,1.18s1.38-.39,1.38-1.18V37.52A12.51,12.51,0,0,1,97,35.18a7.53,7.53,0,0,1,.72-2.13,4.4,4.4,0,0,1,1.39-1.55,3.7,3.7,0,0,1,2.19-.61,4.67,4.67,0,0,1,1.77.29,2.59,2.59,0,0,1,1.09.81,3,3,0,0,1,.56,1.3,9.1,9.1,0,0,1,.15,1.72v9.84c0,.79.5,1.18,1.49,1.18s1.38-.39,1.38-1.18V34.13A5.72,5.72,0,0,0,106.17,29.73Z"/>
      <path class="cls-1" d="M142.68,29.78a6.21,6.21,0,0,0-4.31-1.49,6.49,6.49,0,0,0-2.75.51,7.29,7.29,0,0,0-1.77,1.11,5.64,5.64,0,0,0-1.28,1.59V29.91a1.2,1.2,0,0,0-.36-1,1.67,1.67,0,0,0-1-.27,1.6,1.6,0,0,0-1,.27,1.26,1.26,0,0,0-.34,1V44.68a1.31,1.31,0,0,0,.37,1.07,1.7,1.7,0,0,0,1.05.28,1.75,1.75,0,0,0,1.06-.28,1.25,1.25,0,0,0,.39-1.07V37.5a9.75,9.75,0,0,1,.29-2.31,7.33,7.33,0,0,1,.87-2.11,4.79,4.79,0,0,1,1.54-1.53,4.2,4.2,0,0,1,2.26-.59,3.62,3.62,0,0,1,3,1,4.83,4.83,0,0,1,.83,3v9.81c0,.79.49,1.18,1.48,1.18s1.38-.39,1.38-1.18V34.33A5.82,5.82,0,0,0,142.68,29.78Z"/>
      <path class="cls-1" d="M124.76,30.67a7.37,7.37,0,0,0-2.61-1.77,9.64,9.64,0,0,0-6.75,0,7.37,7.37,0,0,0-2.61,1.77,8.08,8.08,0,0,0-1.69,2.83,12.56,12.56,0,0,0,0,7.61A8.08,8.08,0,0,0,112.79,44a7.55,7.55,0,0,0,2.61,1.79,9.5,9.5,0,0,0,6.75,0A7.55,7.55,0,0,0,124.76,44a8.08,8.08,0,0,0,1.69-2.85,12.56,12.56,0,0,0,0-7.61A8.08,8.08,0,0,0,124.76,30.67Zm-2.11,11.45a5.17,5.17,0,0,1-7.75,0,7.73,7.73,0,0,1-1.35-4.82,7.58,7.58,0,0,1,1.35-4.79,5.23,5.23,0,0,1,7.75,0A7.58,7.58,0,0,1,124,37.3,7.73,7.73,0,0,1,122.65,42.12Z"/>
    </g>
  </g>
</svg>