<svg xmlns="http://www.w3.org/2000/svg" xmlns:xlink="http://www.w3.org/1999/xlink" viewBox="0 0 264.24 47.12">
  <defs>
    <style>.cls-1,.cls-5{fill:#fff;}.cls-2{fill:url(#linear-gradient);}.cls-3{fill:url(#linear-gradient-2);}.cls-4{fill:url(#linear-gradient-3);}.cls-5{opacity:0.95;}</style>
    <linearGradient id="linear-gradient" x1="23.69" y1="26.97" x2="47.02" y2="26.97" gradientUnits="userSpaceOnUse">
      <stop offset="0" stop-color="#fff" stop-opacity="0.5"/>
      <stop offset="1" stop-color="#fff" stop-opacity="0.9"/>
    </linearGradient>
    <linearGradient id="linear-gradient-2" x1="21.56" y1="47.12" x2="21.56" y2="20.19" gradientUnits="userSpaceOnUse">
      <stop offset="0" stop-color="#fff" stop-opacity="0.2"/>
      <stop offset="1" stop-color="#fff" stop-opacity="0.9"/>
    </linearGradient>
    <linearGradient id="linear-gradient-3" x1="11.85" y1="20.33" x2="35.17" y2="20.33" xlink:href="#linear-gradient-2"/>
  </defs>
  <title>Natwest</title>
  <g id="Layer_2" data-name="Layer 2">
    <g id="Layer_1-2" data-name="Layer 1">
      <path class="cls-1" d="M241.42,30.77a26.67,26.67,0,0,0-2.63-1.42c-1.84-.82-3.69-1.62-5.53-2.45a6,6,0,0,1-2-1.33,2,2,0,0,1,.58-3.42,6,6,0,0,1,2.58-.57,16.38,16.38,0,0,1,8,1.91c.57.29.75.18.74-.46,0-1.59-.05-3.18,0-4.77a1,1,0,0,0-.81-1.17,23,23,0,0,0-9.62-1.28,11.39,11.39,0,0,0-4.47,1.29,8.22,8.22,0,0,0,.66,15c1.9.88,3.83,1.72,5.74,2.58a14.49,14.49,0,0,1,2.8,1.43,2.59,2.59,0,0,1-.18,4.35,5.15,5.15,0,0,1-2.3.7,18.59,18.59,0,0,1-9.67-2.08,2.72,2.72,0,0,0-1.13-.45c0,2,0,4,0,5.94,0,.37.2.5.49.63a24.45,24.45,0,0,0,3.81,1.3,20.25,20.25,0,0,1,2.8.62H236c.2,0,.41-.12.62-.16a12.31,12.31,0,0,0,5.19-2.08C246.53,41.51,246.79,34,241.42,30.77Z"/>
      <path class="cls-1" d="M257.76,22.2c1.94,0,3.88,0,5.82,0,.47,0,.67-.12.66-.63,0-1.56,0-3.13,0-4.69,0-.57-.24-.65-.72-.65-1.91,0-3.82,0-5.74,0-.61,0-.82-.13-.82-.79,0-2.8,0-5.6,0-8.4,0-.57-.07-.78-.7-.54q-2.64,1-5.33,1.87a.81.81,0,0,0-.64.93c0,2.05,0,4.09,0,6.14,0,.66-.21.83-.83.8-1-.05-1.94,0-2.91,0-.4,0-.58.12-.58.55,0,1.61,0,3.23,0,4.85,0,.49.23.58.65.57.78,0,1.56,0,2.34,0,1.32,0,1.32,0,1.32,1.33,0,5.44,0,10.88,0,16.32,0,3.5,1.86,6,4.84,6.88a5,5,0,0,1,1.3.37h3.88c1.09-.21,2.18-.44,3.28-.64.42-.08.59-.26.58-.7,0-1.56,0-3.13,0-4.69,0-.49-.1-.67-.65-.51a10.65,10.65,0,0,1-3.51.4c-2.2-.11-3.08-1-3.09-3.17,0-5,0-9.91,0-14.87C257,22.3,257.19,22.19,257.76,22.2Z"/>
      <path class="cls-1" d="M148.75,16.25c-1.86,0-3.72,0-5.57,0-.73,0-.91-.2-.9-.9,0-2.72,0-5.44,0-8.16,0-.68-.09-.93-.84-.64-1.71.65-3.44,1.25-5.17,1.82a.85.85,0,0,0-.7,1c0,2.07,0,4.14,0,6.22,0,.52-.14.71-.68.69-1,0-2,0-3,0-.41,0-.59.1-.58.54,0,1.62,0,3.23,0,4.85,0,.48.19.59.62.58.78,0,1.56,0,2.35,0,1.26,0,1.26,0,1.26,1.29,0,5.28,0,10.56,0,15.84,0,3.67,1.56,6.73,5.7,7.61.09,0,.17.11.25.16h4.2c1-.21,2.08-.43,3.13-.62a.62.62,0,0,0,.62-.74q0-2.34,0-4.68c0-.53-.13-.64-.65-.49a9.53,9.53,0,0,1-4.47.25,2.29,2.29,0,0,1-2-2.11,8.08,8.08,0,0,1-.09-1.2c0-4.85,0-9.7,0-14.54,0-.59.14-.8.76-.78,1.91,0,3.83,0,5.74,0,.54,0,.76-.12.75-.71,0-1.51,0-3,0-4.52C149.56,16.37,149.33,16.24,148.75,16.25Z"/>
      <path class="cls-1" d="M193.77,7.17q-2.67,0-5.34,0c-.5,0-.7.15-.79.65q-1.92,10.63-3.89,21.28c-.28,1.51-.57,3-.86,4.54h-.2c-.08-.26-.16-.53-.23-.8q-3.15-12.48-6.29-25c-.14-.53-.33-.74-.91-.72-1.59,0-3.18.06-4.77,0-.79,0-1.09.21-1.28,1q-3,12.42-6.16,24.83c-.06.23,0,.55-.4.69-.07-.3-.15-.58-.21-.86Q160,20.38,157.47,8c-.12-.58-.3-.8-.92-.79-1.8,0-3.61,0-5.41,0-.7,0-.78.21-.65.82q4,19.23,8.06,38.47c.1.47.28.67.79.66,1.75,0,3.51,0,5.26,0a.82.82,0,0,0,1-.75c1.08-4.31,2.21-8.6,3.32-12.9q1.78-6.91,3.58-13.82h.16c.26,1,.52,2,.77,2.95,2,7.9,4,15.8,6,23.71a.91.91,0,0,0,1.1.82c1.61,0,3.23-.08,4.84,0,.92.05,1.17-.29,1.33-1.12,1.13-5.83,2.31-11.66,3.48-17.49,1.38-6.89,2.74-13.78,4.14-20.66C194.41,7.32,194.34,7.16,193.77,7.17Z"/>
      <path class="cls-1" d="M101,36.16Q101,22.09,101,8c0-.66-.14-.9-.84-.87-1.59,0-3.18.06-4.77,0-.81,0-1,.24-1,1q0,12.9,0,25.78a1.74,1.74,0,0,1-.13,1l-1.83-3L77.58,7.83c-.21-.33-.35-.67-.89-.66-2,0-3.93,0-5.89,0V47.07c1.8,0,3.61,0,5.41,0,.86,0,1-.26,1-1q0-12.76,0-25.54a1.44,1.44,0,0,1,.15-1l.56.88q8.15,13,16.28,26a1.16,1.16,0,0,0,1.15.64c1.59,0,3.18,0,4.77,0,.67,0,.86-.18.85-.85C100.93,42.89,101,39.52,101,36.16Z"/>
      <path class="cls-1" d="M212.49,16.43A13.35,13.35,0,0,0,195.75,24,20.43,20.43,0,0,0,195.36,38a12.82,12.82,0,0,0,11.79,9,.5.5,0,0,0,0,.13h3.72c.1-.16.28-.13.43-.15a17.69,17.69,0,0,0,6.33-1.79c.23-.11.55-.16.55-.51V38.8c-.14,0-.2,0-.24,0s-.29.15-.43.23A16.29,16.29,0,0,1,209,41.11c-4.3-.1-6.9-2.24-7.59-6.16-.16-.94-.16-1,.8-1,5.85,0,11.69,0,17.54,0,.63,0,.9-.16,1-.82a20.8,20.8,0,0,0-.51-7.62C219.08,21.34,216.83,18,212.49,16.43Zm.85,11.8H202c-.36,0-.72.05-.63-.52.55-3.55,3.3-6.87,8-5.82,3.05.67,4.27,3.6,4.55,5.94C214,28.35,213.6,28.23,213.34,28.23Z"/>
      <path class="cls-1" d="M123.41,16.78c-4.89-1.76-9.75-1.16-14.55.49-.43.15-.47.43-.47.81,0,1.56,0,3.12,0,4.68,0,.64.09.76.75.51A20,20,0,0,1,119,22c2.61.36,3.6,1.5,3.77,4.1,0,.65-.11.91-.82.89-1.85-.05-3.71,0-5.57,0A14.34,14.34,0,0,0,110,28.37a9.69,9.69,0,0,0-5.37,10.72,9.93,9.93,0,0,0,9.12,8h2.81a10.91,10.91,0,0,0,6.28-2.84c0,.7,0,1.23,0,1.75s.11.58.54.58c1.84,0,3.67,0,5.5,0,.46,0,.59-.16.59-.61,0-6.86.07-13.73-.05-20.59C129.33,21.3,127.38,18.21,123.41,16.78Zm-.59,20.51a1,1,0,0,1-.23.75,8.62,8.62,0,0,1-7.77,3.08,4,4,0,0,1-3.62-3.72,3.81,3.81,0,0,1,3-4.14c.31-.09.63-.16.94-.22a23.26,23.26,0,0,1,3.85-.15c1.18,0,2.17,0,3.17,0,.55,0,.69.18.67.7C122.79,34.82,122.81,36.05,122.82,37.29Z"/>
      <polygon class="cls-2" points="39.21 20.1 35.17 27.1 27.69 27.2 27.37 27.2 23.69 33.85 31.43 33.85 39.33 33.85 47.02 20.19 39.21 20.1"/>
      <polygon class="cls-3" points="23.69 33.85 27.37 27.2 27.53 26.91 23.55 20.19 19.44 27.13 15.56 33.85 23.55 47.12 27.56 40.37 23.69 33.85"/>
      <polygon class="cls-4" points="31.27 20.15 27.52 13.46 11.85 13.46 15.59 20.19 23.55 20.19 27.53 26.91 27.69 27.2 35.17 27.1 31.27 20.15"/>
      <polygon class="cls-1" points="27.53 26.91 27.37 27.2 27.69 27.2 27.53 26.91"/>
      <polygon class="cls-5" points="31.43 33.85 23.69 33.85 27.56 40.37 27.92 40.97 31.57 47.12 47.09 47.12 39.33 33.85 31.43 33.85"/>
      <polygon class="cls-1" points="54.89 33.82 51.24 27.5 47.02 20.19 39.33 33.85 47.09 47.12 47.09 47.12 54.89 33.82"/>
      <polygon class="cls-5" points="19.44 27.13 23.55 20.19 15.59 20.19 15.1 20.19 7.8 20.19 0 33.85 15.56 33.85 19.44 27.13"/>
      <polygon class="cls-1" points="0 33.85 7.8 47.12 15.1 47.12 23.55 47.12 15.56 33.85 0 33.85"/>
      <polygon class="cls-5" points="35.32 0 19.72 0 16.07 6.32 11.85 13.46 27.52 13.46 35.33 0.01 35.32 0"/>
      <polygon class="cls-1" points="35.33 0.01 27.52 13.46 31.27 20.15 35.17 27.1 39.21 20.1 39.4 19.79 43.04 13.47 35.33 0.01"/>
    </g>
  </g>
</svg>