<svg xmlns="http://www.w3.org/2000/svg" viewBox="0 0 369.09 89.48">
  <defs>
    <style>.cls-1{fill:#fff;}</style>
  </defs>
  <title>postoffice</title>
  <g id="Layer_2" data-name="Layer 2">
    <g id="Layer_1-2" data-name="Layer 1">
      <path class="cls-1" d="M65,89.48c.68-1.34,2.83-5.57,3.27-6.33A1.13,1.13,0,0,0,68.29,82c-1.66-3.66-3.31-7.34-5-11-.11-.23-.2-.47-.35-.83.94,0,1.8,0,2.66,0,.13,0,.28.28.36.46l3.47,8.16c.08.19.17.38.31.67.79-1.87,3.25-7.68,3.71-8.84a.68.68,0,0,1,.77-.5c.72,0,1.45,0,2.28,0-.15.34-.25.59-.37.83-2.73,6-8.31,18.34-8.37,18.54Z"/>
      <path class="cls-1" d="M12.68,74.49,14.91,71c1.54-2.4,3.1-4.79,4.61-7.21a1.06,1.06,0,0,1,1.13-.62,10.17,10.17,0,0,0,1.24,0V82.52H19.27V68.7c-.21.28-.32.42-.41.56l-5.32,8.51a1,1,0,0,1-1.74,0c-1.86-3-3.71-5.93-5.69-8.88V82.53H3.47V63.19a16.39,16.39,0,0,1,1.72,0,1,1,0,0,1,.54.46Q9,68.76,12.25,73.85Z"/>
      <path class="cls-1" d="M23.84,76.33a6.12,6.12,0,0,1,6.49-6.44c3.92,0,6.48,2.53,6.49,6.41a6.08,6.08,0,0,1-6.3,6.47C26.47,82.78,23.85,80.25,23.84,76.33Zm10.38,0a3.91,3.91,0,0,0-2.64-4,3.86,3.86,0,0,0-5.1,3.81,4,4,0,0,0,2.58,4.17C31.79,81.21,34.22,79.33,34.22,76.33Z"/>
      <path class="cls-1" d="M63.09,77.08H54a3.74,3.74,0,0,0,2,3,4.67,4.67,0,0,0,5-.71L62.46,81a5.53,5.53,0,0,1-3.61,1.74c-2.51.27-4.76-.26-6.35-2.41a7.28,7.28,0,0,1,.33-8.52,5.89,5.89,0,0,1,6.24-1.65c2.43.66,3.41,2.57,3.82,4.86C63,75.65,63,76.33,63.09,77.08Zm-2.65-1.81a3,3,0,0,0-3.06-3.17,3.27,3.27,0,0,0-3.31,3.17Z"/>
      <path class="cls-1" d="M41.24,82.53H38.76V70.16H41.2l.07.66A18.92,18.92,0,0,1,43.63,70a4.57,4.57,0,0,1,5.75,4.45c.08,2.61,0,5.23,0,7.85a1,1,0,0,1,0,.23H46.85v-7.4a2.75,2.75,0,0,0-1.68-2.77,3.92,3.92,0,0,0-3.73.76,1.2,1.2,0,0,0-.19.71q0,4,0,8Z"/>
      <g id="_68B7op.tif" data-name="68B7op.tif">
        <path class="cls-1" d="M77.54,28.34v1.45a3,3,0,0,0-.05.42,16,16,0,0,1-.3,2.76,23.51,23.51,0,0,1-3,7.84A29.19,29.19,0,0,1,68,48.16a38.39,38.39,0,0,1-9.74,6,46.2,46.2,0,0,1-9.49,3,49.14,49.14,0,0,1-5.13.75c-1,.08-2,.12-3,.18l-.61.06H37.46l-.31-.05L35,58c-1.54-.1-3.07-.29-4.6-.54A47.76,47.76,0,0,1,21.27,55a39.85,39.85,0,0,1-10.46-5.81,30.16,30.16,0,0,1-7-7.48A22.88,22.88,0,0,1,0,28a22,22,0,0,1,.47-3.62,23.77,23.77,0,0,1,3.4-8.07A30.31,30.31,0,0,1,10.73,9a39.86,39.86,0,0,1,10.8-6,48.07,48.07,0,0,1,11-2.66C34.11.19,35.66.07,37.21,0A53.24,53.24,0,0,1,44,.27a48.76,48.76,0,0,1,5.24.81A45.26,45.26,0,0,1,60,4.74a36.73,36.73,0,0,1,9.48,6.57A27.58,27.58,0,0,1,75.14,19a21.74,21.74,0,0,1,2.35,9C77.49,28.13,77.53,28.23,77.54,28.34Zm-62.79.85h-.62l-.38,0a6.14,6.14,0,0,0-4.64,3.13,6.59,6.59,0,0,0-.74,4.68,6.13,6.13,0,0,0,3.07,4.37,6.56,6.56,0,0,0,4.36.78,6.22,6.22,0,0,0,4.1-2.39,6.38,6.38,0,0,0,1.32-3.45,6.57,6.57,0,0,0-.93-4.15A6.22,6.22,0,0,0,14.75,29.19ZM35.17,12.87c-.29,0-.64,0-1,.1a6.16,6.16,0,0,0-4.73,3.39,6.61,6.61,0,0,0-.61,4.37,6.18,6.18,0,0,0,3.06,4.4,6.52,6.52,0,0,0,4.34.8,6.17,6.17,0,0,0,3.88-2.08,6.41,6.41,0,0,0,1.57-3.65,6.55,6.55,0,0,0-.92-4.26A6.38,6.38,0,0,0,35.17,12.87ZM58.9,29.5c-.07.38,0,12.26,0,12.45.42,0,8.17,0,8.39,0,0-.55,0-1.11,0-1.7H60.76a33.67,33.67,0,0,1,0-3.76h5.32l.35,0V34.73l-.35,0h-5l-.36,0c0-1.16,0-2.28,0-3.45H67V29.5ZM19.37,13.21V25.69c.62,0,1.21,0,1.84,0v-5h.33c.76,0,1.51,0,2.27,0a6.06,6.06,0,0,0,1.12-.1,3.25,3.25,0,0,0,2.71-2.42,4.22,4.22,0,0,0,0-2.44,3.21,3.21,0,0,0-2.16-2.22,5,5,0,0,0-1.62-.25H19.37ZM43.21,23c0,.12,0,.21,0,.29,0,.41,0,.81,0,1.21a.58.58,0,0,0,.29.55,5.48,5.48,0,0,0,4.21.88,4.37,4.37,0,0,0,2.08-1A3.66,3.66,0,0,0,51,21.4a2.68,2.68,0,0,0-1.34-1.95,5.67,5.67,0,0,0-.65-.33c-.35-.14-.71-.26-1.06-.38-.54-.19-1.1-.34-1.63-.55a3.08,3.08,0,0,1-.86-.5,1.59,1.59,0,0,1-.21-2.28,2,2,0,0,1,1.19-.69,4.65,4.65,0,0,1,1.93,0,5.34,5.34,0,0,1,1.56.7l.29.15c0-.62,0-1.18,0-1.74a.33.33,0,0,0-.14-.19,5.4,5.4,0,0,0-.75-.4,5.64,5.64,0,0,0-3.8-.12A3.55,3.55,0,0,0,43,16.87a3.15,3.15,0,0,0,1.59,2.62,6.21,6.21,0,0,0,.82.4c.35.14.71.25,1.07.38s.92.31,1.37.49a2.48,2.48,0,0,1,.86.53,1.42,1.42,0,0,1,.4,1.38,1.63,1.63,0,0,1-.82,1.06,3.18,3.18,0,0,1-2.15.42,6.39,6.39,0,0,1-2.62-1ZM56.8,39.41l-.28.16c-.36.19-.7.4-1.07.56a6,6,0,0,1-2.78.38,4.23,4.23,0,0,1-3.94-3,5.44,5.44,0,0,1,0-3.69,4.07,4.07,0,0,1,2.81-2.74,5.76,5.76,0,0,1,2-.19,6.08,6.08,0,0,1,3.09,1,1.51,1.51,0,0,0,.17.1l0-.06c0-.52,0-1.05,0-1.57a.28.28,0,0,0-.15-.23,4.8,4.8,0,0,0-1.13-.57A7.3,7.3,0,0,0,52,29.24a6.17,6.17,0,0,0-4.64,3.11,6.6,6.6,0,0,0-.73,4.93,6.1,6.1,0,0,0,3.76,4.51,7.44,7.44,0,0,0,4.57.27,5.09,5.09,0,0,0,1.67-.73c.09-.06.18-.11.18-.24ZM39.89,34.9H34.62a32,32,0,0,1,0-3.67h3.92c.65,0,1.31,0,2,0,0-.59,0-1.15,0-1.7-.33-.07-7.57-.05-7.77,0-.06.29,0,12.23,0,12.43a9,9,0,0,0,1.82,0V36.65h5.3ZM24.87,42V36.65h3.56c.58,0,1.16,0,1.73,0a8.16,8.16,0,0,0,0-1.73H26.62c-.58,0-1.16,0-1.73,0-.05-.51,0-3.44,0-3.66h5.56l.35,0c0-.58,0-1.13,0-1.7l-.25,0H23.28l-.25,0V42ZM57.54,25.68V14.94h3.94V13.24c-.26-.06-9.5-.06-9.73,0v1.7h2c.65,0,1.3,0,2,0V25.3c0,.12,0,.24,0,.38Zm-15,3.82c-.07.38,0,12.26,0,12.45h1.77V29.5Z"/>
        <path class="cls-1" d="M14.74,40.53A4.37,4.37,0,0,0,19,37.63a5.51,5.51,0,0,0,.27-2.76A4.71,4.71,0,0,0,18,32.24a4.28,4.28,0,0,0-3.45-1.31,4.22,4.22,0,0,0-3.71,2.29,5.26,5.26,0,0,0-.49,3.71A4.42,4.42,0,0,0,14.74,40.53Z"/>
        <path class="cls-1" d="M35.21,14.64a4.38,4.38,0,0,0-4.3,3.19,5.57,5.57,0,0,0-.07,3A4.48,4.48,0,0,0,32,22.91a4.3,4.3,0,0,0,3.46,1.33,4.25,4.25,0,0,0,3.91-2.67,5.38,5.38,0,0,0,.31-3.29A4.42,4.42,0,0,0,35.21,14.64Z"/>
        <path class="cls-1" d="M21.24,14.85c-.06.31,0,3.93,0,4.13h.1c.77,0,1.53,0,2.29,0A3.13,3.13,0,0,0,25,18.68a1.69,1.69,0,0,0,1-1.28,3.81,3.81,0,0,0,.05-.59A1.81,1.81,0,0,0,24.73,15a3.84,3.84,0,0,0-1.22-.19H21.24Z"/>
        <path class="cls-1" d="M76.48,87a2.42,2.42,0,1,1-4.84,0,2.42,2.42,0,1,1,4.84,0Zm-.39,0a2,2,0,1,0-2,2A2,2,0,0,0,76.09,87Z"/>
        <path class="cls-1" d="M14.74,40.53a4.42,4.42,0,0,1-4.42-3.6,5.26,5.26,0,0,1,.49-3.71,4.22,4.22,0,0,1,3.71-2.29A4.28,4.28,0,0,1,18,32.24a4.71,4.71,0,0,1,1.26,2.63A5.51,5.51,0,0,1,19,37.63,4.37,4.37,0,0,1,14.74,40.53Z"/>
        <path class="cls-1" d="M35.21,14.64a4.42,4.42,0,0,1,4.45,3.64,5.38,5.38,0,0,1-.31,3.29,4.25,4.25,0,0,1-3.91,2.67A4.3,4.3,0,0,1,32,22.91a4.48,4.48,0,0,1-1.14-2.13,5.57,5.57,0,0,1,.07-3A4.38,4.38,0,0,1,35.21,14.64Z"/>
        <path class="cls-1" d="M21.24,14.85h2.27a3.84,3.84,0,0,1,1.22.19A1.81,1.81,0,0,1,26,16.81a3.81,3.81,0,0,1-.05.59,1.69,1.69,0,0,1-1,1.28,3.13,3.13,0,0,1-1.38.31c-.76,0-1.52,0-2.29,0h-.1C21.19,18.78,21.18,15.16,21.24,14.85Z"/>
        <path class="cls-1" d="M75.05,88.17l-.06,0c-.36,0-.36,0-.54-.29l-.28-.47c-.13-.22-.13-.22-.42-.18v.92h-.4V85.84a2.62,2.62,0,0,1,1.08.08.67.67,0,0,1,.2,1.09l-.17.14Zm-1.29-2a3,3,0,0,0,0,.73c.16,0,.3,0,.43-.06a.29.29,0,0,0,.23-.32.29.29,0,0,0-.24-.29A4.23,4.23,0,0,0,73.76,86.17Z"/>
      </g>
      <path class="cls-1" d="M279.52,47.88c0-7.44,11-13.47,24.58-13.47s24.59,6,24.59,13.47-11,13.48-24.59,13.48-24.58-6-24.58-13.48M304.1,60.41c12.08,0,21.87-5.61,21.87-12.53s-9.79-12.52-21.87-12.52S282.25,41,282.25,47.88,292,60.41,304.1,60.41Z"/>
      <path class="cls-1" d="M283.19,47.88c0-6.39,9.37-11.58,20.91-11.58S325,41.49,325,47.88s-9.37,11.58-20.92,11.58-20.91-5.18-20.91-11.58M304.1,58.64c11,0,19.86-4.82,19.86-10.76s-8.88-10.75-19.86-10.75S284.25,42,284.25,47.88,293.14,58.64,304.1,58.64Z"/>
      <path class="cls-1" d="M304.1,44.78c.41-2.28,10.32-2.6,10.32-4.93a.11.11,0,0,1,.22,0v2.47c0,2.93-10,2.56-10.44,5.37,0,.06,0,.11-.1.11s-.07,0-.08-.11c-.48-2.81-10.44-2.44-10.44-5.37V39.85a.1.1,0,0,1,.1-.11.11.11,0,0,1,.11.11c0,2.33,9.91,2.65,10.31,4.93"/>
      <path class="cls-1" d="M304.1,49.79c.41-2.28,10.32-2.59,10.32-4.93a.11.11,0,0,1,.22,0v2.47c0,2.94-10,2.56-10.44,5.37,0,.07,0,.11-.1.11s-.07,0-.08-.11c-.48-2.81-10.44-2.43-10.44-5.37V44.86a.09.09,0,0,1,.1-.1.1.1,0,0,1,.11.1c0,2.34,9.91,2.65,10.31,4.93"/>
      <path class="cls-1" d="M304.1,54.93c.41-2.28,10.32-2.59,10.32-4.93a.11.11,0,0,1,.22,0v2.47c0,2.94-10,2.56-10.44,5.38,0,.06,0,.11-.1.11s-.07-.05-.08-.11c-.48-2.82-10.44-2.44-10.44-5.38V50a.11.11,0,0,1,.1-.11.12.12,0,0,1,.11.11c0,2.34,9.91,2.65,10.31,4.93"/>
      <path class="cls-1" d="M181.69,44v12.1H185V46.93h2.36V45H185V43.47c0-1.26.68-2.18,1.85-2.18a4.43,4.43,0,0,1,2.45.77V39.91a6.87,6.87,0,0,0-2.9-.55c-3.36,0-4.74,2-4.74,4.65"/>
      <path class="cls-1" d="M173.74,42.59c-3.27,0-6.16,1.93-6.15,7s3,6.9,6.15,6.9,6.13-1.86,6.11-6.9-2.69-7-6.11-7m0,11.95c-1.88,0-2.61-1.54-2.61-4.95,0-3.57.72-5.05,2.61-5.06s2.57,1.61,2.6,5.06S175.6,54.54,173.72,54.54Z"/>
      <path class="cls-1" d="M151.79,56.11V42.2a6.79,6.79,0,0,0-.35-2.47h3.69V56.11h-3.34"/>
      <path class="cls-1" d="M159.38,42.94h3.52l-4.21,5.14,4.93,8h-4.13l-4.23-7.39,3-3.69a5.16,5.16,0,0,0,1.08-2.09"/>
      <path class="cls-1" d="M117.66,56.11h-7.17V42.31a8,8,0,0,0-.32-2.58h8.21c2.28,0,4.32,1.06,4.32,3.64s-1.78,3.38-3.49,3.76a4.35,4.35,0,0,1,4.33,4.24c0,3.22-2.69,4.75-5.88,4.74m-3.54-14.54v4.82h2.11c1.74,0,2.83-.73,2.83-2.52s-1.28-2.31-2.82-2.3Zm0,6.67v6h2.41c2.19,0,3.19-1.12,3.17-3.14s-1.33-2.89-3.17-2.89Z"/>
      <path class="cls-1" d="M130.91,42.59c2.5,0,5.35.35,5.35,4.21v6.56a10.64,10.64,0,0,0,.29,2.75h-3.14c-.06-.19-.16-.62-.23-.92a7,7,0,0,1-4.1,1.3c-2.51,0-4.19-1.31-4.2-3.8s1.68-3.75,4.11-4.35c1.06-.26,3.42-.8,3.94-1v-.83c0-1.7-1-2.17-2-2.17a2.24,2.24,0,0,0-2.4,2.28H125.5c0-1.76,1.15-4.1,5.41-4.09m.32,7c-1.46.42-2.92,1.19-2.92,2.72a1.75,1.75,0,0,0,2,1.92,4.33,4.33,0,0,0,2.65-1V49.2C132.49,49.31,131.84,49.47,131.23,49.64Z"/>
      <path class="cls-1" d="M145.55,42.6a7.24,7.24,0,0,0-3.76,1.32v-1h-3.65a9.38,9.38,0,0,1,.33,2.52V56.12h3.32V46a4.33,4.33,0,0,1,2.53-1.14c1.64,0,2,1,2,2.89v8.38h3.32V47.58c0-2.13-.36-5-4.11-5"/>
      <path class="cls-1" d="M203.45,44.63V42.94h-3.68a8.78,8.78,0,0,1,.34,2.52V56.11h3.34V48.57c0-2.23,1.39-3.37,3.78-3.36V42.6a4.15,4.15,0,0,0-3.78,2"/>
      <path class="cls-1" d="M261.87,39.73a7.32,7.32,0,0,1,.34,2.46v1.62a4.82,4.82,0,0,0-3.33-1.22c-2,0-5.37,1.17-5.37,6.89,0,5.47,2.65,7,5.17,7a5.73,5.73,0,0,0,3.53-1.38v1h3.35V39.73h-3.69M262.21,53a3.34,3.34,0,0,1-2.42,1.44c-1.48,0-2.74-.83-2.74-5,0-3.93,1.34-4.81,2.71-4.81a3.08,3.08,0,0,1,2.45,1.4Z"/>
      <path class="cls-1" d="M194,56.11V42.22a9.08,9.08,0,0,0-.31-2.49h3.92V56.11H194"/>
      <path class="cls-1" d="M221.78,56.11V42.2a6.58,6.58,0,0,0-.35-2.47h3.69V56.11h-3.34"/>
      <path class="cls-1" d="M219.94,49.36c0,.19,0,.38,0,.57h-8.66c0,2.85.58,4.62,2.6,4.62,1.61,0,2.23-1.17,2.44-2.89h3.47a5.52,5.52,0,0,1-5.91,4.83c-3.36,0-6.14-1.77-6.13-7.12,0-4.62,2.74-6.78,6.13-6.78s6.09,2.15,6.07,6.76m-8.63-1.18h5.08c-.08-1.61-.59-3.65-2.52-3.65S211.48,46.62,211.31,48.18Z"/>
      <path class="cls-1" d="M233,42.59c2.5,0,5.35.35,5.35,4.21v6.56a10.64,10.64,0,0,0,.29,2.75h-3.14c-.06-.19-.16-.62-.24-.92a7,7,0,0,1-4.09,1.3c-2.51,0-4.19-1.31-4.2-3.8s1.68-3.75,4.11-4.35c1.06-.26,3.42-.8,3.94-1v-.83c0-1.7-.94-2.17-2-2.17a2.24,2.24,0,0,0-2.4,2.28h-3.05c0-1.76,1.16-4.1,5.41-4.09m.33,7c-1.47.42-2.93,1.19-2.93,2.72a1.75,1.75,0,0,0,2,1.92,4.33,4.33,0,0,0,2.65-1V49.2C234.55,49.31,233.9,49.47,233.3,49.64Z"/>
      <path class="cls-1" d="M247.61,42.6a7.2,7.2,0,0,0-3.76,1.32v-1H240.2a9.38,9.38,0,0,1,.33,2.52V56.12h3.32V46a4.3,4.3,0,0,1,2.53-1.14c1.63,0,2,1,2,2.89v8.38h3.32V47.58c0-2.13-.36-5-4.11-5"/>
      <path class="cls-1" d="M110.54,70v-.92H112v-1.5a3,3,0,0,1,.46-1.79,1.74,1.74,0,0,1,1.55-.66,3.7,3.7,0,0,1,.48,0l.44,0v1a2.87,2.87,0,0,0-.66-.09,1.24,1.24,0,0,0-.66.15,1,1,0,0,0-.35.41,2.14,2.14,0,0,0-.14.58c0,.22,0,.43,0,.65v1.17h1.83V70h-1.83v8.57H112V70Z"/>
      <path class="cls-1" d="M120.36,78.83a4.92,4.92,0,0,1-1.72-.33,4,4,0,0,1-1.39-.93,4.49,4.49,0,0,1-.94-1.56,6.27,6.27,0,0,1-.35-2.18,6.76,6.76,0,0,1,.27-2,4.72,4.72,0,0,1,.83-1.59,3.91,3.91,0,0,1,1.37-1.07,4.46,4.46,0,0,1,1.93-.39,4.51,4.51,0,0,1,1.94.39,3.91,3.91,0,0,1,1.37,1.06,4.45,4.45,0,0,1,.82,1.59,6.88,6.88,0,0,1,.26,2,6.26,6.26,0,0,1-.31,2,4.6,4.6,0,0,1-.89,1.58,3.78,3.78,0,0,1-1.39,1A4.38,4.38,0,0,1,120.36,78.83Zm3.22-5a6.65,6.65,0,0,0-.18-1.58,3.68,3.68,0,0,0-.57-1.27,2.81,2.81,0,0,0-1-.85,3.18,3.18,0,0,0-1.48-.31,3,3,0,0,0-1.48.34,2.86,2.86,0,0,0-1,.89,4.07,4.07,0,0,0-.56,1.29,5.69,5.69,0,0,0-.19,1.49,5.88,5.88,0,0,0,.21,1.62,3.67,3.67,0,0,0,.62,1.27,2.77,2.77,0,0,0,1,.83,3.27,3.27,0,0,0,1.4.29,3,3,0,0,0,1.47-.34,2.89,2.89,0,0,0,1-.9,4,4,0,0,0,.57-1.29A6,6,0,0,0,123.58,73.83Z"/>
      <path class="cls-1" d="M127.92,78.57h-1.1V69.08h1.1v1.78h0a3.2,3.2,0,0,1,1.18-1.58,3.59,3.59,0,0,1,1.92-.45V70a3.19,3.19,0,0,0-1.54.29,2.46,2.46,0,0,0-1,.84,3.37,3.37,0,0,0-.5,1.26,8.23,8.23,0,0,0-.14,1.51Z"/>
      <path class="cls-1" d="M138.57,78.57V65.38h1.24V78.57Z"/>
      <path class="cls-1" d="M144.16,78.57h-1.1V69.08h1.1V70.4a7,7,0,0,1,1.36-1.13,3.1,3.1,0,0,1,1.7-.44,4.41,4.41,0,0,1,1.63.3,2.75,2.75,0,0,1,1.26,1.05,2.41,2.41,0,0,1,.41,1.06,10,10,0,0,1,.07,1.12v6.21h-1.1V72.38a2.82,2.82,0,0,0-.57-1.92,2.41,2.41,0,0,0-1.89-.64,2.75,2.75,0,0,0-.93.15,2.8,2.8,0,0,0-.76.42,2.66,2.66,0,0,0-.58.58,2.77,2.77,0,0,0-.37.7,3.7,3.7,0,0,0-.2.88c0,.28,0,.58,0,.91Z"/>
      <path class="cls-1" d="M156.58,78.61l-.53.13a2.83,2.83,0,0,1-.74.09,1.74,1.74,0,0,1-1.25-.41,2,2,0,0,1-.43-1.48V70h-1.34v-.92h1.34V66.45h1.1v2.63h1.77V70h-1.77v6.5c0,.24,0,.44,0,.61a1.17,1.17,0,0,0,.11.42.57.57,0,0,0,.29.24,1.57,1.57,0,0,0,.54.07,2.28,2.28,0,0,0,.45,0,3.58,3.58,0,0,0,.45-.09Z"/>
      <path class="cls-1" d="M159,74.09a4.94,4.94,0,0,0,.21,1.45,3.4,3.4,0,0,0,.59,1.19,2.84,2.84,0,0,0,1,.81,3.09,3.09,0,0,0,1.39.3,3,3,0,0,0,1.85-.57,2.71,2.71,0,0,0,1-1.61h1.23a6.46,6.46,0,0,1-.54,1.26,3.78,3.78,0,0,1-.82,1,3.54,3.54,0,0,1-1.17.67,4.77,4.77,0,0,1-1.58.24,4.69,4.69,0,0,1-2-.38,3.65,3.65,0,0,1-1.35-1.06,4.3,4.3,0,0,1-.79-1.57,7.23,7.23,0,0,1-.26-1.95,6.24,6.24,0,0,1,.3-2A5,5,0,0,1,159,70.3a4,4,0,0,1,1.37-1.08,4.17,4.17,0,0,1,1.83-.39,3.81,3.81,0,0,1,3.08,1.34,6,6,0,0,1,1.1,3.92Zm6.2-.92a4.33,4.33,0,0,0-.2-1.31,2.91,2.91,0,0,0-.56-1.06,2.75,2.75,0,0,0-.95-.72,3.14,3.14,0,0,0-1.3-.26,2.92,2.92,0,0,0-1.29.27,3.13,3.13,0,0,0-.95.73,3.58,3.58,0,0,0-.64,1.07,5.33,5.33,0,0,0-.31,1.28Z"/>
      <path class="cls-1" d="M169.68,78.57h-1.1V69.08h1.1v1.78h0a3.2,3.2,0,0,1,1.18-1.58,3.64,3.64,0,0,1,1.92-.45V70a3.21,3.21,0,0,0-1.54.29,2.61,2.61,0,0,0-1,.84,3.54,3.54,0,0,0-.5,1.26,8.24,8.24,0,0,0-.13,1.51Z"/>
      <path class="cls-1" d="M175.58,78.57h-1.1V69.08h1.1v1.43h0a2.92,2.92,0,0,1,1.21-1.25,3.51,3.51,0,0,1,1.72-.43,4,4,0,0,1,1.12.14,2.39,2.39,0,0,1,.78.4A2.25,2.25,0,0,1,181,70a3.94,3.94,0,0,1,.36.71,3.22,3.22,0,0,1,1.27-1.38,3.64,3.64,0,0,1,1.82-.45,3.11,3.11,0,0,1,1.55.32,2.26,2.26,0,0,1,.89.84,3.11,3.11,0,0,1,.41,1.2,9.1,9.1,0,0,1,.1,1.39v6h-1.1V72a2.66,2.66,0,0,0-.43-1.62,1.86,1.86,0,0,0-1.6-.58,2.76,2.76,0,0,0-1.16.26,2.71,2.71,0,0,0-1,.82,1.87,1.87,0,0,0-.3.56,4.37,4.37,0,0,0-.2.67,5.46,5.46,0,0,0-.1.69c0,.23,0,.45,0,.64v5.11h-1.09V72a2.66,2.66,0,0,0-.44-1.62,1.86,1.86,0,0,0-1.6-.58,2.76,2.76,0,0,0-1.16.26,2.71,2.71,0,0,0-1,.82,2.12,2.12,0,0,0-.3.56,4.37,4.37,0,0,0-.2.67,5.46,5.46,0,0,0-.1.69c0,.23,0,.45,0,.64Z"/>
      <path class="cls-1" d="M190.56,74.09a5.29,5.29,0,0,0,.2,1.45,3.6,3.6,0,0,0,.6,1.19,2.75,2.75,0,0,0,1,.81,3.06,3.06,0,0,0,1.39.3,3,3,0,0,0,1.85-.57,2.75,2.75,0,0,0,1-1.61h1.22a5.88,5.88,0,0,1-.53,1.26,3.78,3.78,0,0,1-.82,1,3.54,3.54,0,0,1-1.17.67,4.77,4.77,0,0,1-1.58.24,4.69,4.69,0,0,1-2-.38,3.77,3.77,0,0,1-1.36-1.06,4.45,4.45,0,0,1-.78-1.57,6.86,6.86,0,0,1-.26-1.95,6.24,6.24,0,0,1,.3-2,5,5,0,0,1,.86-1.61,3.92,3.92,0,0,1,1.37-1.08,4.13,4.13,0,0,1,1.83-.39,3.81,3.81,0,0,1,3.08,1.34,6,6,0,0,1,1.1,3.92Zm6.19-.92a4.32,4.32,0,0,0-.19-1.31A3.09,3.09,0,0,0,196,70.8a2.71,2.71,0,0,0-.94-.72,3.14,3.14,0,0,0-1.3-.26,2.92,2.92,0,0,0-1.29.27,3.13,3.13,0,0,0-1,.73,3.58,3.58,0,0,0-.64,1.07,4.89,4.89,0,0,0-.31,1.28Z"/>
      <path class="cls-1" d="M207.4,65.38h1.1V78.57h-1.1V76.91h0a3,3,0,0,1-.61.83,3.73,3.73,0,0,1-.83.6,4,4,0,0,1-.92.36,3.43,3.43,0,0,1-.94.13,4.63,4.63,0,0,1-2-.38,3.63,3.63,0,0,1-1.32-1.06,4.08,4.08,0,0,1-.76-1.58,7.74,7.74,0,0,1-.24-2,7.1,7.1,0,0,1,.25-1.91,4.68,4.68,0,0,1,.78-1.6,3.82,3.82,0,0,1,1.32-1.1,4.1,4.1,0,0,1,1.88-.41,4.34,4.34,0,0,1,1.93.45,3.45,3.45,0,0,1,1.46,1.32Zm0,8.41a5.19,5.19,0,0,0-.22-1.53,4.14,4.14,0,0,0-.63-1.26,3.09,3.09,0,0,0-1-.86,2.75,2.75,0,0,0-1.35-.32,3,3,0,0,0-1.48.34,2.85,2.85,0,0,0-1,.92,3.94,3.94,0,0,0-.58,1.37,5.65,5.65,0,0,0-.15,1.67,4.58,4.58,0,0,0,.25,1.59,3.33,3.33,0,0,0,.68,1.16,2.92,2.92,0,0,0,1,.72,3.18,3.18,0,0,0,1.28.25,3,3,0,0,0,1.38-.31,2.84,2.84,0,0,0,1-.85,3.91,3.91,0,0,0,.62-1.28A5.91,5.91,0,0,0,207.4,73.79Z"/>
      <path class="cls-1" d="M211.37,67V65.38h1.21V67Zm.06,11.56V69.08h1.1v9.49Z"/>
      <path class="cls-1" d="M219.69,73c.21,0,.46-.06.74-.11a2.64,2.64,0,0,0,.71-.2.62.62,0,0,0,.34-.43,2.89,2.89,0,0,0,.06-.56,1.87,1.87,0,0,0-.54-1.38,2.52,2.52,0,0,0-1.82-.54,4.93,4.93,0,0,0-1.05.1,2.29,2.29,0,0,0-.83.35,1.9,1.9,0,0,0-.59.66,2.85,2.85,0,0,0-.3,1h-1.12a3.47,3.47,0,0,1,.39-1.44,3,3,0,0,1,.85-1,3.62,3.62,0,0,1,1.21-.55,6.22,6.22,0,0,1,1.46-.17,5.79,5.79,0,0,1,1.34.15,3.17,3.17,0,0,1,1.1.5,2.31,2.31,0,0,1,.74.91,3.35,3.35,0,0,1,.26,1.39v5.16c0,.43.08.7.23.82s.46.09.93-.08v.86l-.38.11a1.71,1.71,0,0,1-.49.07,2.63,2.63,0,0,1-.49,0,.93.93,0,0,1-.44-.18,1.09,1.09,0,0,1-.27-.33,1.47,1.47,0,0,1-.13-.42,2.45,2.45,0,0,1,0-.48A4.85,4.85,0,0,1,220,78.43a4.69,4.69,0,0,1-1.95.4,4.4,4.4,0,0,1-1.2-.16,2.77,2.77,0,0,1-1-.52,2.41,2.41,0,0,1-.7-.85,2.59,2.59,0,0,1-.26-1.2q0-2.41,3.32-2.86Zm1.85.55a5.49,5.49,0,0,1-1.41.39c-.48.06-.95.11-1.43.14a4,4,0,0,0-2,.57,1.63,1.63,0,0,0-.7,1.45,1.51,1.51,0,0,0,.63,1.29,2,2,0,0,0,.66.31,2.78,2.78,0,0,0,.76.1,4.93,4.93,0,0,0,1.28-.16,3.32,3.32,0,0,0,1.11-.51,2.58,2.58,0,0,0,.78-.86,2.54,2.54,0,0,0,.29-1.23Z"/>
      <path class="cls-1" d="M226.67,78.57h-1.1V69.08h1.1v1.78h0a3.14,3.14,0,0,1,1.18-1.58,3.58,3.58,0,0,1,1.91-.45V70a3.17,3.17,0,0,0-1.53.29,2.57,2.57,0,0,0-1,.84,3.53,3.53,0,0,0-.49,1.26,8.23,8.23,0,0,0-.14,1.51Z"/>
      <path class="cls-1" d="M231.73,67V65.38h1.21V67Zm.05,11.56V69.08h1.1v9.49Z"/>
      <path class="cls-1" d="M236.36,74.09a5.29,5.29,0,0,0,.2,1.45,3.6,3.6,0,0,0,.6,1.19,2.84,2.84,0,0,0,1,.81,3.09,3.09,0,0,0,1.39.3,3,3,0,0,0,1.85-.57,2.71,2.71,0,0,0,1-1.61h1.22a5.88,5.88,0,0,1-.53,1.26,3.78,3.78,0,0,1-.82,1,3.54,3.54,0,0,1-1.17.67,4.77,4.77,0,0,1-1.58.24,4.69,4.69,0,0,1-2-.38,3.77,3.77,0,0,1-1.36-1.06,4.45,4.45,0,0,1-.78-1.57,7.23,7.23,0,0,1-.26-1.95,6.24,6.24,0,0,1,.3-2,5,5,0,0,1,.86-1.61,4,4,0,0,1,1.37-1.08,4.17,4.17,0,0,1,1.83-.39,3.81,3.81,0,0,1,3.08,1.34,6,6,0,0,1,1.1,3.92Zm6.2-.92a4.33,4.33,0,0,0-.2-1.31,2.93,2.93,0,0,0-.57-1.06,2.71,2.71,0,0,0-.94-.72,3.14,3.14,0,0,0-1.3-.26,2.92,2.92,0,0,0-1.29.27,3.13,3.13,0,0,0-.95.73,3.58,3.58,0,0,0-.64,1.07,5.33,5.33,0,0,0-.31,1.28Z"/>
      <path class="cls-1" d="M246.51,75.61a2.8,2.8,0,0,0,.93,1.73,3.15,3.15,0,0,0,1.91.5,3.28,3.28,0,0,0,1.05-.15,1.91,1.91,0,0,0,.72-.39,1.65,1.65,0,0,0,.43-.56,1.52,1.52,0,0,0,.15-.66,1.2,1.2,0,0,0-.45-1,3.2,3.2,0,0,0-1.13-.53,13.71,13.71,0,0,0-1.46-.33,6.61,6.61,0,0,1-1.47-.42,2.94,2.94,0,0,1-1.13-.78,2.15,2.15,0,0,1-.45-1.45,2.48,2.48,0,0,1,.87-2,3.65,3.65,0,0,1,2.47-.76,4.25,4.25,0,0,1,2.5.68,3.14,3.14,0,0,1,1.16,2.3H251.5a2,2,0,0,0-.84-1.54,3.09,3.09,0,0,0-1.73-.45,2.43,2.43,0,0,0-1.59.45,1.44,1.44,0,0,0-.55,1.18,1.15,1.15,0,0,0,.45,1,3.78,3.78,0,0,0,1.12.55c.45.14.94.26,1.47.37a7.34,7.34,0,0,1,1.46.47,3.06,3.06,0,0,1,1.13.82,2.07,2.07,0,0,1,.45,1.42,2.42,2.42,0,0,1-.29,1.2,2.59,2.59,0,0,1-.81.87,3.67,3.67,0,0,1-1.22.53,6.75,6.75,0,0,1-1.55.17,4,4,0,0,1-1.49-.25,3.29,3.29,0,0,1-1.11-.68,3.33,3.33,0,0,1-.71-1,3.75,3.75,0,0,1-.3-1.26Z"/>
      <path class="cls-1" d="M111.11,10.16h1.31v1.46h-1.31Zm0,2.88h1.31v7.61h-1.31Z"/>
      <path class="cls-1" d="M114.36,13h1.22v1.09a3.5,3.5,0,0,1,1.15-1,3.11,3.11,0,0,1,1.35-.29,2.24,2.24,0,0,1,2.2,1.13,4.06,4.06,0,0,1,.31,1.78v4.91h-1.3V15.83a2.59,2.59,0,0,0-.21-1.13,1.24,1.24,0,0,0-1.24-.71,2.56,2.56,0,0,0-.75.09,1.85,1.85,0,0,0-.93.63,1.87,1.87,0,0,0-.42.78,5.6,5.6,0,0,0-.09,1.15v4h-1.29Z"/>
      <path class="cls-1" d="M131.6,13.41a3,3,0,0,1,1,2.16h-1.25a2.33,2.33,0,0,0-.52-1.17,1.64,1.64,0,0,0-1.31-.47,1.82,1.82,0,0,0-1.76,1.2A4.66,4.66,0,0,0,127.4,17a3.58,3.58,0,0,0,.49,1.94,1.88,1.88,0,0,0,2.79.29,2.69,2.69,0,0,0,.65-1.33h1.25a3,3,0,0,1-3.27,2.93,2.93,2.93,0,0,1-2.39-1.1A4.22,4.22,0,0,1,126,17a4.62,4.62,0,0,1,1-3.13,3.14,3.14,0,0,1,2.49-1.12A3.32,3.32,0,0,1,131.6,13.41Z"/>
      <path class="cls-1" d="M139.4,13.76a3.9,3.9,0,0,1,1,2.9,5,5,0,0,1-.89,3.05,3.24,3.24,0,0,1-2.77,1.21,3.12,3.12,0,0,1-2.49-1.07,4.24,4.24,0,0,1-.92-2.86,4.56,4.56,0,0,1,1-3.07,3.26,3.26,0,0,1,2.61-1.14A3.45,3.45,0,0,1,139.4,13.76Zm-.8,5.08a4.88,4.88,0,0,0,.47-2.15,3.75,3.75,0,0,0-.34-1.73,1.89,1.89,0,0,0-1.85-1.06,1.82,1.82,0,0,0-1.69.9,4.23,4.23,0,0,0-.53,2.17,3.67,3.67,0,0,0,.53,2,1.85,1.85,0,0,0,1.68.81A1.74,1.74,0,0,0,138.6,18.84Z"/>
      <path class="cls-1" d="M142,13h1.22v1.09a3.5,3.5,0,0,1,1.15-1,3.11,3.11,0,0,1,1.35-.29,2.24,2.24,0,0,1,2.2,1.13,4.06,4.06,0,0,1,.31,1.78v4.91h-1.3V15.83a2.59,2.59,0,0,0-.21-1.13,1.24,1.24,0,0,0-1.24-.71,2.56,2.56,0,0,0-.75.09,1.85,1.85,0,0,0-.93.63,1.87,1.87,0,0,0-.42.78,5.47,5.47,0,0,0-.1,1.15v4H142Z"/>
      <path class="cls-1" d="M148.91,22.58a2.61,2.61,0,0,0,1-.15c.12-.09.18-.35.18-.79V13h1.28v8.74a2.32,2.32,0,0,1-.27,1.25,1.86,1.86,0,0,1-1.7.7h-.2l-.32,0Zm2.49-10.94h-1.28V10.16h1.28Z"/>
      <path class="cls-1" d="M154.65,13v5.08a2.17,2.17,0,0,0,.18,1,1.27,1.27,0,0,0,1.25.69,1.76,1.76,0,0,0,1.78-1.2,4.94,4.94,0,0,0,.25-1.76V13h1.29v7.65h-1.21V19.52a2.55,2.55,0,0,1-.61.73,2.64,2.64,0,0,1-1.75.6,2.25,2.25,0,0,1-2.19-1.09,3.3,3.3,0,0,1-.31-1.56V13Z"/>
      <path class="cls-1" d="M161.5,13h1.22v1.09a3.41,3.41,0,0,1,1.15-1,3.11,3.11,0,0,1,1.35-.29A2.22,2.22,0,0,1,167.41,14a4,4,0,0,1,.32,1.78v4.91h-1.31V15.83a2.76,2.76,0,0,0-.2-1.13A1.26,1.26,0,0,0,165,14a2.65,2.65,0,0,0-.75.09,1.83,1.83,0,0,0-.92.63,1.76,1.76,0,0,0-.42.78,4.87,4.87,0,0,0-.1,1.15v4H161.5Z"/>
      <path class="cls-1" d="M174.68,13.41a3,3,0,0,1,1,2.16H174.4a2.25,2.25,0,0,0-.52-1.17,1.63,1.63,0,0,0-1.31-.47,1.8,1.8,0,0,0-1.75,1.2,4.66,4.66,0,0,0-.34,1.91A3.67,3.67,0,0,0,171,19a1.89,1.89,0,0,0,2.8.29,2.68,2.68,0,0,0,.64-1.33h1.25a3,3,0,0,1-3.26,2.93,2.92,2.92,0,0,1-2.39-1.1,4.16,4.16,0,0,1-.89-2.74,4.62,4.62,0,0,1,1-3.13,3.17,3.17,0,0,1,2.49-1.12A3.33,3.33,0,0,1,174.68,13.41Z"/>
      <path class="cls-1" d="M177.19,10.87h1.3V13h1.22v1.05h-1.22v5a.53.53,0,0,0,.27.53,1.05,1.05,0,0,0,.5.08h.2l.25,0v1a3.4,3.4,0,0,1-.46.09,4.17,4.17,0,0,1-.52,0,1.42,1.42,0,0,1-1.22-.46,2.1,2.1,0,0,1-.32-1.2V14.05h-1V13h1Z"/>
      <path class="cls-1" d="M181,10.16h1.3v1.46H181ZM181,13h1.3v7.61H181Z"/>
      <path class="cls-1" d="M189.78,13.76a3.87,3.87,0,0,1,1,2.9,5,5,0,0,1-.9,3.05,3.23,3.23,0,0,1-2.77,1.21,3.11,3.11,0,0,1-2.48-1.07,4.19,4.19,0,0,1-.93-2.86,4.61,4.61,0,0,1,1-3.07,3.26,3.26,0,0,1,2.61-1.14A3.43,3.43,0,0,1,189.78,13.76ZM189,18.84a4.88,4.88,0,0,0,.47-2.15,3.88,3.88,0,0,0-.34-1.73,1.9,1.9,0,0,0-1.85-1.06,1.83,1.83,0,0,0-1.7.9A4.23,4.23,0,0,0,185,17a3.67,3.67,0,0,0,.53,2,1.88,1.88,0,0,0,1.68.81A1.75,1.75,0,0,0,189,18.84Z"/>
      <path class="cls-1" d="M192.37,13h1.22v1.09a3.61,3.61,0,0,1,1.15-1,3.17,3.17,0,0,1,1.35-.29,2.23,2.23,0,0,1,2.2,1.13,4,4,0,0,1,.32,1.78v4.91H197.3V15.83a2.59,2.59,0,0,0-.21-1.13,1.24,1.24,0,0,0-1.24-.71,2.65,2.65,0,0,0-.75.09,1.89,1.89,0,0,0-.93.63,1.84,1.84,0,0,0-.41.78,4.87,4.87,0,0,0-.1,1.15v4h-1.29Z"/>
      <path class="cls-1" d="M205.16,13l1.47,6,1.49-6h1.45l1.49,6,1.57-6h1.28l-2.22,7.65h-1.33l-1.56-5.92-1.5,5.92H206L203.76,13Z"/>
      <path class="cls-1" d="M215.12,10.16h1.31v1.46h-1.31Zm0,2.88h1.31v7.61h-1.31Z"/>
      <path class="cls-1" d="M218.63,10.87h1.3V13h1.22v1.05h-1.22v5a.53.53,0,0,0,.27.53,1,1,0,0,0,.5.08h.2l.25,0v1a3.4,3.4,0,0,1-.46.09,4.28,4.28,0,0,1-.52,0,1.41,1.41,0,0,1-1.22-.46,2,2,0,0,1-.32-1.2V14.05h-1V13h1Z"/>
      <path class="cls-1" d="M222.43,10.12h1.29V14a3.49,3.49,0,0,1,.82-.82,2.77,2.77,0,0,1,1.55-.4A2.28,2.28,0,0,1,228.34,14a3.87,3.87,0,0,1,.32,1.76v4.91h-1.32V15.83a2.77,2.77,0,0,0-.21-1.24,1.38,1.38,0,0,0-1.32-.63,2.2,2.2,0,0,0-1.44.55,2.63,2.63,0,0,0-.65,2.08v4.06h-1.29Z"/>
      <path class="cls-1" d="M356.75,41.9c0,1,0,14.27,0,14.27h3.42V39.37h-3.79A6.86,6.86,0,0,1,356.75,41.9Z"/>
      <polygon class="cls-1" points="369.09 39.37 365.5 39.37 360.56 47.35 360.31 47.76 360.31 47.77 360.31 47.77 360.56 48.18 365.5 56.17 369.09 56.17 363.75 47.77 369.09 39.37"/>
      <path class="cls-1" d="M345.69,56.45a11.61,11.61,0,0,0,4.8-1.39v1h3.82a9.79,9.79,0,0,1-.35-2.63V39.37h-3.47V52.56A5.59,5.59,0,0,1,347,54.09c-1.71,0-2.11-1-2.11-3V39.37H340.5c0,.23.45.71.45,1.34V51.24c0,2.22.83,5.21,4.74,5.21"/>
    </g>
  </g>
</svg>