<svg xmlns="http://www.w3.org/2000/svg" viewBox="0 0 230.98 59.54">
  <defs>
    <style>.cls-1,.cls-2{fill:#fff;}.cls-2{fill-rule:evenodd;}</style>
  </defs>
  <title>Skipton</title>
  <g id="Layer_2" data-name="Layer 2">
    <g id="Layer_1-2" data-name="Layer 1">
      <path class="cls-1" d="M155.63,59.52a4.14,4.14,0,0,1-2-.54l-.3.36h-.43l-.07-2.58h.43c.38,1.09,1.09,2.27,2.39,2.27,1,0,1.42-.52,1.42-1.26,0-.58-.38-1-1.14-1.31-.57-.2-1-.35-1.51-.55a2.07,2.07,0,0,1-1.39-2,2.27,2.27,0,0,1,2.49-2.1,3.77,3.77,0,0,1,1.82.5l.26-.33H158l0,2.47h-.44c-.38-1.14-.85-2.16-2.06-2.16a1.14,1.14,0,0,0-1.23,1.09c0,.62.35,1,1.07,1.26.49.2,1,.36,1.46.55a2.08,2.08,0,0,1,1.55,2C158.41,58.55,157.28,59.52,155.63,59.52Z"/>
      <path class="cls-1" d="M159.15,59.34V59a2.65,2.65,0,0,0,.48-.07.46.46,0,0,0,.3-.48V55.34a.68.68,0,0,0-.3-.54,1.51,1.51,0,0,0-.62-.17v-.36l2.17-.12.07.07v4.14a.53.53,0,0,0,.3.5A1.53,1.53,0,0,0,162,59v.36Zm1.32-6.28a.82.82,0,1,1,.86-.84A.86.86,0,0,1,160.47,53.06Z"/>
      <path class="cls-1" d="M166,59.34V59a2.54,2.54,0,0,0,.47-.07c.18-.07.24-.25.24-.48V55.91c0-.74-.33-1.1-.81-1.1a1.44,1.44,0,0,0-1.24.71v2.86a.5.5,0,0,0,.25.48,1.53,1.53,0,0,0,.47.11v.36h-2.82V59a2,2,0,0,0,.48-.06.45.45,0,0,0,.3-.48V55.34a.78.78,0,0,0-.3-.58,1.44,1.44,0,0,0-.54-.14v-.36l2.09-.11.07.07V55h0a2.38,2.38,0,0,1,1.82-.89c1.06,0,1.56.68,1.56,1.73v2.6a.46.46,0,0,0,.27.48,1.65,1.65,0,0,0,.48.1v.36Z"/>
      <path class="cls-1" d="M171.81,59.5a2.48,2.48,0,0,1-2.62-2.74,2.65,2.65,0,0,1,2.6-2.69h.1c1.26,0,1.89.6,1.89,1.33a.65.65,0,0,1-.71.74c-.41,0-.78-.21-.78-.58a5,5,0,0,1,.16-.86c-.09-.17-.28-.22-.55-.22-.6,0-1.23.56-1.23,2.22,0,1.25.61,2.12,1.5,2.12a1.59,1.59,0,0,0,1.48-1l.38.24A2.55,2.55,0,0,1,171.81,59.5Z"/>
      <path class="cls-1" d="M176.9,59.5a2.53,2.53,0,0,1-2.7-2.75,2.58,2.58,0,0,1,2.58-2.69,2.05,2.05,0,0,1,2.3,2.21v.34h-3.44c0,1.36.51,2.22,1.71,2.22a1.68,1.68,0,0,0,1.48-1l.39.24A2.65,2.65,0,0,1,176.9,59.5Zm-.16-5c-.61,0-1.06.57-1.09,1.69h2c0-.89-.17-1.69-.92-1.69Z"/>
      <path class="cls-1" d="M182.41,59a8.65,8.65,0,0,0,.89-.08c.38-.08.61-.27.61-.58V53.08h-1.49v-.46h.37a2.42,2.42,0,0,0,1.87-.79h.68c0,.77-.05,1.24-.05,1.6v4.83c0,.31.17.48.53.58a4.34,4.34,0,0,0,.88.12v.38h-4.29Z"/>
      <path class="cls-1" d="M190.06,59.54c-1.71,0-2.72-.87-2.72-2,0-.88.57-1.48,1.7-1.81a2.15,2.15,0,0,1-1.41-1.9c0-1.13,1.14-2,2.66-2s2.44.78,2.44,1.85c0,.72-.46,1.32-1.48,1.69,1.25.5,1.75,1.12,1.75,2C193,58.55,191.85,59.54,190.06,59.54Zm-.66-3.65a1.86,1.86,0,0,0-.7,1.55,1.49,1.49,0,0,0,1.49,1.66,1.31,1.31,0,0,0,1.42-1.38c0-.92-.78-1.2-2.21-1.84Zm.79-3.66A1.16,1.16,0,0,0,189,53.37v.09c0,.85.65,1.14,1.87,1.7a2.16,2.16,0,0,0,.49-1.55c0-.81-.44-1.39-1.18-1.39Z"/>
      <path class="cls-1" d="M196.24,59.45c-1.32,0-2.31-.67-2.31-1.48a.71.71,0,0,1,.65-.76h0a.69.69,0,0,1,.78.67,4,4,0,0,1-.19.9,1.73,1.73,0,0,0,.86.23c.87,0,1.67-.7,1.67-2.12a1.54,1.54,0,0,0-1.5-1.68,1.79,1.79,0,0,0-1.45.69l-.37-.14L194.9,52h4v1.28h-3.66L195,55.11a3,3,0,0,1,1.66-.49,2.32,2.32,0,0,1,2.56,2.26A2.75,2.75,0,0,1,196.24,59.45Z"/>
      <path class="cls-1" d="M202.82,59.46c-1.39,0-2.36-.71-2.36-1.51a.71.71,0,0,1,.65-.77h0c.49,0,.79.28.79.66a3.9,3.9,0,0,1-.19.9,1.48,1.48,0,0,0,1,.27c.83,0,1.57-.54,1.57-1.81,0-.8-.26-1.45-1.35-1.45h-.67v-.61h.45c.92,0,1.3-.52,1.3-1.58,0-.72-.3-1.28-1.14-1.28a1.43,1.43,0,0,0-.86.3,3.33,3.33,0,0,1,.18.94c0,.37-.29.65-.78.65a.68.68,0,0,1-.68-.67v-.09c0-.75.92-1.59,2.45-1.59,1.92,0,2.37,1.14,2.37,1.71s-.36,1.45-1.69,1.77v.09a1.88,1.88,0,0,1,2,1.83C205.87,58.56,204.52,59.46,202.82,59.46Z"/>
      <path class="cls-1" d="M176.28,44.52h-3.42V31.3a6.07,6.07,0,1,1,12.13,0V44.52h-2.07c11.44.44,31.77,2.68,31.77,2.68L204.53,6.05l3.12-6h-7V1.78h-2.14V0h-6.05V1.8h-2V.09h-7l2.13,4.28-.7,1.41H174.33l-.7-1.41L175.77.09h-7V1.8h-2V0h-6.05V1.78h-2.14V.09h-7l3.12,6L144.5,47.2S164.84,45,176.28,44.52Z"/>
      <path class="cls-1" d="M179.55,41.46c-21.69,0-51.37,7.45-51.37,7.45s34.72-2.81,51.37-2.81S231,48.91,231,48.91s-29.75-7.44-51.43-7.44"/>
      <path class="cls-1" d="M3.89,29.68c2,0,3.07,1.13,3.07,2.56a2.67,2.67,0,0,1-2.32,2.57h.15a2.7,2.7,0,0,1,2.94,2.72A3.18,3.18,0,0,1,6.53,40a4.47,4.47,0,0,1-3.08.74H0V29.68Zm-2.38,5c1.88,0,3.93-.28,3.93-2.22,0-1.34-1.06-1.79-2.23-1.79H1.51Zm0,5.19H3.42c2.47,0,2.75-1.55,2.75-2.2,0-1.94-1.79-2.37-4.54-2.37H1.51Z"/>
      <path class="cls-1" d="M16.7,40.76V39.12a4.49,4.49,0,0,1-3.81,2A3.58,3.58,0,0,1,9.31,39a6.91,6.91,0,0,1-.19-2V29.68h1.5v6.88c0,1.37,0,2.43,1.18,3.09a3.05,3.05,0,0,0,1.54.37,4.86,4.86,0,0,0,3.36-1.73V29.68h1.5V40.76Z"/>
      <path class="cls-1" d="M20.65,40.76V29.68h1.51V40.76Z"/>
      <path class="cls-1" d="M24.58,40.76V29.68h1.54V39.79h5.41v1Z"/>
      <path class="cls-1" d="M36.64,29.75a8.11,8.11,0,0,1,2.45.35,5.27,5.27,0,0,1,3.31,5.16,5.28,5.28,0,0,1-3.5,5.22,8.91,8.91,0,0,1-2.82.35H32.86V29.75ZM34.38,39.88h1.34a7.64,7.64,0,0,0,2.38-.27,4.26,4.26,0,0,0,2.7-4.26c0-2-.9-3.91-2.93-4.48a7.36,7.36,0,0,0-1.81-.17H34.38Z"/>
      <path class="cls-1" d="M44,40.76V29.68H45.5V40.76Z"/>
      <path class="cls-1" d="M56.57,40.83l-7.56-9v8.85h-1.3V29.61H49l6.77,8.1s-.06-6.84-.08-8.1H57V40.83Z"/>
      <path class="cls-1" d="M68.48,35.63v4.31a9.48,9.48,0,0,1-4.32,1.15,5.36,5.36,0,0,1-5.57-5.71,5.7,5.7,0,0,1,5.71-6c1.76,0,3.56.8,3.89,2.69l-.36.15a3.84,3.84,0,0,0-3.37-1.78c-2.79,0-4.25,2.22-4.25,4.82s1.43,4.88,4.23,4.88A6.25,6.25,0,0,0,67,39.49V36.56H64.51v-.92Z"/>
      <path class="cls-1" d="M79.12,40a2.3,2.3,0,0,0,2.56-2.23c0-1.33-1-1.75-2-2l-1.21-.32c-2.16-.56-2.6-1.91-2.6-3a3.28,3.28,0,0,1,3.59-3.17,3.22,3.22,0,0,1,3.42,2.95l-.39.14a3.23,3.23,0,0,0-2.87-2,2,2,0,0,0-2.26,2c0,1.29.93,1.66,2.45,2l.45.11c1.37.32,3,1.05,3,3.09,0,.65-.37,3.48-4,3.48-1.9,0-3.66-.91-3.83-3.23l.41-.11A3.49,3.49,0,0,0,79.12,40Z"/>
      <path class="cls-1" d="M89.56,41.09c-3.4,0-5.39-2.6-5.39-5.85s1.93-5.88,5.38-5.88,5.36,2.62,5.36,5.85S93,41.09,89.56,41.09Zm0-10.76c-2.69,0-3.8,2.62-3.8,4.94s1.18,4.83,3.81,4.83,3.75-2.62,3.75-4.94S92.18,30.33,89.55,30.33Z"/>
      <path class="cls-1" d="M105,32.49a3.91,3.91,0,0,0-3.5-2.05c-2.84,0-4,2.22-4,4.78,0,3.3,2.1,4.77,4.06,4.77a4.18,4.18,0,0,0,3.56-2l.42.17a4,4,0,0,1-4.26,3c-3.41,0-5.37-2.57-5.37-5.82s2-5.91,5.49-5.91c2,0,3.73,1,4,2.93Z"/>
      <path class="cls-1" d="M107.21,40.76V29.68h1.51V40.76Z"/>
      <path class="cls-1" d="M111.11,40.76V29.68h6.77v.95h-5.27v3.86h4.66v1h-4.66V39.8h6v1Z"/>
      <path class="cls-1" d="M124.13,30.69V40.76h-1.55V30.69H119.1v-1h8.5v1Z"/>
      <path class="cls-1" d="M133.65,41.29a4.15,4.15,0,0,1-4.35,2.8h-.44v-.52c2.23-.16,2.93-1.26,3.81-3.06l.25-.49-4.3-10.34h1.62l3.46,8.5,3.73-8.5h1.32Z"/>
      <path class="cls-1" d="M28.16,9.42l.71-.29c-.49-3.54-2.92-5.3-6.2-5.3-3.94,0-6.46,2.64-6.46,5.73,0,4,3.54,5,4.67,5.3.31.08,1.79.48,2.1.54,1.92.53,2.58,1,3.08,1.64a3.19,3.19,0,0,1,.68,2.1c0,2.49-2,4-4.62,4a6.31,6.31,0,0,1-3.91-1.33A6.9,6.9,0,0,1,16.15,19c-.25.08-.49.16-.74.22.17,2.7,1.89,5.81,6.91,5.81s7.2-3.32,7.2-6.26c0-4-3.48-5-4.56-5.36-.5-.14-2.86-.7-3.32-.87-1.3-.43-2.74-1.24-2.74-3.22S20.5,5.7,23,5.7C26.26,5.7,27.59,8.31,28.16,9.42Z"/>
      <polygon class="cls-1" points="37.15 13.58 46.25 4.43 43.39 4.43 34.32 13.58 34.32 4.43 31.6 4.43 31.6 24.43 34.32 24.43 34.32 14.29 44.13 24.43 47.64 24.43 37.15 13.58"/>
      <rect class="cls-1" x="49.61" y="4.43" width="2.72" height="20"/>
      <path class="cls-1" d="M58.58,6.1h3c2.44,0,3.32.57,3.91,1.27a3.75,3.75,0,0,1,.83,2.36c0,1.73-1.08,3.45-3.68,4.16a13.72,13.72,0,0,1-4.09.37Zm0,9.24c1.64.08,1.81.08,2.41.08,5.86,0,8.19-2.74,8.19-5.95A4.62,4.62,0,0,0,66.43,5a10.61,10.61,0,0,0-4.33-.59H55.83v20h2.75Z"/>
      <polygon class="cls-1" points="79.12 6.24 85.38 6.24 85.38 4.43 70.05 4.43 70.05 6.24 76.34 6.24 76.34 24.43 79.12 24.43 79.12 6.24"/>
      <path class="cls-2" d="M101.53,14.33c0,5.1-2.47,9-6.77,9-3.74,0-6.89-3.14-6.89-8.87,0-5,2.67-8.81,6.86-8.81C99.35,5.59,101.53,9.93,101.53,14.33Zm2.89,0c0-5.21-3.09-10.51-9.69-10.51S85,8.82,85,14.49C85,20.83,89,25,94.76,25c6,0,9.66-4.56,9.66-10.68Z"/>
      <path class="cls-1" d="M123.33,4.43h-2.42l.14,14.82a15.9,15.9,0,0,0-1.84-2.41L108.83,4.43h-2.32v20h2.35V8.22a22.43,22.43,0,0,0,1.64,2.23l12,14.25h.86Z"/>
    </g>
  </g>
</svg>