<svg xmlns="http://www.w3.org/2000/svg" xmlns:xlink="http://www.w3.org/1999/xlink" viewBox="0 0 297.54 84.44">
  <defs>
    <style>.cls-1,.cls-6{fill:#fff;}.cls-2{fill:url(#linear-gradient);}.cls-3{fill:url(#linear-gradient-2);}.cls-4{fill:url(#linear-gradient-3);}.cls-5{fill:url(#linear-gradient-4);}.cls-6{opacity:0.7;}.cls-7{fill:url(#linear-gradient-5);}.cls-8{fill:url(#linear-gradient-6);}</style>
    <linearGradient id="linear-gradient" x1="81.43" y1="22.68" x2="49.95" y2="22.68" gradientUnits="userSpaceOnUse">
      <stop offset="0" stop-color="#fff" stop-opacity="0.7"/>
      <stop offset="1" stop-color="#fff" stop-opacity="0.9"/>
    </linearGradient>
    <linearGradient id="linear-gradient-2" x1="0" y1="20.79" x2="49.89" y2="20.79" xlink:href="#linear-gradient"/>
    <linearGradient id="linear-gradient-3" x1="49.89" y1="56.91" x2="80.63" y2="56.91" xlink:href="#linear-gradient"/>
    <linearGradient id="linear-gradient-4" x1="5.08" y1="62.77" x2="49.89" y2="62.77" xlink:href="#linear-gradient"/>
    <linearGradient id="linear-gradient-5" x1="49.96" y1="28.33" x2="78.53" y2="28.33" gradientUnits="userSpaceOnUse">
      <stop offset="0" stop-color="#fff" stop-opacity="0.3"/>
      <stop offset="1" stop-color="#fff" stop-opacity="0.9"/>
    </linearGradient>
    <linearGradient id="linear-gradient-6" x1="30.99" y1="41.42" x2="49.96" y2="41.42" xlink:href="#linear-gradient-5"/>
  </defs>
  <title>thecambridge</title>
  <g id="Layer_2" data-name="Layer 2">
    <g id="Layer_1-2" data-name="Layer 1">
      <polygon class="cls-1" points="103.63 36.17 108.98 36.17 108.98 16.33 116.27 16.33 116.27 11.83 96.33 11.83 96.33 16.33 103.63 16.33 103.63 36.17"/>
      <polygon class="cls-1" points="124.42 25.67 134.27 25.67 134.27 36.17 139.63 36.17 139.63 11.83 134.27 11.83 134.27 21.17 124.42 21.17 124.42 11.83 119.07 11.83 119.07 36.17 124.42 36.17 124.42 25.67"/>
      <polygon class="cls-1" points="162.81 31.67 149.68 31.67 149.68 25.7 161.48 25.7 161.48 21.54 149.68 21.54 149.68 16.33 162.54 16.33 162.54 11.83 144.33 11.83 144.33 36.17 162.81 36.17 162.81 31.67"/>
      <path class="cls-1" d="M116.55,63.8a10,10,0,0,0,2.25-3.13,12.48,12.48,0,0,0,1-4.13h-5.18a6.92,6.92,0,0,1-1.69,4,5,5,0,0,1-3.83,1.5,6.3,6.3,0,0,1-3.07-.7,6,6,0,0,1-2-1.86,8.09,8.09,0,0,1-1.14-2.61,12.28,12.28,0,0,1-.36-3,13.22,13.22,0,0,1,.36-3.1A8.28,8.28,0,0,1,104,48.07a6,6,0,0,1,2-1.88,6.3,6.3,0,0,1,3.07-.69,5.44,5.44,0,0,1,1.89.32,5.81,5.81,0,0,1,1.62.9,5.45,5.45,0,0,1,1.19,1.35,4.3,4.3,0,0,1,.62,1.69h5.18A9.88,9.88,0,0,0,118.49,46a9,9,0,0,0-2.34-2.75,10.09,10.09,0,0,0-3.2-1.68,12.14,12.14,0,0,0-3.8-.58,12.43,12.43,0,0,0-5,1,10.83,10.83,0,0,0-3.77,2.73A12.29,12.29,0,0,0,98,48.79a15,15,0,0,0-.82,5.06,14.62,14.62,0,0,0,.82,5,11.91,11.91,0,0,0,2.35,4,10.83,10.83,0,0,0,3.77,2.68,12.43,12.43,0,0,0,5,1,11.83,11.83,0,0,0,4.12-.68A9.51,9.51,0,0,0,116.55,63.8Z"/>
      <path class="cls-1" d="M144.74,65.92l-9.1-24.34h-5.49l-9.21,24.34h5.39l1.91-5.42h9.1l1.84,5.42Zm-15.1-9.41,3.17-8.93h.07L136,56.51Z"/>
      <polygon class="cls-1" points="167.99 48.67 168.06 48.67 168.06 65.92 173.07 65.92 173.07 41.58 165.54 41.58 160.15 58.31 160.08 58.31 154.39 41.58 146.85 41.58 146.85 65.92 151.87 65.92 151.87 48.84 151.93 48.84 157.9 65.92 162.03 65.92 167.99 48.67"/>
      <path class="cls-1" d="M193.7,52.69a6.05,6.05,0,0,0,2.47-2,5.31,5.31,0,0,0,.83-3.07,6.42,6.42,0,0,0-.56-2.86,4.56,4.56,0,0,0-1.58-1.86,6.92,6.92,0,0,0-2.46-1,15.45,15.45,0,0,0-3.17-.3H177.78V65.92h11.79a12.57,12.57,0,0,0,3.19-.41,8.49,8.49,0,0,0,2.76-1.26,6.22,6.22,0,0,0,1.93-2.2,6.68,6.68,0,0,0,.71-3.19,6.8,6.8,0,0,0-1.1-3.9A5.85,5.85,0,0,0,193.7,52.69Zm-10.57-7h5a7.7,7.7,0,0,1,1.38.12,3.6,3.6,0,0,1,1.18.43,2.31,2.31,0,0,1,.82.85,2.9,2.9,0,0,1,.3,1.4,2.58,2.58,0,0,1-.92,2.22,3.87,3.87,0,0,1-2.35.68h-5.42Zm9.36,14.39a2.64,2.64,0,0,1-.87,1,3.71,3.71,0,0,1-1.26.51,6.7,6.7,0,0,1-1.5.16h-5.73V55.08H189a4.45,4.45,0,0,1,2.79.8,3.12,3.12,0,0,1,1.06,2.67A3.42,3.42,0,0,1,192.49,60.12Z"/>
      <path class="cls-1" d="M220.2,63.12c0-.54-.09-1.08-.11-1.6s-.05-1-.07-1.36a14.7,14.7,0,0,0-.26-1.85,5.79,5.79,0,0,0-.6-1.68,4.55,4.55,0,0,0-1-1.33,4,4,0,0,0-1.64-.84v-.07A5.67,5.67,0,0,0,219.42,52a7.37,7.37,0,0,0,.9-3.72,6.85,6.85,0,0,0-.49-2.61,6.5,6.5,0,0,0-1.43-2.13,7.08,7.08,0,0,0-2.25-1.45,7.91,7.91,0,0,0-3-.52H200.07V65.92h5.36V56.41h5.35a4,4,0,0,1,2.9.88,4.82,4.82,0,0,1,1.15,2.8c.14,1,.24,2,.31,3.07a9.44,9.44,0,0,0,.55,2.76H221a3.5,3.5,0,0,1-.56-1.25A10.41,10.41,0,0,1,220.2,63.12Zm-6.15-11.35a4.06,4.06,0,0,1-2.76.82h-5.86V45.73h5.86a4.06,4.06,0,0,1,2.76.81,3.24,3.24,0,0,1,.92,2.57A3.41,3.41,0,0,1,214.05,51.77Z"/>
      <rect class="cls-1" x="222.98" y="41.58" width="5.35" height="24.34"/>
      <path class="cls-1" d="M249.73,44.58a9.53,9.53,0,0,0-3.51-2.25,12.59,12.59,0,0,0-4.38-.75H231.33V65.92h10.51a11.53,11.53,0,0,0,4.85-.94,9.7,9.7,0,0,0,3.45-2.57,11,11,0,0,0,2.06-3.89,17,17,0,0,0,.68-4.91,15.32,15.32,0,0,0-.83-5.28A10.42,10.42,0,0,0,249.73,44.58Zm-2.71,13a6.26,6.26,0,0,1-1.37,2.27A4.85,4.85,0,0,1,243.71,61a6.9,6.9,0,0,1-2.25.38h-4.77V46.08h3.82a8.57,8.57,0,0,1,3.32.56A5.07,5.07,0,0,1,246,48.26a6.55,6.55,0,0,1,1.18,2.54,14.07,14.07,0,0,1,.36,3.32A10,10,0,0,1,247,57.53Z"/>
      <path class="cls-1" d="M266.21,56.75h5.39A5.23,5.23,0,0,1,265.8,62a6.33,6.33,0,0,1-3.07-.7,5.89,5.89,0,0,1-2-1.86,7.88,7.88,0,0,1-1.14-2.61,12.28,12.28,0,0,1-.36-3,13.22,13.22,0,0,1,.36-3.1,8.07,8.07,0,0,1,1.14-2.68,5.85,5.85,0,0,1,2-1.88,6.33,6.33,0,0,1,3.07-.69,5.37,5.37,0,0,1,3.31,1A5.11,5.11,0,0,1,271,49.59h5.11a8.87,8.87,0,0,0-3.46-6.38,10.08,10.08,0,0,0-3.17-1.65A11.67,11.67,0,0,0,265.8,41a12.47,12.47,0,0,0-5,1A10.7,10.7,0,0,0,257,44.71a12.14,12.14,0,0,0-2.36,4.08,15.3,15.3,0,0,0-.81,5.06,14.87,14.87,0,0,0,.81,5,11.77,11.77,0,0,0,2.36,4,10.7,10.7,0,0,0,3.76,2.68,12.47,12.47,0,0,0,5,1,8.94,8.94,0,0,0,3.51-.73,8,8,0,0,0,3.17-2.57l.55,2.76h3.41V52.76H266.21Z"/>
      <polygon class="cls-1" points="284.42 61.42 284.42 55.45 296.21 55.45 296.21 51.29 284.42 51.29 284.42 46.08 297.27 46.08 297.27 41.58 279.06 41.58 279.06 65.92 297.54 65.92 297.54 61.42 284.42 61.42"/>
      <path class="cls-1" d="M106.72,76a2.66,2.66,0,0,0,1-.85,2.27,2.27,0,0,0,.36-1.31,2.79,2.79,0,0,0-.24-1.22,2,2,0,0,0-.68-.79,2.94,2.94,0,0,0-1-.43,6.25,6.25,0,0,0-1.35-.13H99.92V81.61h5a5.23,5.23,0,0,0,1.36-.17,3.86,3.86,0,0,0,1.18-.54,2.73,2.73,0,0,0,.82-.93,2.93,2.93,0,0,0,.3-1.36,2.82,2.82,0,0,0-.47-1.66A2.51,2.51,0,0,0,106.72,76Zm-4.52-3h2.14a3.7,3.7,0,0,1,.59,0,1.92,1.92,0,0,1,.51.18,1,1,0,0,1,.35.37,1.26,1.26,0,0,1,.13.59,1.06,1.06,0,0,1-.4.94,1.59,1.59,0,0,1-1,.3H102.2Zm4,6.13a1.13,1.13,0,0,1-.37.41,1.86,1.86,0,0,1-.54.22,3.31,3.31,0,0,1-.64.06H102.2V77h2.49a1.92,1.92,0,0,1,1.2.34,1.35,1.35,0,0,1,.45,1.14A1.48,1.48,0,0,1,106.2,79.15Z"/>
      <path class="cls-1" d="M114.94,78a2.79,2.79,0,0,1-.37,1.65,1.47,1.47,0,0,1-1.23.5,1.11,1.11,0,0,1-1-.46,2.53,2.53,0,0,1-.29-1.38V74.11H110v4.62a6.3,6.3,0,0,0,.12,1.27,2.61,2.61,0,0,0,.43,1,2.15,2.15,0,0,0,.84.62,3.74,3.74,0,0,0,1.36.21,2.88,2.88,0,0,0,1.28-.29,2.3,2.3,0,0,0,1-.94h0v1h2v-7.5h-2.07Z"/>
      <rect class="cls-1" x="118.64" y="71.25" width="2.07" height="1.7"/>
      <rect class="cls-1" x="118.64" y="74.11" width="2.07" height="7.5"/>
      <rect class="cls-1" x="122.4" y="71.25" width="2.07" height="10.36"/>
      <path class="cls-1" d="M131.37,75h0a2.23,2.23,0,0,0-1-.83,2.91,2.91,0,0,0-1.27-.28,3,3,0,0,0-2.5,1.19,3.8,3.8,0,0,0-.62,1.24,5.05,5.05,0,0,0-.21,1.46,5.45,5.45,0,0,0,.21,1.51,4.12,4.12,0,0,0,.62,1.28,3.06,3.06,0,0,0,1.06.89,3.32,3.32,0,0,0,1.48.32,3.21,3.21,0,0,0,1.34-.27,2.09,2.09,0,0,0,.95-.87h0v1h2V71.25h-2.07Zm0,3.72a2.42,2.42,0,0,1-.29.78,1.55,1.55,0,0,1-.54.54,1.64,1.64,0,0,1-.86.2,1.54,1.54,0,0,1-.82-.21,1.76,1.76,0,0,1-.57-.55,2.2,2.2,0,0,1-.32-.77,3.79,3.79,0,0,1-.11-.88,4.41,4.41,0,0,1,.1-.89,2.32,2.32,0,0,1,.3-.76,1.7,1.7,0,0,1,.56-.54,1.76,1.76,0,0,1,.86-.2,1.67,1.67,0,0,1,.85.2,1.71,1.71,0,0,1,.54.53,2.05,2.05,0,0,1,.3.76,4.26,4.26,0,0,1,.09.89A4.43,4.43,0,0,1,131.35,78.74Z"/>
      <rect class="cls-1" x="135.05" y="71.25" width="2.07" height="1.7"/>
      <rect class="cls-1" x="135.05" y="74.11" width="2.07" height="7.5"/>
      <path class="cls-1" d="M145.26,74.76a2.07,2.07,0,0,0-.84-.63,3.52,3.52,0,0,0-1.36-.22,3.06,3.06,0,0,0-1.28.29,2.39,2.39,0,0,0-1,1h0v-1h-2v7.5h2.07V77.68A2.75,2.75,0,0,1,141.2,76a1.44,1.44,0,0,1,1.22-.5,1.11,1.11,0,0,1,1,.46,2.57,2.57,0,0,1,.29,1.39v4.23h2.07V77a6.16,6.16,0,0,0-.12-1.27A2.54,2.54,0,0,0,145.26,74.76Z"/>
      <path class="cls-1" d="M152.65,75.11h0a2.39,2.39,0,0,0-.94-.93,3,3,0,0,0-1.31-.27,3.12,3.12,0,0,0-1.39.3,3,3,0,0,0-1,.82,3.75,3.75,0,0,0-.62,1.19,4.7,4.7,0,0,0-.21,1.4,5.73,5.73,0,0,0,.18,1.46,3.48,3.48,0,0,0,.58,1.21,2.75,2.75,0,0,0,1,.81,3.31,3.31,0,0,0,1.46.3,3.08,3.08,0,0,0,1.3-.29,2.13,2.13,0,0,0,1-.87h0v1a2,2,0,0,1-.38,1.32,1.51,1.51,0,0,1-1.28.53,2,2,0,0,1-1-.23,1.2,1.2,0,0,1-.57-.8h-2a2.23,2.23,0,0,0,.35,1.09,2.69,2.69,0,0,0,.79.75,4.07,4.07,0,0,0,1.05.43,4.9,4.9,0,0,0,1.13.13,5.2,5.2,0,0,0,2.07-.34,3.28,3.28,0,0,0,1.17-.85,2.62,2.62,0,0,0,.54-1.08,5.18,5.18,0,0,0,.12-1v-7h-2Zm-.1,3.43a2.27,2.27,0,0,1-.33.66,1.6,1.6,0,0,1-1.33.64,1.44,1.44,0,0,1-.8-.2,1.69,1.69,0,0,1-.51-.52,2,2,0,0,1-.28-.72,3.71,3.71,0,0,1-.08-.81,3.44,3.44,0,0,1,.09-.8,2,2,0,0,1,.31-.68,1.43,1.43,0,0,1,1.27-.65,1.7,1.7,0,0,1,.85.19,1.46,1.46,0,0,1,.54.51,2.28,2.28,0,0,1,.29.73,4.18,4.18,0,0,1,.08.88A2.76,2.76,0,0,1,152.55,78.54Z"/>
      <path class="cls-1" d="M167.39,76.21a3.83,3.83,0,0,0-1-.48q-.51-.15-.81-.21L164,75.11a5.75,5.75,0,0,1-.95-.32,1,1,0,0,1-.46-.35.89.89,0,0,1-.12-.49.94.94,0,0,1,.15-.55A1.16,1.16,0,0,1,163,73a1.48,1.48,0,0,1,.5-.21,2.67,2.67,0,0,1,.56-.06,3.81,3.81,0,0,1,.78.08,2.17,2.17,0,0,1,.63.24,1.36,1.36,0,0,1,.44.48,1.89,1.89,0,0,1,.2.77h2.21a3.15,3.15,0,0,0-.34-1.53,3.07,3.07,0,0,0-.92-1,4.17,4.17,0,0,0-1.34-.59,6.66,6.66,0,0,0-1.56-.18,5.62,5.62,0,0,0-1.4.19,4,4,0,0,0-1.25.58,3.12,3.12,0,0,0-.9,1,2.7,2.7,0,0,0-.34,1.39,2.52,2.52,0,0,0,.27,1.21,2.61,2.61,0,0,0,.71.84,3.92,3.92,0,0,0,1,.54,9.94,9.94,0,0,0,1.13.36l1.12.29a5.8,5.8,0,0,1,1,.3,2.15,2.15,0,0,1,.71.44.9.9,0,0,1,.27.68,1,1,0,0,1-.21.64,1.31,1.31,0,0,1-.5.4,2.19,2.19,0,0,1-.66.2,5.14,5.14,0,0,1-.66,0,3.58,3.58,0,0,1-.87-.11,2,2,0,0,1-.73-.33,1.72,1.72,0,0,1-.51-.59,2,2,0,0,1-.19-.89h-2.21a3.47,3.47,0,0,0,.35,1.66,3.31,3.31,0,0,0,1,1.15,4.26,4.26,0,0,0,1.43.66,6.94,6.94,0,0,0,3.54,0,3.74,3.74,0,0,0,1.35-.69,2.89,2.89,0,0,0,.83-1,3.25,3.25,0,0,0,.27-1.32,2.51,2.51,0,0,0-.37-1.43A3.15,3.15,0,0,0,167.39,76.21Z"/>
      <path class="cls-1" d="M176.27,75a3.45,3.45,0,0,0-1.23-.8,4.35,4.35,0,0,0-1.61-.28,4.3,4.3,0,0,0-1.6.28,3.41,3.41,0,0,0-1.22.8,3.56,3.56,0,0,0-.79,1.25,4.64,4.64,0,0,0-.28,1.63,4.58,4.58,0,0,0,.28,1.62,3.65,3.65,0,0,0,.79,1.25,3.52,3.52,0,0,0,1.22.79,4.51,4.51,0,0,0,1.6.27,4.57,4.57,0,0,0,1.61-.27,3.57,3.57,0,0,0,1.23-.79,3.65,3.65,0,0,0,.79-1.25,4.59,4.59,0,0,0,.27-1.62,4.64,4.64,0,0,0-.27-1.63A3.56,3.56,0,0,0,176.27,75Zm-1.09,3.76a2.47,2.47,0,0,1-.3.77,1.56,1.56,0,0,1-.57.54,1.71,1.71,0,0,1-.88.2,1.65,1.65,0,0,1-.87-.2,1.61,1.61,0,0,1-.56-.54,2.47,2.47,0,0,1-.3-.77,4.31,4.31,0,0,1-.09-.88,4.41,4.41,0,0,1,.09-.89,2.38,2.38,0,0,1,.3-.77,1.7,1.7,0,0,1,.56-.54,1.65,1.65,0,0,1,.87-.21,1.71,1.71,0,0,1,.88.21,1.64,1.64,0,0,1,.57.54,2.38,2.38,0,0,1,.3.77,4.41,4.41,0,0,1,.09.89A4.31,4.31,0,0,1,175.18,78.75Z"/>
      <path class="cls-1" d="M183.37,79.85a1.76,1.76,0,0,1-2,.2,1.67,1.67,0,0,1-.53-.56,2.38,2.38,0,0,1-.28-.76,4,4,0,0,1-.09-.83,4.09,4.09,0,0,1,.09-.85,2.21,2.21,0,0,1,.29-.78,1.83,1.83,0,0,1,.55-.59,1.45,1.45,0,0,1,.83-.22,1.39,1.39,0,0,1,1.53,1.29h2a2.73,2.73,0,0,0-.35-1.25,2.82,2.82,0,0,0-.79-.89,3.46,3.46,0,0,0-1.11-.53,4.57,4.57,0,0,0-1.29-.17,4.19,4.19,0,0,0-1.63.3,3.45,3.45,0,0,0-1.2.85,3.59,3.59,0,0,0-.75,1.29,5,5,0,0,0-.26,1.62,4.11,4.11,0,0,0,.28,1.55,3.53,3.53,0,0,0,.77,1.21,3.44,3.44,0,0,0,1.2.79,4.11,4.11,0,0,0,1.55.28A3.78,3.78,0,0,0,184.7,81a3.41,3.41,0,0,0,1.17-2.28h-2A2,2,0,0,1,183.37,79.85Z"/>
      <rect class="cls-1" x="187.09" y="71.25" width="2.07" height="1.7"/>
      <rect class="cls-1" x="187.09" y="74.11" width="2.07" height="7.5"/>
      <path class="cls-1" d="M197.11,75.27a3.13,3.13,0,0,0-1.17-1,3.52,3.52,0,0,0-1.67-.37,4,4,0,0,0-1.57.3,3.56,3.56,0,0,0-1.21.84,3.6,3.6,0,0,0-.79,1.25,4.51,4.51,0,0,0-.28,1.57,4.59,4.59,0,0,0,.27,1.6,3.56,3.56,0,0,0,.77,1.24,3.31,3.31,0,0,0,1.21.81,4.26,4.26,0,0,0,1.6.28,3.92,3.92,0,0,0,2.18-.58,3.42,3.42,0,0,0,1.34-1.93H196a1.32,1.32,0,0,1-.55.66,1.83,1.83,0,0,1-1.08.31,1.86,1.86,0,0,1-1.34-.45,2.08,2.08,0,0,1-.51-1.45h5.43a5.45,5.45,0,0,0-.14-1.67A4.13,4.13,0,0,0,197.11,75.27Zm-4.62,1.79a2.1,2.1,0,0,1,.1-.5,1.44,1.44,0,0,1,.27-.52,1.6,1.6,0,0,1,.53-.41,1.78,1.78,0,0,1,.82-.17,1.47,1.47,0,0,1,1.13.41,2.26,2.26,0,0,1,.51,1.19Z"/>
      <path class="cls-1" d="M201.77,71.86H199.7v2.25h-1.25v1.38h1.25v4.43a1.86,1.86,0,0,0,.19.91,1.4,1.4,0,0,0,.51.54,2.27,2.27,0,0,0,.76.25,6.59,6.59,0,0,0,.91.07l.63,0a4.71,4.71,0,0,0,.58-.06V80l-.31,0-.33,0a1,1,0,0,1-.7-.18,1,1,0,0,1-.17-.7V75.49h1.51V74.11h-1.51Z"/>
      <path class="cls-1" d="M207.34,79.25h0l-1.7-5.14h-2.2l2.64,7a1.39,1.39,0,0,1,.08.46,1,1,0,0,1-.19.61.8.8,0,0,1-.61.32,4.16,4.16,0,0,1-.61,0l-.6-.06v1.7l.64,0,.63,0a3,3,0,0,0,1.66-.39,2.51,2.51,0,0,0,.93-1.31l3.15-8.43H209Z"/>
      <path class="cls-1" d="M49.89,41.27a.17.17,0,0,0-.14.09l.14.22.06-.3Z"/>
      <path class="cls-1" d="M50,41.42h0l-.15.16.07,0A.13.13,0,0,0,50,41.42Z"/>
      <path class="cls-2" d="M57.67,3.94,56,11.83,50,41.28a.17.17,0,0,1,.09.14L78.53,12.29l2.9-3Z"/>
      <path class="cls-1" d="M50,41.28l-.06.3.15-.16A.17.17,0,0,0,50,41.28Z"/>
      <path class="cls-3" d="M49.73,41.42a.14.14,0,0,1,0-.06L31.89,11.83l-3.26-5.4L0,0,1.84,41.58H49.89A.16.16,0,0,1,49.73,41.42Z"/>
      <path class="cls-1" d="M49.73,41.42a.16.16,0,0,0,.16.16l-.14-.22A.14.14,0,0,0,49.73,41.42Z"/>
      <path class="cls-4" d="M78.53,40.67l-10.42-4.5-11.7,3.47L50,41.55a.11.11,0,0,1-.07,0L78.53,77.32v.33l2.1-36.07Z"/>
      <path class="cls-1" d="M50,41.55l-.07,0A.11.11,0,0,0,50,41.55Z"/>
      <polygon class="cls-5" points="8.19 70.77 5.08 72.95 5.08 83.96 26.7 83.96 27.68 82.17 49.89 41.58 8.19 70.77"/>
      <polygon class="cls-1" points="8.19 41.58 8.19 64.36 49.89 41.58 8.19 41.58"/>
      <polygon class="cls-6" points="8.19 64.36 8.19 70.77 49.89 41.58 8.19 64.36"/>
      <polygon class="cls-1" points="78.53 77.32 49.89 41.58 78.53 77.33 78.53 77.32"/>
      <polygon class="cls-1" points="49.89 41.58 27.68 82.17 78.53 82.17 78.53 81.35 49.89 41.58"/>
      <polygon class="cls-6" points="78.53 77.33 49.89 41.58 78.53 81.35 78.53 77.33"/>
      <polygon class="cls-1" points="64.96 37.1 68.11 36.17 78.53 40.67 78.53 33.06 64.96 37.1"/>
      <path class="cls-7" d="M50,41.42h0a.13.13,0,0,1-.08.13L65,37.1l13.57-4v-18Z"/>
      <polygon class="cls-6" points="78.53 12.29 50.04 41.42 78.53 15.11 78.53 12.29"/>
      <path class="cls-1" d="M49.89,41.27H50L56,11.83H38L49.85,41.28Z"/>
      <path class="cls-1" d="M31.89,11.83,49.75,41.36a.1.1,0,0,1,0-.06L31.9,11.83Z"/>
      <path class="cls-8" d="M49.85,41.28l-.05,0,.16.25Z"/>
      <path class="cls-6" d="M38,11.83H31.9L49.8,41.3l.05,0Z"/>
    </g>
  </g>
</svg>