<svg xmlns="http://www.w3.org/2000/svg" viewBox="0 0 151.64 64.34">
  <defs>
    <style>.cls-1{fill:#fff;}</style>
  </defs>
  <title>Newcastle</title>
  <g id="Layer_2" data-name="Layer 2">
    <g id="Layer_1-2" data-name="Layer 1">
      <polygon class="cls-1" points="0 64.34 44.29 64.34 44.29 27.22 39.15 27.22 39.15 20.05 0 20.05 0 64.34"/>
      <path class="cls-1" d="M55.07,36.06h3.16L64,46.13V36.06h2.81V50.51h-3L57.88,40.26V50.51H55.07Z"/>
      <path class="cls-1" d="M76.34,40a4.39,4.39,0,0,1,1.85,1.58A5.24,5.24,0,0,1,79,43.83,12.44,12.44,0,0,1,79.13,46H71.35a2.58,2.58,0,0,0,1.12,2.25,2.83,2.83,0,0,0,1.54.4,2.34,2.34,0,0,0,1.55-.49,2.31,2.31,0,0,0,.58-.73H79a3.5,3.5,0,0,1-1,1.93,5.17,5.17,0,0,1-4,1.56,5.81,5.81,0,0,1-3.76-1.32,5.18,5.18,0,0,1-1.63-4.27A5.8,5.8,0,0,1,70,41a5.19,5.19,0,0,1,3.82-1.48A6.11,6.11,0,0,1,76.34,40Zm-4.17,2.41a2.88,2.88,0,0,0-.75,1.66h4.81a2.31,2.31,0,0,0-.74-1.69,2.47,2.47,0,0,0-1.66-.58A2.23,2.23,0,0,0,72.17,42.45Z"/>
      <path class="cls-1" d="M85.58,39.83h2.83L90,47.52l1.66-7.69h2.91L91.52,50.51H88.65L87,42.73l-1.69,7.78h-2.9l-3-10.68h3L84,47.49Z"/>
      <path class="cls-1" d="M102.54,43.66a2.52,2.52,0,0,0-.4-1.08,1.7,1.7,0,0,0-1.47-.65,1.93,1.93,0,0,0-1.93,1.4,6,6,0,0,0-.28,2,5.36,5.36,0,0,0,.28,1.88,1.87,1.87,0,0,0,1.89,1.34A1.66,1.66,0,0,0,102,48a2.62,2.62,0,0,0,.5-1.37h2.85a4.65,4.65,0,0,1-.92,2.41,4.48,4.48,0,0,1-3.89,1.83,4.56,4.56,0,0,1-3.8-1.53,6.17,6.17,0,0,1-1.21-4,6.24,6.24,0,0,1,1.34-4.28,4.67,4.67,0,0,1,3.71-1.53,5.61,5.61,0,0,1,3.29.9,4.21,4.21,0,0,1,1.51,3.19Z"/>
      <path class="cls-1" d="M111.54,44a4.61,4.61,0,0,0,1.12-.25.84.84,0,0,0,.6-.79.94.94,0,0,0-.46-.91,3,3,0,0,0-1.36-.25,1.8,1.8,0,0,0-1.42.49,2.09,2.09,0,0,0-.4,1h-2.69a4.06,4.06,0,0,1,.79-2.3c.74-.94,2-1.41,3.82-1.41a6.7,6.7,0,0,1,3.12.7A2.65,2.65,0,0,1,116,42.89v4.9c0,.34,0,.75,0,1.24a1.56,1.56,0,0,0,.17.74,1,1,0,0,0,.41.32v.42h-3a3.33,3.33,0,0,1-.17-.61,5.5,5.5,0,0,1-.08-.65A5.79,5.79,0,0,1,112,50.32a4,4,0,0,1-2,.52,3.55,3.55,0,0,1-2.41-.83,2.92,2.92,0,0,1-1-2.35,3,3,0,0,1,1.53-2.85,6.69,6.69,0,0,1,2.46-.68Zm1.71,1.3a3.4,3.4,0,0,1-.54.27,4.46,4.46,0,0,1-.75.19l-.64.12a4.39,4.39,0,0,0-1.28.38,1.28,1.28,0,0,0-.66,1.19,1.23,1.23,0,0,0,.4,1,1.56,1.56,0,0,0,1,.32,3,3,0,0,0,1.69-.53,2.24,2.24,0,0,0,.8-1.93Z"/>
      <path class="cls-1" d="M120.64,47.1a1.84,1.84,0,0,0,.38,1,2.57,2.57,0,0,0,1.93.56,3,3,0,0,0,1.31-.24.82.82,0,0,0,.1-1.45,15.38,15.38,0,0,0-2.92-.85,6.09,6.09,0,0,1-2.57-1.12,2.48,2.48,0,0,1-.74-1.92,3.32,3.32,0,0,1,1.16-2.54,4.69,4.69,0,0,1,3.28-1.07,6,6,0,0,1,3.26.8,3.41,3.41,0,0,1,1.45,2.76h-2.79a1.6,1.6,0,0,0-.31-.85,1.91,1.91,0,0,0-1.57-.57,2.26,2.26,0,0,0-1.3.28.82.82,0,0,0-.39.67.72.72,0,0,0,.41.69,18.35,18.35,0,0,0,2.92.78,5.31,5.31,0,0,1,2.5,1.18,2.7,2.7,0,0,1,.82,2,3.23,3.23,0,0,1-1.18,2.59,5.57,5.57,0,0,1-3.66,1A5.49,5.49,0,0,1,119,49.8a3.44,3.44,0,0,1-1.2-2.7Z"/>
      <path class="cls-1" d="M128.53,41.91v-2H130V37h2.77v3h1.73v2h-1.73v5.65c0,.43.05.71.16.81a1.78,1.78,0,0,0,1,.17h.55V50.6l-1.32,0a3.57,3.57,0,0,1-2.71-.68,2.07,2.07,0,0,1-.47-1.48V41.91Z"/>
      <path class="cls-1" d="M139.16,50.51h-2.79V36.06h2.79Z"/>
      <path class="cls-1" d="M148.85,40a4.37,4.37,0,0,1,1.84,1.58,5.24,5.24,0,0,1,.85,2.21,13.34,13.34,0,0,1,.1,2.12h-7.78A2.55,2.55,0,0,0,145,48.2a2.83,2.83,0,0,0,1.54.4,2.2,2.2,0,0,0,2.13-1.22h2.85a3.5,3.5,0,0,1-1,1.93,5.16,5.16,0,0,1-4,1.56,5.79,5.79,0,0,1-3.76-1.32,5.15,5.15,0,0,1-1.63-4.27A5.8,5.8,0,0,1,142.52,41a5.17,5.17,0,0,1,3.82-1.48A6.18,6.18,0,0,1,148.85,40Zm-4.18,2.41a2.94,2.94,0,0,0-.74,1.66h4.81a2.31,2.31,0,0,0-.75-1.69,2.44,2.44,0,0,0-1.65-.58A2.24,2.24,0,0,0,144.67,42.45Z"/>
      <path class="cls-1" d="M54.85,54.86h1.26v9.19H54.85Z"/>
      <path class="cls-1" d="M58,57.35H59v.95a3.08,3.08,0,0,1,1-.84,2.69,2.69,0,0,1,1.18-.26,2,2,0,0,1,1.93,1,3.64,3.64,0,0,1,.27,1.56v4.3H62.29V59.83a2.31,2.31,0,0,0-.18-1A1.11,1.11,0,0,0,61,58.21a2.37,2.37,0,0,0-.66.08,1.76,1.76,0,0,0-.81.55,1.73,1.73,0,0,0-.37.69,5,5,0,0,0-.08,1v3.51H58Z"/>
      <path class="cls-1" d="M65.32,55.48h1.14v1.87h1.07v.92H66.46v4.37a.48.48,0,0,0,.24.47,1,1,0,0,0,.43.07h.18l.22,0v.9l-.41.08-.45,0a1.23,1.23,0,0,1-1.07-.4,1.78,1.78,0,0,1-.28-1V58.27h-.91v-.92h.91Z"/>
      <path class="cls-1" d="M72.79,57.53a2.64,2.64,0,0,1,1,.87,2.85,2.85,0,0,1,.45,1.18,7.49,7.49,0,0,1,.1,1.48H69.48A2.87,2.87,0,0,0,70,62.7a1.58,1.58,0,0,0,1.38.61,1.79,1.79,0,0,0,1.4-.58,2.09,2.09,0,0,0,.41-.78h1.11a2.46,2.46,0,0,1-.29.82,2.93,2.93,0,0,1-.56.74,2.57,2.57,0,0,1-1.26.67,3.57,3.57,0,0,1-.91.1,2.76,2.76,0,0,1-2.1-.91,3.51,3.51,0,0,1-.87-2.54,3.85,3.85,0,0,1,.87-2.62,2.87,2.87,0,0,1,2.28-1A3,3,0,0,1,72.79,57.53Zm.4,2.63A3,3,0,0,0,72.88,59a1.63,1.63,0,0,0-1.53-.81,1.68,1.68,0,0,0-1.29.56,2.11,2.11,0,0,0-.56,1.42Z"/>
      <path class="cls-1" d="M75.81,57.35h1.07v1.16a2.48,2.48,0,0,1,.64-.83,1.68,1.68,0,0,1,1.18-.48h.11l.25,0v1.19l-.18,0h-.19a1.58,1.58,0,0,0-1.3.55,1.86,1.86,0,0,0-.46,1.25v3.86H75.81Z"/>
      <path class="cls-1" d="M80,57.35h1.11v.95a3.73,3.73,0,0,1,.73-.72,2.2,2.2,0,0,1,1.26-.38,2,2,0,0,1,1.29.39,2.17,2.17,0,0,1,.5.67,2.38,2.38,0,0,1,.88-.8A2.52,2.52,0,0,1,87,57.2a1.87,1.87,0,0,1,1.84,1,3.26,3.26,0,0,1,.26,1.41v4.46H87.88V59.39a1.07,1.07,0,0,0-.33-.91,1.33,1.33,0,0,0-.82-.25,1.6,1.6,0,0,0-1.14.44,2,2,0,0,0-.48,1.48v3.9H84V59.68a2.25,2.25,0,0,0-.17-1,1,1,0,0,0-1-.47,1.63,1.63,0,0,0-1.16.5,2.41,2.41,0,0,0-.53,1.79v3.55H80Z"/>
      <path class="cls-1" d="M94.84,57.53a2.67,2.67,0,0,1,1,.87,3,3,0,0,1,.44,1.18,7.49,7.49,0,0,1,.1,1.48H91.53A2.87,2.87,0,0,0,92,62.7a1.59,1.59,0,0,0,1.38.61,1.78,1.78,0,0,0,1.4-.58A2.09,2.09,0,0,0,95.2,62h1.11a2.46,2.46,0,0,1-.29.82,3.17,3.17,0,0,1-.55.74,2.57,2.57,0,0,1-1.26.67,3.71,3.71,0,0,1-.92.1,2.77,2.77,0,0,1-2.1-.91,3.51,3.51,0,0,1-.87-2.54,3.85,3.85,0,0,1,.87-2.62,2.87,2.87,0,0,1,2.28-1A3,3,0,0,1,94.84,57.53Zm.41,2.63A3.2,3.2,0,0,0,94.93,59a1.63,1.63,0,0,0-1.53-.81,1.71,1.71,0,0,0-1.29.56,2.1,2.1,0,0,0-.55,1.42Z"/>
      <path class="cls-1" d="M101.51,57.56a3,3,0,0,1,.68.65V54.83h1.08v9.22h-1v-.94a2.39,2.39,0,0,1-.92.9,2.71,2.71,0,0,1-1.23.27,2.47,2.47,0,0,1-1.93-.94,3.64,3.64,0,0,1-.82-2.5,4.33,4.33,0,0,1,.75-2.54,2.43,2.43,0,0,1,2.12-1.07A2.38,2.38,0,0,1,101.51,57.56Zm-2.52,5a1.61,1.61,0,0,0,1.46.72,1.53,1.53,0,0,0,1.28-.67,3.22,3.22,0,0,0,.5-1.93,2.85,2.85,0,0,0-.52-1.88,1.62,1.62,0,0,0-1.27-.61,1.68,1.68,0,0,0-1.37.65,3,3,0,0,0-.53,1.92A3.39,3.39,0,0,0,99,62.58Z"/>
      <path class="cls-1" d="M105,54.86h1.14v1.28H105Zm0,2.52h1.14v6.67H105Z"/>
      <path class="cls-1" d="M111.38,60a.61.61,0,0,0,.52-.32,1,1,0,0,0,.08-.43.92.92,0,0,0-.41-.84,2.11,2.11,0,0,0-1.17-.26,1.29,1.29,0,0,0-1.52,1.26h-1a2,2,0,0,1,.8-1.73,3.33,3.33,0,0,1,1.79-.48,3.64,3.64,0,0,1,1.92.45,1.51,1.51,0,0,1,.73,1.4V62.9a.49.49,0,0,0,.07.28c0,.07.15.1.31.1h.16l.2,0v.83a2.33,2.33,0,0,1-.4.09l-.37,0a.92.92,0,0,1-.84-.41,1.51,1.51,0,0,1-.2-.62,2.86,2.86,0,0,1-1,.78,3.06,3.06,0,0,1-1.42.33,2.14,2.14,0,0,1-1.52-.56,1.9,1.9,0,0,1-.59-1.42,1.81,1.81,0,0,1,.58-1.44,2.8,2.8,0,0,1,1.53-.63ZM109,63a1.32,1.32,0,0,0,.85.28A2.62,2.62,0,0,0,111,63a1.55,1.55,0,0,0,.94-1.49v-.91a2,2,0,0,1-.54.22,4.7,4.7,0,0,1-.63.13l-.68.09a2.44,2.44,0,0,0-.92.25,1,1,0,0,0-.52.94A.92.92,0,0,0,109,63Z"/>
      <path class="cls-1" d="M115,57.35H116v1.16a2.48,2.48,0,0,1,.64-.83,1.68,1.68,0,0,1,1.18-.48H118l.25,0v1.19l-.18,0h-.18a1.59,1.59,0,0,0-1.31.55,1.86,1.86,0,0,0-.46,1.25v3.86H115Z"/>
      <path class="cls-1" d="M119.18,54.86h1.14v1.28h-1.14Zm0,2.52h1.14v6.67h-1.14Z"/>
      <path class="cls-1" d="M126.16,57.53a2.64,2.64,0,0,1,1,.87,2.85,2.85,0,0,1,.45,1.18,7.49,7.49,0,0,1,.1,1.48h-4.87a2.87,2.87,0,0,0,.48,1.64,1.58,1.58,0,0,0,1.38.61,1.79,1.79,0,0,0,1.4-.58,2.09,2.09,0,0,0,.41-.78h1.11a2.46,2.46,0,0,1-.29.82,2.93,2.93,0,0,1-.56.74,2.49,2.49,0,0,1-1.26.67,3.57,3.57,0,0,1-.91.1,2.76,2.76,0,0,1-2.1-.91,3.51,3.51,0,0,1-.87-2.54,3.85,3.85,0,0,1,.87-2.62,2.87,2.87,0,0,1,2.28-1A3,3,0,0,1,126.16,57.53Zm.4,2.63a3,3,0,0,0-.31-1.17,1.63,1.63,0,0,0-1.53-.81,1.68,1.68,0,0,0-1.29.56,2.16,2.16,0,0,0-.56,1.42Z"/>
      <path class="cls-1" d="M129.81,62a1.65,1.65,0,0,0,.29.86,1.83,1.83,0,0,0,1.51.54,2.26,2.26,0,0,0,1.12-.27.91.91,0,0,0,.49-.84.72.72,0,0,0-.39-.66,5.49,5.49,0,0,0-1-.32l-.91-.22a4.19,4.19,0,0,1-1.28-.48,1.41,1.41,0,0,1-.74-1.26,1.93,1.93,0,0,1,.69-1.54,2.83,2.83,0,0,1,1.87-.58,2.61,2.61,0,0,1,2.21.88,1.93,1.93,0,0,1,.41,1.22H133a1.23,1.23,0,0,0-.27-.69,1.79,1.79,0,0,0-1.38-.45,1.68,1.68,0,0,0-1,.25.76.76,0,0,0-.34.64.8.8,0,0,0,.45.7,2.86,2.86,0,0,0,.75.27l.76.18a6.17,6.17,0,0,1,1.65.57,1.51,1.51,0,0,1,.66,1.36,2,2,0,0,1-.69,1.54,2.91,2.91,0,0,1-2.09.65,2.79,2.79,0,0,1-2.14-.68,2.54,2.54,0,0,1-.68-1.67Z"/>
      <rect class="cls-1" x="68.54" y="20.05" width="7.17" height="7.17"/>
      <polygon class="cls-1" points="39.15 0 39.15 20.05 46.32 20.05 46.32 27.22 53.84 27.22 53.84 20.05 61.02 20.05 61.02 27.22 66.37 27.22 66.37 0 39.15 0"/>
    </g>
  </g>
</svg>